{
.appVersion = "3309";
.formatVersion = 3;
customParameters = (
{
name = fsType;
value = (
);
},
{
name = "Use Typo Metrics";
value = 1;
}
);
date = "2024-06-12 12:52:42 +0000";
familyName = "Rammetto One";
featurePrefixes = (
{
automatic = 1;
code = "languagesystem DFLT dflt;

languagesystem latn dflt;
languagesystem latn AZE;
languagesystem latn CRT;
languagesystem latn KAZ;
languagesystem latn TAT;
languagesystem latn TRK;
languagesystem latn ROM;
languagesystem latn MOL;
languagesystem latn CAT;
";
name = Languagesystems;
}
);
features = (
{
automatic = 1;
code = "feature locl;
feature sups;
feature frac;
feature ordn;
feature case;
";
tag = aalt;
},
{
automatic = 1;
code = "lookup ccmp_DFLT_1 {
	@CombiningTopAccents = [acutecomb brevecomb breveinvertedcomb caroncomb circumflexcomb dieresiscomb dotaccentcomb gravecomb hungarumlautcomb macroncomb ringcomb tildecomb];
	lookupflag UseMarkFilteringSet @CombiningTopAccents;
	sub i' @CombiningTopAccents by idotless;
	sub j' @CombiningTopAccents by jdotless;
} ccmp_DFLT_1;

lookup ccmp_latn_1 {
	lookupflag 0;
	sub fi by f i;
	sub fl by f l;
	sub Ldot by L periodcentered.loclCAT.case;
	sub ldot by l periodcentered.loclCAT;
	sub lj by l j;
	sub Lj by L j;
	sub LJ by L J;
	sub nj by n j;
	sub Nj by N j;
	sub NJ by N J;
	sub dzcaron by d zcaron;
	sub Dzcaron by D zcaron;
	sub DZcaron by D Zcaron;
	sub dz by d z;
	sub Dz by D z;
	sub DZ by D Z;
} ccmp_latn_1;

script latn;
lookup ccmp_latn_1;
";
tag = ccmp;
},
{
automatic = 1;
code = "script latn;
language AZE;
lookup locl_latn_0 {
	sub i by idotaccent;
} locl_latn_0;
language CRT;
lookup locl_latn_0;
language KAZ;
lookup locl_latn_0;
language TAT;
lookup locl_latn_0;
language TRK;
lookup locl_latn_0;

script latn;
language ROM;
lookup locl_latn_1 {
	sub Scedilla by Scommaaccent;
	sub scedilla by scommaaccent;
} locl_latn_1;
language MOL;
lookup locl_latn_1;

script latn;
language CAT;
lookup locl_latn_2 {
	sub l periodcentered' l by periodcentered.loclCAT;

glyphs = (
{
glyphname = A;
kernLeft = _A;
kernRight = _A;
lastChange = "2024-06-12 14:56:43 +0000";
layers = (
{
anchors = (
{
name = bottom;
pos = (1064,0);
},
{
name = ogonek;
pos = (1915,10);
},
{
name = top;
pos = (1045,1554);
}
);
background = {
anchors = (
{
name = top;
pos = (1045,1554);
}
);
shapes = (
{
closed = 1;
nodes = (
(739,0,l),
(793,158,l),
(1225,158,l),
(1288,0,l),
(2099,0,l),
(1247,1522,ls),
(1205,1597,o),
(1123,1632,o),
(1044,1632,cs),
(956,1632,o),
(865,1589,o),
(827,1516,cs),
(33,0,l)
);
},
{
closed = 1;
nodes = (
(1012,907,l),
(1165,475,l),
(842,475,l)
);
}
);
};
layerId = "22B129CF-CF15-475D-9616-E64336B05864";
shapes = (
{
closed = 1;
nodes = (
(739,0,l),
(793,158,l),
(1225,158,l),
(1288,0,l),
(2099,0,l),
(1247,1522,ls),
(1205,1597,o),
(1123,1632,o),
(1044,1632,cs),
(956,1632,o),
(865,1589,o),
(827,1516,cs),
(33,0,l),
(33,0,l)
);
},
{
closed = 1;
nodes = (
(1012,907,l),
(1165,475,l),
(842,475,l),
(842,475,l)
);
}
);
width = 2128;
}
);
unicode = 65;
},
{
glyphname = Aacute;
kernLeft = _A;
kernRight = _A;
lastChange = "2024-06-12 13:57:54 +0000";
layers = (
{
associatedMasterId = "22B129CF-CF15-475D-9616-E64336B05864";
layerId = "B6CE1041-7538-4217-84EF-70C52ADE8BCB";
name = img;
width = 2144;
},
{
background = {
anchors = (
{
name = top;
pos = (1045,1554);
}
);
shapes = (
{
closed = 1;
nodes = (
(739,0,l),
(793,158,l),
(1225,158,l),
(1288,0,l),
(2099,0,l),
(1247,1522,ls),
(1205,1597,o),
(1123,1632,o),
(1044,1632,cs),
(956,1632,o),
(865,1589,o),
(827,1516,cs),
(33,0,l)
);
},
{
closed = 1;
nodes = (
(1012,907,l),
(1165,475,l),
(842,475,l)
);
},
{
closed = 1;
nodes = (
(1196,2351,l),
(1053,1852,ls),
(1047,1831,o),
(1045,1813,o),
(1045,1798,cs),
(1045,1764,o),
(1059,1743,o),
(1082,1743,cs),
(1106,1743,o),
(1137,1767,o),
(1174,1813,cs),
(1604,2351,l)
);
}
);
};
layerId = "22B129CF-CF15-475D-9616-E64336B05864";
shapes = (
{
ref = A;
},
{
pos = (975,874);
ref = acutecomb;
}
);
width = 2128;
}
);
unicode = 193;
},
{
glyphname = Acircumflex;
kernLeft = _A;
kernRight = _A;
lastChange = "2024-06-12 13:57:54 +0000";
layers = (
{
associatedMasterId = "22B129CF-CF15-475D-9616-E64336B05864";
layerId = "B6CE1041-7538-4217-84EF-70C52ADE8BCB";
name = img;
width = 2144;
},
{
background = {
anchors = (
{
name = top;
pos = (1045,1554);
}
);
shapes = (
{
closed = 1;
nodes = (
(739,0,l),
(793,158,l),
(1225,158,l),
(1288,0,l),
(2099,0,l),
(1247,1522,ls),
(1205,1597,o),
(1123,1632,o),
(1044,1632,cs),
(956,1632,o),
(865,1589,o),
(827,1516,cs),
(33,0,l)
);
},
{
closed = 1;
nodes = (
(1012,907,l),
(1165,475,l),
(842,475,l)
);
},
{
closed = 1;
nodes = (
(735,1878,l),
(723,1851,o),
(719,1830,o),
(719,1814,cs),
(719,1792,o),
(731,1779,o),
(750,1779,cs),
(776,1779,o),
(815,1802,o),
(856,1839,cs),
(1082,2045,l),
(1309,1839,ls),
(1349,1802,o),
(1388,1779,o),
(1415,1779,cs),
(1434,1779,o),
(1444,1792,o),
(1444,1814,cs),
(1444,1830,o),
(1443,1851,o),
(1430,1878,cs),
(1225,2295,ls),
(1194,2357,o),
(1139,2385,o),
(1084,2385,cs),
(1028,2385,o),
(968,2353,o),
(940,2295,cs)
);
}
);
};
layerId = "22B129CF-CF15-475D-9616-E64336B05864";
shapes = (
{
ref = A;
},
{
pos = (635,874);
ref = circumflexcomb;
}
);
width = 2128;
}
);
unicode = 194;
},
{
glyphname = Adieresis;
kernLeft = _A;
kernRight = _A;
lastChange = "2024-06-12 13:57:54 +0000";
layers = (
{
associatedMasterId = "22B129CF-CF15-475D-9616-E64336B05864";
layerId = "B6CE1041-7538-4217-84EF-70C52ADE8BCB";
name = img;
width = 2144;
},
{
background = {
anchors = (
{
name = top;
pos = (1045,1554);
}
);
shapes = (
{
closed = 1;
nodes = (
(739,0,l),
(793,158,l),
(1225,158,l),
(1288,0,l),
(2099,0,l),
(1247,1522,ls),
(1205,1597,o),
(1123,1632,o),
(1044,1632,cs),
(956,1632,o),
(865,1589,o),
(827,1516,cs),
(33,0,l)
);
},
{
closed = 1;
nodes = (
(1012,907,l),
(1165,475,l),
(842,475,l)
);
},
{
closed = 1;
nodes = (
(629,2158,o),
(536,2039,o),
(536,1923,cs),
(536,1810,o),
(612,1716,o),
(764,1716,cs),
(940,1716,o),
(1016,1837,o),
(1016,1957,cs),
(1016,2068,o),
(938,2158,o),
(794,2158,cs)
);
},
{
closed = 1;
nodes = (
(1235,2158,o),
(1143,2039,o),
(1143,1923,cs),
(1143,1810,o),
(1222,1716,o),
(1372,1716,cs),
(1548,1716,o),
(1622,1837,o),
(1622,1957,cs),
(1622,2068,o),
(1544,2158,o),
(1399,2158,cs)
);
}
);
};
layerId = "22B129CF-CF15-475D-9616-E64336B05864";
shapes = (
{
ref = A;
},
{
pos = (398,874);
ref = dieresiscomb;
}
);
width = 2128;
}
);
unicode = 196;
},
{
glyphname = Agrave;
kernLeft = _A;
kernRight = _A;
lastChange = "2024-06-12 13:57:54 +0000";
layers = (
{
associatedMasterId = "22B129CF-CF15-475D-9616-E64336B05864";
layerId = "B6CE1041-7538-4217-84EF-70C52ADE8BCB";
name = img;
width = 2144;
},
{
background = {
anchors = (
{
name = top;
pos = (1045,1554);
}
);
shapes = (
{
closed = 1;
nodes = (
(739,0,l),
(793,158,l),
(1225,158,l),
(1288,0,l),
(2099,0,l),
(1247,1522,ls),
(1205,1597,o),
(1123,1632,o),
(1044,1632,cs),
(956,1632,o),
(865,1589,o),
(827,1516,cs),
(33,0,l)
);
},
{
closed = 1;
nodes = (
(1012,907,l),
(1165,475,l),
(842,475,l)
);
},
{
closed = 1;
nodes = (
(559,2350,l),
(989,1812,ls),
(1026,1766,o),
(1056,1742,o),
(1081,1742,cs),
(1104,1742,o),
(1118,1763,o),
(1118,1797,cs),
(1118,1812,o),
(1116,1830,o),
(1110,1851,cs),
(966,2350,l)
);
}
);
};
layerId = "22B129CF-CF15-475D-9616-E64336B05864";
shapes = (
{
ref = A;
},
{
pos = (490,874);
ref = gravecomb;
}
);
width = 2128;
}
);
unicode = 192;
},
{
glyphname = Ainvertedbreve;
kernLeft = Ainvertedbreve;
kernRight = _A;
lastChange = "2024-06-12 14:22:11 +0000";
layers = (
{
background = {
anchors = (
{
name = top;
pos = (1045,1554);
}
);
shapes = (
{
closed = 1;
nodes = (
(739,0,l),
(793,158,l),
(1225,158,l),
(1288,0,l),
(2099,0,l),
(1247,1522,ls),
(1205,1597,o),
(1123,1632,o),
(1044,1632,cs),
(956,1632,o),
(865,1589,o),
(827,1516,cs),
(33,0,l)
);
},
{
closed = 1;
nodes = (
(1012,907,l),
(1165,475,l),
(842,475,l)
);
},
{
closed = 1;
nodes = (
(1600,1800,l),
(1600,2064,o),
(1412,2324,o),
(1045,2324,cs),
(677,2324,o),
(490,2066,o),
(490,1800,c),
(859,1800,l),
(859,1910,o),
(923,2015,o),
(1045,2015,cs),
(1168,2015,o),
(1230,1906,o),
(1230,1800,c)
);
}
);
};
layerId = "22B129CF-CF15-475D-9616-E64336B05864";
shapes = (
{
ref = A;
},
{
pos = (386,874);
ref = breveinvertedcomb;
}
);
width = 2128;
}
);
unicode = 514;
},
{
glyphname = Aring;
kernLeft = _A;
kernRight = _A;
lastChange = "2024-06-12 13:57:54 +0000";
layers = (
{
associatedMasterId = "22B129CF-CF15-475D-9616-E64336B05864";
layerId = "B6CE1041-7538-4217-84EF-70C52ADE8BCB";
name = img;
width = 2144;
},
{
background = {
anchors = (
{
name = top;
pos = (1045,1554);
}
);
shapes = (
{
closed = 1;
nodes = (
(739,0,l),
(793,158,l),
(1225,158,l),
(1288,0,l),
(2099,0,l),
(1247,1522,ls),
(1205,1597,o),
(1123,1632,o),
(1044,1632,cs),
(956,1632,o),
(865,1589,o),
(827,1516,cs),
(33,0,l)
);
},
{
closed = 1;
nodes = (
(1012,907,l),
(1165,475,l),
(842,475,l)
);
},
{
closed = 1;
nodes = (
(1130,2201,o),
(1179,2131,o),
(1179,2064,cs),
(1179,1996,o),
(1132,1929,o),
(1038,1929,cs),
(941,1929,o),
(892,1998,o),
(892,2068,cs),
(892,2134,o),
(939,2201,o),
(1034,2201,cs)
);
},
{
closed = 1;
nodes = (
(710,1853,o),
(872,1746,o),
(1036,1746,cs),
(1197,1746,o),
(1359,1853,o),
(1359,2066,cs),
(1359,2275,o),
(1195,2381,o),
(1034,2381,cs),
(872,2381,o),
(710,2277,o),
(710,2066,cs)
);
}
);
};
layerId = "22B129CF-CF15-475D-9616-E64336B05864";
shapes = (
{
ref = A;
},
{
pos = (674,874);
ref = ringcomb;
}
);
width = 2128;
}
);
unicode = 197;
},
{
glyphname = Atilde;
kernLeft = _A;
kernRight = _A;
lastChange = "2024-06-12 13:57:54 +0000";
layers = (
{
associatedMasterId = "22B129CF-CF15-475D-9616-E64336B05864";
layerId = "B6CE1041-7538-4217-84EF-70C52ADE8BCB";
name = img;
width = 2144;
},
{
background = {
anchors = (
{
name = top;
pos = (1045,1554);
}
);
shapes = (
{
closed = 1;
nodes = (
(739,0,l),
(793,158,l),
(1225,158,l),
(1288,0,l),
(2099,0,l),
(1247,1522,ls),
(1205,1597,o),
(1123,1632,o),
(1044,1632,cs),
(956,1632,o),
(865,1589,o),
(827,1516,cs),
(33,0,l)
);
},
{
closed = 1;
nodes = (
(1012,907,l),
(1165,475,l),
(842,475,l)
);
},
{
closed = 1;
nodes = (
(946,1863,o),
(1161,1757,o),
(1323,1757,cs),
(1458,1757,o),
(1558,1832,o),
(1558,2105,cs),
(1558,2113,o),
(1552,2121,o),
(1542,2121,cs),
(1519,2121,o),
(1474,2060,o),
(1399,2060,cs),
(1257,2060,o),
(1040,2164,o),
(872,2164,cs),
(731,2164,o),
(624,2091,o),
(624,1820,cs),
(624,1812,o),
(633,1804,o),
(643,1804,cs),
(663,1804,o),
(710,1863,o),
(784,1863,cs)
);
}
);
};
layerId = "22B129CF-CF15-475D-9616-E64336B05864";
shapes = (
{
ref = A;
},
{
pos = (443,874);
ref = tildecomb;
}
);
width = 2128;
}
);
unicode = 195;
},
{
glyphname = AE;
kernLeft = A;
kernRight = E;
lastChange = "2024-06-12 14:56:43 +0000";
layers = (
{
anchors = (
{
name = bottom;
pos = (1220,0);
},
{
name = top;
pos = (1220,1622);
}
);
background = {
shapes = (
{
closed = 1;
nodes = (
(23,0,l),
(674,0,l),
(745,123,l),
(1153,123,l),
(1153,0,l),
(2380,0,l),
(2380,444,l),
(1825,444,l),
(1825,618,l),
(2349,618,l),
(2349,1001,l),
(1825,1001,l),
(1825,1155,l),
(2349,1155,l),
(2349,1597,l),
(1114,1597,l)
);
},
{
closed = 1;
nodes = (
(1153,494,l),
(930,494,l),
(1153,920,l)
);
}
);
};
layerId = "22B129CF-CF15-475D-9616-E64336B05864";
shapes = (
{
closed = 1;
nodes = (
(23,0,l),
(674,0,l),
(745,123,l),
(1153,123,l),
(1153,0,l),
(2380,0,l),
(2380,444,l),
(1825,444,l),
(1825,618,l),
(2349,618,l),
(2349,1001,l),
(1825,1001,l),
(1825,1155,l),
(2349,1155,l),
(2349,1597,l),
(1114,1597,l),
(1114,1597,l)
);
},
{
closed = 1;
nodes = (
(1153,494,l),
(930,494,l),
(1153,920,l),
(1153,920,l)
);
}
);
width = 2439;
}
);
unicode = 198;
},
{
glyphname = B;
kernLeft = H;
kernRight = B;
lastChange = "2024-06-12 14:56:43 +0000";
layers = (
{
anchors = (
{
name = bottom;
pos = (946,0);
},
{
name = center;
pos = (473,400);
},
{
name = top;
pos = (946,1622);
}
);
background = {
guides = (
{
angle = 90;
pos = (748,0);
}
);
shapes = (
{
closed = 1;
nodes = (
(123,4,l),
(242,-4,o),
(795,-23,o),
(913,-23,cs),
(1272,-23,o),
(1808,0,o),
(1808,467,cs),
(1808,770,o),
(1640,879,o),
(1475,936,c),
(1632,1008,o),
(1708,1102,o),
(1708,1249,cs),
(1708,1479,o),
(1511,1622,o),
(918,1622,cs),
(653,1622,o),
(123,1597,o),
(123,1597,c)
);
},
{
closed = 1;
nodes = (
(1143,480,o),
(1008,430,o),
(800,352,cs),
(783,346,o),
(766,339,o),
(748,332,c),
(748,584,l),
(817,618,o),
(954,705,o),
(1044,705,cs),
(1100,705,o),
(1143,682,o),
(1143,621,cs)
);
},
{
closed = 1;
nodes = (
(748,1126,l),
(754,1130,o),
(897,1225,o),
(989,1225,cs),
(1034,1225,o),
(1090,1198,o),
(1090,1139,cs),
(1090,1004,o),
(918,932,o),
(748,866,c)
);
}
);
};
guides = (
{
angle = 90;
pos = (748,0);
}
);
layerId = "22B129CF-CF15-475D-9616-E64336B05864";
shapes = (
{
closed = 1;
nodes = (
(123,4,l),
(242,-4,o),
(795,-23,o),
(913,-23,cs),
(1272,-23,o),
(1808,0,o),
(1808,467,cs),
(1808,770,o),
(1640,879,o),
(1475,936,c),
(1632,1008,o),
(1708,1102,o),
(1708,1249,cs),
(1708,1479,o),
(1511,1622,o),
(918,1622,cs),
(653,1622,o),
(123,1597,o),
(123,1597,c)
);
},
{
closed = 1;
nodes = (
(1143,480,o),
(1008,430,o),
(800,352,cs),
(783,346,o),
(766,339,o),
(748,332,c),
(748,584,l),
(817,618,o),
(954,705,o),
(1044,705,cs),
(1100,705,o),
(1143,682,o),
(1143,621,cs)
);
},
{
closed = 1;
nodes = (
(748,1126,l),
(754,1130,o),
(897,1225,o),
(989,1225,cs),
(1034,1225,o),
(1090,1198,o),
(1090,1139,cs),
(1090,1004,o),
(918,932,o),
(748,866,c)
);
}
);
width = 1892;
}
);
unicode = 66;
},
{
glyphname = C;
kernLeft = _O_left;
kernRight = C;
lastChange = "2024-06-12 14:56:43 +0000";
layers = (
{
anchors = (
{
name = bot;
pos = (926,0);
},
{
name = bottom;
pos = (763,0);
},
{
name = top;
pos = (895,1554);
}
);
background = {
anchors = (
{
name = bot;
pos = (926,0);
},
{
name = top;
pos = (895,1554);
}
);
shapes = (
{
closed = 1;
nodes = (
(1413,698,l),
(1167,518,o),
(1085,508,o),
(1024,508,cs),
(920,508,o),
(866,590,o),
(866,727,cs),
(866,934,o),
(1040,1102,o),
(1247,1102,cs),
(1290,1102,o),
(1337,1094,o),
(1382,1077,c),
(1382,1593,l),
(1276,1632,o),
(1114,1642,o),
(1034,1642,cs),
(459,1642,o),
(61,1276,o),
(61,745,cs),
(61,244,o),
(498,-39,o),
(952,-39,cs),
(1116,-39,o),
(1272,-10,o),
(1413,47,c)
);
}
);
};
layerId = "22B129CF-CF15-475D-9616-E64336B05864";
shapes = (
{
closed = 1;
nodes = (
(1413,698,l),
(1167,518,o),
(1085,508,o),
(1024,508,cs),
(920,508,o),
(866,590,o),
(866,727,cs),
(866,934,o),
(1040,1102,o),
(1247,1102,cs),
(1290,1102,o),
(1337,1094,o),
(1382,1077,c),
(1382,1593,l),
(1276,1632,o),
(1114,1642,o),
(1034,1642,cs),
(459,1642,o),
(61,1276,o),
(61,745,cs),
(61,244,o),
(498,-39,o),
(952,-39,cs),
(1116,-39,o),
(1272,-10,o),
(1413,47,c)
);
}
);
width = 1526;
}
);
unicode = 67;
},
{
glyphname = Cacute;
kernLeft = _O_left;
kernRight = C;
lastChange = "2024-06-12 14:22:11 +0000";
layers = (
{
background = {
anchors = (
{
name = bot;
pos = (926,0);
},
{
name = top;
pos = (895,1554);
}
);
shapes = (
{
closed = 1;
nodes = (
(1413,698,l),
(1167,518,o),
(1085,508,o),
(1024,508,cs),
(920,508,o),
(866,590,o),
(866,727,cs),
(866,934,o),
(1040,1102,o),
(1247,1102,cs),
(1290,1102,o),
(1337,1094,o),
(1382,1077,c),
(1382,1593,l),
(1276,1632,o),
(1114,1642,o),
(1034,1642,cs),
(459,1642,o),
(61,1276,o),
(61,745,cs),
(61,244,o),
(498,-39,o),
(952,-39,cs),
(1116,-39,o),
(1272,-10,o),
(1413,47,c)
);
},
{
closed = 1;
nodes = (
(1009,2351,l),
(866,1852,ls),
(860,1831,o),
(858,1813,o),
(858,1798,cs),
(858,1764,o),
(872,1743,o),
(895,1743,cs),
(919,1743,o),
(950,1767,o),
(987,1813,cs),
(1417,2351,l)
);
}
);
};
layerId = "22B129CF-CF15-475D-9616-E64336B05864";
shapes = (
{
ref = C;
},
{
pos = (825,874);
ref = acutecomb;
}
);
width = 1526;
}
);
unicode = 262;
},
{
glyphname = Ccaron;
kernLeft = _O_left;
kernRight = C;
lastChange = "2024-06-12 14:22:11 +0000";
layers = (
{
background = {
anchors = (
{
name = bot;
pos = (926,0);
},
{
name = top;
pos = (895,1554);
}
);
shapes = (
{
closed = 1;
nodes = (
(1413,698,l),
(1167,518,o),
(1085,508,o),
(1024,508,cs),
(920,508,o),
(866,590,o),
(866,727,cs),
(866,934,o),
(1040,1102,o),
(1247,1102,cs),
(1290,1102,o),
(1337,1094,o),
(1382,1077,c),
(1382,1593,l),
(1276,1632,o),
(1114,1642,o),
(1034,1642,cs),
(459,1642,o),
(61,1276,o),
(61,745,cs),
(61,244,o),
(498,-39,o),
(952,-39,cs),
(1116,-39,o),
(1272,-10,o),
(1413,47,c)
);
},
{
closed = 1;
nodes = (
(754,1863,ls),
(782,1806,o),
(843,1773,o),
(897,1773,cs),
(952,1773,o),
(1009,1801,o),
(1039,1863,cs),
(1243,2281,ls),
(1256,2308,o),
(1258,2328,o),
(1258,2344,cs),
(1258,2367,o),
(1247,2379,o),
(1229,2379,cs),
(1202,2379,o),
(1162,2356,o),
(1123,2320,cs),
(895,2113,l),
(670,2320,ls),
(629,2357,o),
(590,2379,o),
(563,2379,cs),
(545,2379,o),
(533,2367,o),
(533,2344,cs),
(533,2326,o),
(538,2307,o),
(549,2281,c)
);
}
);
};
layerId = "22B129CF-CF15-475D-9616-E64336B05864";
shapes = (
{
ref = C;
},
{
pos = (502,874);
ref = caroncomb;
}
);
width = 1526;
}
);
unicode = 268;
},
{
glyphname = Ccedilla;
kernLeft = _o_left;
kernRight = C;
lastChange = "2024-06-12 14:22:11 +0000";
layers = (
{
associatedMasterId = "22B129CF-CF15-475D-9616-E64336B05864";
layerId = "B6CE1041-7538-4217-84EF-70C52ADE8BCB";
name = img;
width = 1526;
},
{
background = {
anchors = (
{
name = bot;
pos = (926,0);
},
{
name = top;
pos = (895,1554);
}
);
shapes = (
{
closed = 1;
nodes = (
(1413,698,l),
(1167,518,o),
(1085,508,o),
(1024,508,cs),
(920,508,o),
(866,590,o),
(866,727,cs),
(866,934,o),
(1040,1102,o),
(1247,1102,cs),
(1290,1102,o),
(1337,1094,o),
(1382,1077,c),
(1382,1593,l),
(1276,1632,o),
(1114,1642,o),
(1034,1642,cs),
(459,1642,o),
(61,1276,o),
(61,745,cs),
(61,244,o),
(498,-39,o),
(952,-39,cs),
(1116,-39,o),
(1272,-10,o),
(1413,47,c)
);
},
{
closed = 1;
nodes = (
(698,-596,o),
(815,-631,o),
(925,-631,cs),
(1077,-631,o),
(1220,-563,o),
(1220,-403,cs),
(1220,-218,o),
(1048,-200,o),
(964,-192,cs),
(942,-190,l),
(1003,0,l),
(866,0,l),
(866,0,o),
(771,-322,o),
(772,-328,c),
(860,-328,o),
(948,-360,o),
(948,-420,cs),
(948,-469,o),
(895,-485,o),
(858,-485,cs),
(753,-485,o),
(661,-422,o),
(643,-422,cs),
(612,-422,o),
(583,-451,o),
(583,-483,cs),
(583,-502,o),
(596,-524,o),
(622,-545,c)
);
}
);
};
layerId = "22B129CF-CF15-475D-9616-E64336B05864";
shapes = (
{
ref = C;
},
{
pos = (564,0);
ref = cedillacomb;
}
);
width = 1526;
}
);
unicode = 199;
},
{
glyphname = Ccircumflex;
kernLeft = _o_left;
kernRight = C;
lastChange = "2024-06-12 14:22:11 +0000";
layers = (
{
associatedMasterId = "22B129CF-CF15-475D-9616-E64336B05864";
layerId = "B6CE1041-7538-4217-84EF-70C52ADE8BCB";
name = img;
width = 1526;
},
{
background = {
anchors = (
{
name = bot;
pos = (926,0);
},
{
name = top;
pos = (895,1554);
}
);
shapes = (
{
closed = 1;
nodes = (
(1413,698,l),
(1167,518,o),
(1085,508,o),
(1024,508,cs),
(920,508,o),
(866,590,o),
(866,727,cs),
(866,934,o),
(1040,1102,o),
(1247,1102,cs),
(1290,1102,o),
(1337,1094,o),
(1382,1077,c),
(1382,1593,l),
(1276,1632,o),
(1114,1642,o),
(1034,1642,cs),
(459,1642,o),
(61,1276,o),
(61,745,cs),
(61,244,o),
(498,-39,o),
(952,-39,cs),
(1116,-39,o),
(1272,-10,o),
(1413,47,c)
);
},
{
closed = 1;
nodes = (
(548,1878,l),
(536,1851,o),
(532,1830,o),
(532,1814,cs),
(532,1792,o),
(544,1779,o),
(563,1779,cs),
(589,1779,o),
(628,1802,o),
(669,1839,cs),
(895,2045,l),
(1122,1839,ls),
(1162,1802,o),
(1201,1779,o),
(1228,1779,cs),
(1247,1779,o),
(1257,1792,o),
(1257,1814,cs),
(1257,1830,o),
(1256,1851,o),
(1243,1878,cs),
(1038,2295,ls),
(1007,2357,o),
(952,2385,o),
(897,2385,cs),
(841,2385,o),
(781,2353,o),
(753,2295,cs)
);
}
);
};
layerId = "22B129CF-CF15-475D-9616-E64336B05864";
shapes = (
{
ref = C;
},
{
pos = (485,874);
ref = circumflexcomb;
}
);
width = 1526;
}
);
unicode = 264;
},
{
glyphname = D;
kernLeft = H;
kernRight = _O_right;
lastChange = "2024-06-12 14:56:43 +0000";
layers = (
{
anchors = (
{
name = bottom;
pos = (905,0);
},
{
name = center;
pos = (453,811);
},
{
name = top;
pos = (836,1555);
}
);
background = {
anchors = (
{
name = top;
pos = (836,1555);
}
);
guides = (
{
angle = 90;
pos = (745,0);
}
);
shapes = (
{
closed = 1;
nodes = (
(123,0,l),
(889,0,ls),
(1370,0,o),
(1735,295,o),
(1735,797,cs),
(1735,1200,o),
(1493,1642,o),
(971,1642,cs),
(688,1642,o),
(123,1597,o),
(123,1597,c)
);
},
{
closed = 1;
nodes = (
(745,1090,l),
(784,1135,o),
(840,1174,o),
(901,1174,cs),
(1028,1174,o),
(1098,1038,o),
(1098,928,cs),
(1098,707,o),
(887,602,o),
(745,481,c)
);
}
);
};
guides = (
{
angle = 90;
pos = (745,0);
}
);
layerId = "22B129CF-CF15-475D-9616-E64336B05864";
shapes = (
{
closed = 1;
nodes = (
(123,0,l),
(889,0,ls),
(1370,0,o),
(1735,295,o),
(1735,797,cs),
(1735,1200,o),
(1493,1642,o),
(971,1642,cs),
(688,1642,o),
(123,1597,o),
(123,1597,c)
);
},
{
closed = 1;
nodes = (
(745,1090,l),
(784,1135,o),
(840,1174,o),
(901,1174,cs),
(1028,1174,o),
(1098,1038,o),
(1098,928,cs),
(1098,707,o),
(887,602,o),
(745,481,c)
);
}
);
width = 1810;
}
);
unicode = 68;
},
{
glyphname = DZ;
kernLeft = H;
kernRight = Z;
lastChange = "2024-06-12 14:22:11 +0000";
layers = (
{
associatedMasterId = "22B129CF-CF15-475D-9616-E64336B05864";
layerId = "B6CE1041-7538-4217-84EF-70C52ADE8BCB";
name = img;
width = 3576;
},
{
background = {
anchors = (
{
name = top;
pos = (2679,1554);
}
);
shapes = (
{
closed = 1;
nodes = (
(123,0,l),
(889,0,ls),
(1370,0,o),
(1735,295,o),
(1735,797,cs),
(1735,1200,o),
(1493,1642,o),
(971,1642,cs),
(688,1642,o),
(123,1597,o),
(123,1597,c)
);
},
{
closed = 1;
nodes = (
(745,1090,l),
(784,1135,o),
(840,1174,o),
(901,1174,cs),
(1028,1174,o),
(1098,1038,o),
(1098,928,cs),
(1098,707,o),
(887,602,o),
(745,481,c)
);
},
{
closed = 1;
nodes = (
(1840,92,l),
(1840,0,l),
(3457,0,l),
(3457,457,l),
(2841,457,l),
(3457,1475,l),
(3457,1597,l),
(1901,1597,l),
(1901,1114,l),
(2452,1114,l)
);
}
);
};
layerId = "22B129CF-CF15-475D-9616-E64336B05864";
shapes = (
{
ref = D;
},
{
pos = (1703,0);
ref = Z;
}
);
width = 3548;
}
);
unicode = 497;
},
{
glyphname = DZcaron;
kernLeft = H;
kernRight = Z;
lastChange = "2024-06-12 14:22:11 +0000";
layers = (
{
background = {
anchors = (
{
name = top;
pos = (2640,1554);
}
);
shapes = (
{
closed = 1;
nodes = (
(123,0,l),
(889,0,ls),
(1370,0,o),
(1735,295,o),
(1735,797,cs),
(1735,1200,o),
(1493,1642,o),
(971,1642,cs),
(688,1642,o),
(123,1597,o),
(123,1597,c)
);
},
{
closed = 1;
nodes = (
(745,1090,l),
(784,1135,o),
(840,1174,o),
(901,1174,cs),
(1028,1174,o),
(1098,1038,o),
(1098,928,cs),
(1098,707,o),
(887,602,o),
(745,481,c)
);
},
{
closed = 1;
nodes = (
(1801,92,l),
(1801,0,l),
(3418,0,l),
(3418,457,l),
(2802,457,l),
(3418,1475,l),
(3418,1597,l),
(1862,1597,l),
(1862,1114,l),
(2413,1114,l)
);
},
{
closed = 1;
nodes = (
(2532,1780,ls),
(2560,1723,o),
(2621,1690,o),
(2675,1690,cs),
(2730,1690,o),
(2787,1718,o),
(2817,1780,cs),
(3021,2198,ls),
(3034,2225,o),
(3036,2245,o),
(3036,2261,cs),
(3036,2284,o),
(3025,2296,o),
(3007,2296,cs),
(2980,2296,o),
(2940,2273,o),
(2901,2237,cs),
(2673,2030,l),
(2448,2237,ls),
(2407,2274,o),
(2368,2296,o),
(2341,2296,cs),
(2323,2296,o),
(2311,2284,o),
(2311,2261,cs),
(2311,2243,o),
(2316,2224,o),
(2327,2198,c)
);
}
);
};
layerId = "22B129CF-CF15-475D-9616-E64336B05864";
shapes = (
{
ref = DZ;
},
{
pos = (2258,874);
ref = caroncomb;
}
);
width = 3548;
}
);
unicode = 452;
},
{
glyphname = Dcaron;
kernLeft = H;
kernRight = _O_right;
lastChange = "2024-06-12 14:22:11 +0000";
layers = (
{
background = {
anchors = (
{
name = top;
pos = (836,1555);
}
);
shapes = (
{
closed = 1;
nodes = (
(123,0,l),
(889,0,ls),
(1370,0,o),
(1735,295,o),
(1735,797,cs),
(1735,1200,o),
(1493,1642,o),
(971,1642,cs),
(688,1642,o),
(123,1597,o),
(123,1597,c)
);
},
{
closed = 1;
nodes = (
(745,1090,l),
(784,1135,o),
(840,1174,o),
(901,1174,cs),
(1028,1174,o),
(1098,1038,o),
(1098,928,cs),
(1098,707,o),
(887,602,o),
(745,481,c)
);
},
{
closed = 1;
nodes = (
(695,1864,ls),
(723,1807,o),
(784,1774,o),
(838,1774,cs),
(893,1774,o),
(950,1802,o),
(980,1864,cs),
(1184,2282,ls),
(1197,2309,o),
(1199,2329,o),
(1199,2345,cs),
(1199,2368,o),
(1188,2380,o),
(1170,2380,cs),
(1143,2380,o),
(1103,2357,o),
(1064,2321,cs),
(836,2114,l),
(611,2321,ls),
(570,2358,o),
(531,2380,o),
(504,2380,cs),
(486,2380,o),
(474,2368,o),
(474,2345,cs),
(474,2327,o),
(479,2308,o),
(490,2282,c)
);
}
);
};
layerId = "22B129CF-CF15-475D-9616-E64336B05864";
shapes = (
{
ref = D;
},
{
pos = (443,875);
ref = caroncomb;
}
);
width = 1810;
}
);
unicode = 270;
},
{
glyphname = Dcroat;
kernLeft = H;
kernRight = _O_right;
lastChange = "2024-06-12 14:22:11 +0000";
layers = (
{
background = {
shapes = (
{
closed = 1;
nodes = (
(123,0,l),
(889,0,ls),
(1370,0,o),
(1735,295,o),
(1735,797,cs),
(1735,1200,o),
(1493,1642,o),
(971,1642,cs),
(688,1642,o),
(123,1597,o),
(123,1597,c),
(123,983,l),
(49,983,l),
(49,748,l),
(123,748,l)
);
},
{
closed = 1;
nodes = (
(745,1090,l),
(784,1135,o),
(840,1174,o),
(901,1174,cs),
(1028,1174,o),
(1098,1038,o),
(1098,928,cs),
(1098,707,o),
(887,602,o),
(745,481,c),
(745,748,l),
(922,748,l),
(922,983,l),
(745,983,l)
);
}
);
};
layerId = "22B129CF-CF15-475D-9616-E64336B05864";
shapes = (
{
ref = Eth;
}
);
width = 1812;
}
);
unicode = 272;
},
{
glyphname = Dz;
kernLeft = H;
kernRight = z;
lastChange = "2024-06-12 14:22:11 +0000";
layers = (
{
background = {
anchors = (
{
name = top;
pos = (2472,1243);
}
);
shapes = (
{
closed = 1;
nodes = (
(123,0,l),
(889,0,ls),
(1370,0,o),
(1735,295,o),
(1735,797,cs),
(1735,1200,o),
(1493,1642,o),
(971,1642,cs),
(688,1642,o),
(123,1597,o),
(123,1597,c)
);
},
{
closed = 1;
nodes = (
(745,1090,l),
(784,1135,o),
(840,1174,o),
(901,1174,cs),
(1028,1174,o),
(1098,1038,o),
(1098,928,cs),
(1098,707,o),
(887,602,o),
(745,481,c)
);
},
{
closed = 1;
nodes = (
(1811,68,l),
(1811,0,l),
(3097,0,l),
(3097,356,l),
(2613,356,l),
(3097,1151,l),
(3097,1243,l),
(1858,1243,l),
(1858,866,l),
(2290,866,l)
);
}
);
};
layerId = "22B129CF-CF15-475D-9616-E64336B05864";
shapes = (
{
ref = D;
},
{
pos = (1810,0);
ref = z;
}
);
width = 3293;
}
);
unicode = 498;
},
{
glyphname = Dzcaron;
kernLeft = H;
kernRight = z;
lastChange = "2024-06-12 14:22:11 +0000";
layers = (
{
background = {
anchors = (
{
name = top;
pos = (2554,1243);
}
);
shapes = (
{
closed = 1;
nodes = (
(123,0,l),
(889,0,ls),
(1370,0,o),
(1735,295,o),
(1735,797,cs),
(1735,1200,o),
(1493,1642,o),
(971,1642,cs),
(688,1642,o),
(123,1597,o),
(123,1597,c)
);
},
{
closed = 1;
nodes = (
(745,1090,l),
(784,1135,o),
(840,1174,o),
(901,1174,cs),
(1028,1174,o),
(1098,1038,o),
(1098,928,cs),
(1098,707,o),
(887,602,o),
(745,481,c)
);
},
{
closed = 1;
nodes = (
(1893,68,l),
(1893,0,l),
(3179,0,l),
(3179,356,l),
(2695,356,l),
(3179,1151,l),
(3179,1243,l),
(1940,1243,l),
(1940,866,l),
(2372,866,l)
);
},
{
closed = 1;
nodes = (
(2413,1552,ls),
(2441,1495,o),
(2502,1462,o),
(2556,1462,cs),
(2611,1462,o),
(2668,1490,o),
(2698,1552,cs),
(2902,1970,ls),
(2915,1997,o),
(2917,2017,o),
(2917,2033,cs),
(2917,2056,o),
(2906,2068,o),
(2888,2068,cs),
(2861,2068,o),
(2821,2045,o),
(2782,2009,cs),
(2554,1802,l),
(2329,2009,ls),
(2288,2046,o),
(2249,2068,o),
(2222,2068,cs),
(2204,2068,o),
(2192,2056,o),
(2192,2033,cs),
(2192,2015,o),
(2197,1996,o),
(2208,1970,c)
);
}
);
};
layerId = "22B129CF-CF15-475D-9616-E64336B05864";
shapes = (
{
ref = D;
},
{
pos = (1810,0);
ref = zcaron;
}
);
width = 3293;
}
);
unicode = 453;
},
{
glyphname = Eth;
kernLeft = H;
kernRight = _O_right;
lastChange = "2024-06-12 14:56:43 +0000";
layers = (
{
anchors = (
{
name = bottom;
pos = (906,0);
},
{
name = top;
pos = (906,1622);
}
);
background = {
shapes = (
{
closed = 1;
nodes = (
(123,0,l),
(889,0,ls),
(1370,0,o),
(1735,295,o),
(1735,797,cs),
(1735,1200,o),
(1493,1642,o),
(971,1642,cs),
(688,1642,o),
(123,1597,o),
(123,1597,c),
(123,983,l),
(49,983,l),
(49,748,l),
(123,748,l)
);
},
{
closed = 1;
nodes = (
(745,1090,l),
(784,1135,o),
(840,1174,o),
(901,1174,cs),
(1028,1174,o),
(1098,1038,o),
(1098,928,cs),
(1098,707,o),
(887,602,o),
(745,481,c),
(745,748,l),
(922,748,l),
(922,983,l),
(745,983,l)
);
}
);
};
layerId = "22B129CF-CF15-475D-9616-E64336B05864";
shapes = (
{
closed = 1;
nodes = (
(123,0,l),
(889,0,ls),
(1370,0,o),
(1735,295,o),
(1735,797,cs),
(1735,1200,o),
(1493,1642,o),
(971,1642,cs),
(688,1642,o),
(123,1597,o),
(123,1597,c),
(123,983,l),
(49,983,l),
(49,748,l),
(123,748,l),
(123,748,l)
);
},
{
closed = 1;
nodes = (
(745,1090,l),
(784,1135,o),
(840,1174,o),
(901,1174,cs),
(1028,1174,o),
(1098,1038,o),
(1098,928,cs),
(1098,707,o),
(887,602,o),
(745,481,c),
(745,748,l),
(922,748,l),
(922,983,l),
(745,983,l),
(745,983,l)
);
}
);
width = 1812;
}
);
unicode = 208;
},
{
glyphname = E;
kernLeft = H;
kernRight = E;
lastChange = "2024-06-12 14:56:43 +0000";
layers = (
{
anchors = (
{
name = bottom;
pos = (712,0);
},
{
name = ogonek;
pos = (1281,10);
},
{
name = top;
pos = (705,1554);
},
{
name = topleft;
pos = (20,1622);
}
);
background = {
anchors = (
{
name = top;
pos = (705,1554);
}
);
shapes = (
{
closed = 1;
nodes = (
(123,0,l),
(1309,0,l),
(1309,463,l),
(745,463,l),
(745,614,l),
(1272,614,l),
(1272,1006,l),
(745,1006,l),
(745,1137,l),
(1274,1137,l),
(1274,1597,l),
(123,1597,l)
);
}
);
};
layerId = "22B129CF-CF15-475D-9616-E64336B05864";
shapes = (
{
closed = 1;
nodes = (
(123,0,l),
(1309,0,l),
(1309,463,l),
(745,463,l),
(745,614,l),
(1272,614,l),
(1272,1006,l),
(745,1006,l),
(745,1137,l),
(1274,1137,l),
(1274,1597,l),
(123,1597,l),
(123,1597,l)
);
}
);
width = 1423;
}
);
unicode = 69;
},
{
glyphname = Eacute;
kernLeft = H;
kernRight = E;
lastChange = "2024-06-12 14:22:11 +0000";
layers = (
{
associatedMasterId = "22B129CF-CF15-475D-9616-E64336B05864";
layerId = "B6CE1041-7538-4217-84EF-70C52ADE8BCB";
name = img;
width = 1423;
},
{
background = {
anchors = (
{
name = top;
pos = (705,1554);
}
);
shapes = (
{
closed = 1;
nodes = (
(123,0,l),
(1309,0,l),
(1309,463,l),
(745,463,l),
(745,614,l),
(1272,614,l),
(1272,1006,l),
(745,1006,l),
(745,1137,l),
(1274,1137,l),
(1274,1597,l),
(123,1597,l)
);
},
{
closed = 1;
nodes = (
(819,2351,l),
(676,1852,ls),
(670,1831,o),
(668,1813,o),
(668,1798,cs),
(668,1764,o),
(682,1743,o),
(705,1743,cs),
(729,1743,o),
(760,1767,o),
(797,1813,cs),
(1227,2351,l)
);
}
);
};
layerId = "22B129CF-CF15-475D-9616-E64336B05864";
shapes = (
{
ref = E;
},
{
pos = (635,874);
ref = acutecomb;
}
);
width = 1423;
}
);
unicode = 201;
},
{
glyphname = Ecaron;
kernLeft = H;
kernRight = E;
lastChange = "2024-06-12 14:22:11 +0000";
layers = (
{
background = {
anchors = (
{
name = top;
pos = (705,1554);
}
);
shapes = (
{
closed = 1;
nodes = (
(123,0,l),
(1309,0,l),
(1309,463,l),
(745,463,l),
(745,614,l),
(1272,614,l),
(1272,1006,l),
(745,1006,l),
(745,1137,l),
(1274,1137,l),
(1274,1597,l),
(123,1597,l)
);
},
{
closed = 1;
nodes = (
(564,1863,ls),
(592,1806,o),
(653,1773,o),
(707,1773,cs),
(762,1773,o),
(819,1801,o),
(849,1863,cs),
(1053,2281,ls),
(1066,2308,o),
(1068,2328,o),
(1068,2344,cs),
(1068,2367,o),
(1057,2379,o),
(1039,2379,cs),
(1012,2379,o),
(972,2356,o),
(933,2320,cs),
(705,2113,l),
(480,2320,ls),
(439,2357,o),
(400,2379,o),
(373,2379,cs),
(355,2379,o),
(343,2367,o),
(343,2344,cs),
(343,2326,o),
(348,2307,o),
(359,2281,c)
);
}
);
};
layerId = "22B129CF-CF15-475D-9616-E64336B05864";
shapes = (
{
ref = E;
},
{
pos = (312,874);
ref = caroncomb;
}
);
width = 1423;
}
);
unicode = 282;
},
{
glyphname = Ecircumflex;
kernLeft = H;
kernRight = E;
lastChange = "2024-06-12 14:22:11 +0000";
layers = (
{
associatedMasterId = "22B129CF-CF15-475D-9616-E64336B05864";
layerId = "B6CE1041-7538-4217-84EF-70C52ADE8BCB";
name = img;
width = 1423;
},
{
background = {
anchors = (
{
name = top;
pos = (705,1554);
}
);
shapes = (
{
closed = 1;
nodes = (
(123,0,l),
(1309,0,l),
(1309,463,l),
(745,463,l),
(745,614,l),
(1272,614,l),
(1272,1006,l),
(745,1006,l),
(745,1137,l),
(1274,1137,l),
(1274,1597,l),
(123,1597,l)
);
},
{
closed = 1;
nodes = (
(358,1878,l),
(346,1851,o),
(342,1830,o),
(342,1814,cs),
(342,1792,o),
(354,1779,o),
(373,1779,cs),
(399,1779,o),
(438,1802,o),
(479,1839,cs),
(705,2045,l),
(932,1839,ls),
(972,1802,o),
(1011,1779,o),
(1038,1779,cs),
(1057,1779,o),
(1067,1792,o),
(1067,1814,cs),
(1067,1830,o),
(1066,1851,o),
(1053,1878,cs),
(848,2295,ls),
(817,2357,o),
(762,2385,o),
(707,2385,cs),
(651,2385,o),
(591,2353,o),
(563,2295,cs)
);
}
);
};
layerId = "22B129CF-CF15-475D-9616-E64336B05864";
shapes = (
{
ref = E;
},
{
pos = (295,874);
ref = circumflexcomb;
}
);
width = 1423;
}
);
unicode = 202;
},
{
glyphname = Edieresis;
kernLeft = H;
kernRight = E;
lastChange = "2024-06-12 14:22:11 +0000";
layers = (
{
associatedMasterId = "22B129CF-CF15-475D-9616-E64336B05864";
layerId = "B6CE1041-7538-4217-84EF-70C52ADE8BCB";
name = img;
width = 1423;
},
{
background = {
anchors = (
{
name = top;
pos = (705,1554);
}
);
shapes = (
{
closed = 1;
nodes = (
(123,0,l),
(1309,0,l),
(1309,463,l),
(745,463,l),
(745,614,l),
(1272,614,l),
(1272,1006,l),
(745,1006,l),
(745,1137,l),
(1274,1137,l),
(1274,1597,l),
(123,1597,l)
);
},
{
closed = 1;
nodes = (
(252,2158,o),
(159,2039,o),
(159,1923,cs),
(159,1810,o),
(235,1716,o),
(387,1716,cs),
(563,1716,o),
(639,1837,o),
(639,1957,cs),
(639,2068,o),
(561,2158,o),
(417,2158,cs)
);
},
{
closed = 1;
nodes = (
(858,2158,o),
(766,2039,o),
(766,1923,cs),
(766,1810,o),
(845,1716,o),
(995,1716,cs),
(1171,1716,o),
(1245,1837,o),
(1245,1957,cs),
(1245,2068,o),
(1167,2158,o),
(1022,2158,cs)
);
}
);
};
layerId = "22B129CF-CF15-475D-9616-E64336B05864";
shapes = (
{
ref = E;
},
{
pos = (58,874);
ref = dieresiscomb;
}
);
width = 1423;
}
);
unicode = 203;
},
{
glyphname = Egrave;
kernLeft = H;
kernRight = E;
lastChange = "2024-06-12 14:22:11 +0000";
layers = (
{
associatedMasterId = "22B129CF-CF15-475D-9616-E64336B05864";
layerId = "B6CE1041-7538-4217-84EF-70C52ADE8BCB";
name = img;
width = 1423;
},
{
background = {
anchors = (
{
name = top;
pos = (705,1554);
}
);
shapes = (
{
closed = 1;
nodes = (
(123,0,l),
(1309,0,l),
(1309,463,l),
(745,463,l),
(745,614,l),
(1272,614,l),
(1272,1006,l),
(745,1006,l),
(745,1137,l),
(1274,1137,l),
(1274,1597,l),
(123,1597,l)
);
},
{
closed = 1;
nodes = (
(183,2350,l),
(613,1812,ls),
(650,1766,o),
(680,1742,o),
(705,1742,cs),
(728,1742,o),
(742,1763,o),
(742,1797,cs),
(742,1812,o),
(740,1830,o),
(734,1851,cs),
(590,2350,l)
);
}
);
};
layerId = "22B129CF-CF15-475D-9616-E64336B05864";
shapes = (
{
ref = E;
},
{
pos = (150,874);
ref = gravecomb;
}
);
width = 1423;
}
);
unicode = 200;
},
{
glyphname = Einvertedbreve;
kernLeft = H;
kernRight = E;
lastChange = "2024-06-12 14:22:11 +0000";
layers = (
{
background = {
anchors = (
{
name = top;
pos = (705,1554);
}
);
shapes = (
{
closed = 1;
nodes = (
(123,0,l),
(1309,0,l),
(1309,463,l),
(745,463,l),
(745,614,l),
(1272,614,l),
(1272,1006,l),
(745,1006,l),
(745,1137,l),
(1274,1137,l),
(1274,1597,l),
(123,1597,l)
);
},
{
closed = 1;
nodes = (
(1260,1800,l),
(1260,2064,o),
(1072,2324,o),
(705,2324,cs),
(337,2324,o),
(150,2066,o),
(150,1800,c),
(519,1800,l),
(519,1910,o),
(583,2015,o),
(705,2015,cs),
(828,2015,o),
(890,1906,o),
(890,1800,c)
);
}
);
};
layerId = "22B129CF-CF15-475D-9616-E64336B05864";
shapes = (
{
ref = E;
},
{
pos = (46,874);
ref = breveinvertedcomb;
}
);
width = 1423;
}
);
unicode = 518;
},
{
glyphname = F;
kernLeft = H;
kernRight = F;
lastChange = "2024-06-12 14:56:43 +0000";
layers = (
{
anchors = (
{
name = bottom;
pos = (662,0);
},
{
name = top;
pos = (662,1622);
}
);
background = {
shapes = (
{
closed = 1;
nodes = (
(123,0,l),
(745,0,l),
(745,561,l),
(1272,561,l),
(1272,997,l),
(745,997,l),
(745,1145,l),
(1272,1145,l),
(1272,1597,l),
(123,1597,l)
);
}
);
};
layerId = "22B129CF-CF15-475D-9616-E64336B05864";
shapes = (
{
closed = 1;
nodes = (
(123,0,l),
(745,0,l),
(745,561,l),
(1272,561,l),
(1272,997,l),
(745,997,l),
(745,1145,l),
(1272,1145,l),
(1272,1597,l),
(123,1597,l),
(123,1597,l)
);
}
);
width = 1323;
}
);
unicode = 70;
},
{
glyphname = G;
kernLeft = _O_left;
kernRight = G;
lastChange = "2024-06-12 14:56:43 +0000";
layers = (
{
anchors = (
{
name = bottom;
pos = (862,0);
},
{
name = top;
pos = (958,1554);
}
);
background = {
anchors = (
{
name = top;
pos = (958,1554);
}
);
shapes = (
{
closed = 1;
nodes = (
(1618,762,l),
(1618,762,o),
(1616,760,o),
(1104,760,c),
(1104,645,o),
(1104,569,o),
(1102,520,c),
(1079,510,o),
(1047,506,o),
(1016,506,cs),
(877,506,o),
(793,608,o),
(793,752,cs),
(793,938,o),
(948,1145,o),
(1268,1145,cs),
(1352,1145,o),
(1442,1130,o),
(1540,1100,c),
(1540,1583,l),
(1536,1583,o),
(1409,1642,o),
(1145,1642,cs),
(524,1642,o),
(63,1325,o),
(63,807,cs),
(63,289,o),
(492,-39,o),
(1063,-39,cs),
(1270,-39,o),
(1618,20,o),
(1618,20,c)
);
}
);
};
layerId = "22B129CF-CF15-475D-9616-E64336B05864";
shapes = (
{
closed = 1;
nodes = (
(1618,762,l),
(1618,762,o),
(1616,760,o),
(1104,760,c),
(1104,645,o),
(1104,569,o),
(1102,520,c),
(1079,510,o),
(1047,506,o),
(1016,506,cs),
(877,506,o),
(793,608,o),
(793,752,cs),
(793,938,o),
(948,1145,o),
(1268,1145,cs),
(1352,1145,o),
(1442,1130,o),
(1540,1100,c),
(1540,1583,l),
(1536,1583,o),
(1409,1642,o),
(1145,1642,cs),
(524,1642,o),
(63,1325,o),
(63,807,cs),
(63,289,o),
(492,-39,o),
(1063,-39,cs),
(1270,-39,o),
(1618,20,o),
(1618,20,c)
);
}
);
width = 1724;
}
);
unicode = 71;
},
{
glyphname = Gacute;
kernLeft = _O_left;
kernRight = G;
lastChange = "2024-06-12 14:22:11 +0000";
layers = (
{
background = {
anchors = (
{
name = top;
pos = (958,1554);
}
);
shapes = (
{
closed = 1;
nodes = (
(1618,762,l),
(1618,762,o),
(1616,760,o),
(1104,760,c),
(1104,645,o),
(1104,569,o),
(1102,520,c),
(1079,510,o),
(1047,506,o),
(1016,506,cs),
(877,506,o),
(793,608,o),
(793,752,cs),
(793,938,o),
(948,1145,o),
(1268,1145,cs),
(1352,1145,o),
(1442,1130,o),
(1540,1100,c),
(1540,1583,l),
(1536,1583,o),
(1409,1642,o),
(1145,1642,cs),
(524,1642,o),
(63,1325,o),
(63,807,cs),
(63,289,o),
(492,-39,o),
(1063,-39,cs),
(1270,-39,o),
(1618,20,o),
(1618,20,c)
);
},
{
closed = 1;
nodes = (
(1072,2351,l),
(929,1852,ls),
(923,1831,o),
(921,1813,o),
(921,1798,cs),
(921,1764,o),
(935,1743,o),
(958,1743,cs),
(982,1743,o),
(1013,1767,o),
(1050,1813,cs),
(1480,2351,l)
);
}
);
};
layerId = "22B129CF-CF15-475D-9616-E64336B05864";
shapes = (
{
ref = G;
},
{
pos = (888,874);
ref = acutecomb;
}
);
width = 1724;
}
);
unicode = 500;
},
{
glyphname = Gbreve;
kernLeft = _O_left;
kernRight = G;
lastChange = "2024-06-12 14:22:11 +0000";
layers = (
{
background = {
anchors = (
{
name = top;
pos = (958,1554);
}
);
shapes = (
{
closed = 1;
nodes = (
(1618,762,l),
(1618,762,o),
(1616,760,o),
(1104,760,c),
(1104,645,o),
(1104,569,o),
(1102,520,c),
(1079,510,o),
(1047,506,o),
(1016,506,cs),
(877,506,o),
(793,608,o),
(793,752,cs),
(793,938,o),
(948,1145,o),
(1268,1145,cs),
(1352,1145,o),
(1442,1130,o),
(1540,1100,c),
(1540,1583,l),
(1536,1583,o),
(1409,1642,o),
(1145,1642,cs),
(524,1642,o),
(63,1325,o),
(63,807,cs),
(63,289,o),
(492,-39,o),
(1063,-39,cs),
(1270,-39,o),
(1618,20,o),
(1618,20,c)
);
},
{
closed = 1;
nodes = (
(1143,2339,l),
(1143,2202,o),
(1081,2079,o),
(958,2079,cs),
(836,2079,o),
(772,2204,o),
(772,2346,c),
(342,2346,l),
(342,2028,o),
(547,1729,o),
(958,1729,cs),
(1368,1729,o),
(1575,2024,o),
(1575,2339,c)
);
}
);
};
layerId = "22B129CF-CF15-475D-9616-E64336B05864";
shapes = (
{
ref = G;
},
{
pos = (301,874);
ref = brevecomb;
}
);
width = 1724;
}
);
unicode = 286;
},
{
glyphname = H;
kernLeft = H;
kernRight = H;
lastChange = "2024-06-12 14:56:43 +0000";
layers = (
{
anchors = (
{
name = bottom;
pos = (912,0);
},
{
name = center;
pos = (912,1198);
},
{
name = top;
pos = (912,1622);
},
{
name = topleft;
pos = (20,1622);
}
);
background = {
guides = (
{
angle = 90;
pos = (745,0);
},
{
angle = 90;
pos = (1077,0);
}
);
shapes = (
{
closed = 1;
nodes = (
(1077,1047,l),
(745,1020,l),
(745,1597,l),
(123,1597,l),
(123,0,l),
(745,0,l),
(745,561,l),
(1077,590,l),
(1077,0,l),
(1700,0,l),
(1700,1597,l),
(1077,1597,l)
);
}
);
};
guides = (
{
angle = 90;
pos = (745,0);
},
{
angle = 90;
pos = (1077,0);
}
);
layerId = "22B129CF-CF15-475D-9616-E64336B05864";
shapes = (
{
closed = 1;
nodes = (
(1077,1047,l),
(745,1020,l),
(745,1597,l),
(123,1597,l),
(123,0,l),
(745,0,l),
(745,561,l),
(1077,590,l),
(1077,0,l),
(1700,0,l),
(1700,1597,l),
(1077,1597,l),
(1077,1597,l)
);
}
);
width = 1823;
}
);
unicode = 72;
},
{
glyphname = Hbar;
kernLeft = H;
kernRight = H;
lastChange = "2024-06-12 14:56:43 +0000";
layers = (
{
background = {
shapes = (
{
closed = 1;
nodes = (
(745,1597,l),
(123,1597,l),
(123,0,l),
(745,0,l),
(745,561,l),
(1077,590,l),
(1077,0,l),
(1700,0,l),
(1700,1597,l),
(1077,1597,l),
(1077,1426,l),
(745,1426,l)
);
},
{
closed = 1;
nodes = (
(1077,1047,l),
(745,1020,l),
(745,1233,l),
(1077,1233,l)
);
}
);
};
layerId = "22B129CF-CF15-475D-9616-E64336B05864";
shapes = (
{
closed = 1;
nodes = (
(745,1597,l),
(123,1597,l),
(123,0,l),
(745,0,l),
(745,561,l),
(1077,590,l),
(1077,0,l),
(1700,0,l),
(1700,1597,l),
(1077,1597,l),
(1077,1426,l),
(745,1426,l),
(745,1426,l)
);
},
{
closed = 1;
nodes = (
(1077,1047,l),
(745,1020,l),
(745,1233,l),
(1077,1233,l),
(1077,1233,l)
);
}
);
width = 1823;
}
);
unicode = 294;
},
{
glyphname = I;
kernLeft = H;
kernRight = H;
lastChange = "2024-06-12 14:56:43 +0000";
layers = (
{
anchors = (
{
name = bot;
pos = (442,0);
},
{
name = bottom;
pos = (433,0);
},
{
name = ogonek;
pos = (779,10);
},
{
name = top;
pos = (442,1554);
},
{
name = topleft;
pos = (20,1622);
}
);
background = {
anchors = (
{
name = bot;
pos = (442,0);
},
{
name = top;
pos = (442,1554);
}
);
shapes = (
{
closed = 1;
nodes = (
(745,1597,l),
(123,1597,l),
(123,0,l),
(745,0,l)
);
}
);
};
layerId = "22B129CF-CF15-475D-9616-E64336B05864";
shapes = (
{
closed = 1;
nodes = (
(745,1597,l),
(123,1597,l),
(123,0,l),
(745,0,l),
(745,0,l)
);
}
);
width = 866;
}
);
unicode = 73;
},
{
glyphname = IJ;
kernLeft = H;
kernRight = J;
lastChange = "2024-06-12 14:22:11 +0000";
layers = (
{
background = {
anchors = (
{
name = bot;
pos = (442,0);
},
{
name = top;
pos = (1967,1554);
}
);
shapes = (
{
closed = 1;
nodes = (
(745,1597,l),
(123,1597,l),
(123,0,l),
(745,0,l)
);
},
{
closed = 1;
nodes = (
(2012,-39,o),
(2342,170,o),
(2342,825,cs),
(2342,1597,l),
(1705,1597,l),
(1705,647,ls),
(1705,526,o),
(1635,451,o),
(1563,451,cs),
(1494,451,o),
(1430,512,o),
(1430,641,cs),
(1430,795,l),
(875,719,l),
(875,567,ls),
(875,143,o),
(1169,-39,o),
(1588,-39,cs)
);
}
);
};
layerId = "22B129CF-CF15-475D-9616-E64336B05864";
shapes = (
{
ref = I;
},
{
pos = (866,0);
ref = J;
}
);
width = 2445;
}
);
unicode = 306;
},
{
glyphname = Iacute;
kernLeft = H;
kernRight = H;
lastChange = "2024-06-12 14:22:11 +0000";
layers = (
{
associatedMasterId = "22B129CF-CF15-475D-9616-E64336B05864";
layerId = "B6CE1041-7538-4217-84EF-70C52ADE8BCB";
name = img;
width = 866;
},
{
background = {
anchors = (
{
name = bot;
pos = (442,0);
},
{
name = top;
pos = (442,1554);
}
);
shapes = (
{
closed = 1;
nodes = (
(745,1597,l),
(123,1597,l),
(123,0,l),
(745,0,l)
);
},
{
closed = 1;
nodes = (
(557,2351,l),
(414,1852,ls),
(408,1831,o),
(406,1813,o),
(406,1798,cs),
(406,1764,o),
(420,1743,o),
(443,1743,cs),
(467,1743,o),
(498,1767,o),
(535,1813,cs),
(965,2351,l)
);
}
);
};
layerId = "22B129CF-CF15-475D-9616-E64336B05864";
shapes = (
{
ref = I;
},
{
pos = (372,874);
ref = acutecomb;
}
);
width = 866;
}
);
unicode = 205;
},
{
glyphname = Icircumflex;
kernLeft = H;
kernRight = H;
lastChange = "2024-06-12 14:22:11 +0000";
layers = (
{
associatedMasterId = "22B129CF-CF15-475D-9616-E64336B05864";
layerId = "B6CE1041-7538-4217-84EF-70C52ADE8BCB";
name = img;
width = 866;
},
{
background = {
anchors = (
{
name = bot;
pos = (442,0);
},
{
name = top;
pos = (442,1554);
}
);
shapes = (
{
closed = 1;
nodes = (
(745,1597,l),
(123,1597,l),
(123,0,l),
(745,0,l)
);
},
{
closed = 1;
nodes = (
(96,1878,l),
(84,1851,o),
(80,1830,o),
(80,1814,cs),
(80,1792,o),
(92,1779,o),
(111,1779,cs),
(137,1779,o),
(176,1802,o),
(217,1839,cs),
(443,2045,l),
(670,1839,ls),
(710,1802,o),
(749,1779,o),
(776,1779,cs),
(795,1779,o),
(805,1792,o),
(805,1814,cs),
(805,1830,o),
(804,1851,o),
(791,1878,cs),
(586,2295,ls),
(555,2357,o),
(500,2385,o),
(445,2385,cs),
(389,2385,o),
(329,2353,o),
(301,2295,cs)
);
}
);
};
layerId = "22B129CF-CF15-475D-9616-E64336B05864";
shapes = (
{
ref = I;
},
{
pos = (32,874);
ref = circumflexcomb;
}
);
width = 866;
}
);
unicode = 206;
},
{
glyphname = Idieresis;
kernLeft = H;
kernRight = H;
lastChange = "2024-06-12 14:22:11 +0000";
layers = (
{
associatedMasterId = "22B129CF-CF15-475D-9616-E64336B05864";
layerId = "B6CE1041-7538-4217-84EF-70C52ADE8BCB";
name = img;
width = 866;
},
{
background = {
anchors = (
{
name = bot;
pos = (442,0);
},
{
name = top;
pos = (442,1554);
}
);
shapes = (
{
closed = 1;
nodes = (
(745,1597,l),
(123,1597,l),
(123,0,l),
(745,0,l)
);
},
{
closed = 1;
nodes = (
(-10,2158,o),
(-103,2039,o),
(-103,1923,cs),
(-103,1810,o),
(-27,1716,o),
(125,1716,cs),
(301,1716,o),
(377,1837,o),
(377,1957,cs),
(377,2068,o),
(299,2158,o),
(155,2158,cs)
);
},
{
closed = 1;
nodes = (
(596,2158,o),
(504,2039,o),
(504,1923,cs),
(504,1810,o),
(583,1716,o),
(733,1716,cs),
(909,1716,o),
(983,1837,o),
(983,1957,cs),
(983,2068,o),
(905,2158,o),
(760,2158,cs)
);
}
);
};
layerId = "22B129CF-CF15-475D-9616-E64336B05864";
shapes = (
{
ref = I;
},
{
pos = (-205,874);
ref = dieresiscomb;
}
);
width = 866;
}
);
unicode = 207;
},
{
glyphname = Idotaccent;
kernLeft = H;
kernRight = H;
lastChange = "2024-06-12 14:47:12 +0000";
layers = (
{
background = {
anchors = (
{
name = bot;
pos = (442,0);
},
{
name = top;
pos = (442,1554);
}
);
shapes = (
{
closed = 1;
nodes = (
(745,1597,l),
(123,1597,l),
(123,0,l),
(745,0,l)
);
},
{
closed = 1;
nodes = (
(295,2390,o),
(170,2222,o),
(170,2072,cs),
(170,1931,o),
(254,1802,o),
(444,1802,cs),
(668,1802,o),
(778,1964,o),
(778,2117,cs),
(778,2256,o),
(686,2390,o),
(504,2390,cs)
);
}
);
};
layerId = "22B129CF-CF15-475D-9616-E64336B05864";
shapes = (
{
ref = I;
},
{
pos = (127,874);
ref = dotaccentcomb;
}
);
width = 866;
}
);
unicode = 304;
},
{
glyphname = Igrave;
kernLeft = H;
kernRight = H;
lastChange = "2024-06-12 14:22:11 +0000";
layers = (
{
associatedMasterId = "22B129CF-CF15-475D-9616-E64336B05864";
layerId = "B6CE1041-7538-4217-84EF-70C52ADE8BCB";
name = img;
width = 866;
},
{
background = {
anchors = (
{
name = bot;
pos = (442,0);
},
{
name = top;
pos = (442,1554);
}
);
shapes = (
{
closed = 1;
nodes = (
(745,1597,l),
(123,1597,l),
(123,0,l),
(745,0,l)
);
},
{
closed = 1;
nodes = (
(-80,2350,l),
(350,1812,ls),
(387,1766,o),
(417,1742,o),
(442,1742,cs),
(465,1742,o),
(479,1763,o),
(479,1797,cs),
(479,1812,o),
(477,1830,o),
(471,1851,cs),
(327,2350,l)
);
}
);
};
layerId = "22B129CF-CF15-475D-9616-E64336B05864";
shapes = (
{
ref = I;
},
{
pos = (-113,874);
ref = gravecomb;
}
);
width = 866;
}
);
unicode = 204;
},
{
glyphname = Iinvertedbreve;
kernLeft = H;
kernRight = H;
lastChange = "2024-06-12 14:22:11 +0000";
layers = (
{
background = {
anchors = (
{
name = bot;
pos = (442,0);
},
{
name = top;
pos = (442,1554);
}
);
shapes = (
{
closed = 1;
nodes = (
(745,1597,l),
(123,1597,l),
(123,0,l),
(745,0,l)
);
},
{
closed = 1;
nodes = (
(997,1800,l),
(997,2064,o),
(809,2324,o),
(442,2324,cs),
(74,2324,o),
(-113,2066,o),
(-113,1800,c),
(256,1800,l),
(256,1910,o),
(320,2015,o),
(442,2015,cs),
(565,2015,o),
(627,1906,o),
(627,1800,c)
);
}
);
};
layerId = "22B129CF-CF15-475D-9616-E64336B05864";
shapes = (
{
ref = I;
},
{
pos = (-217,874);
ref = breveinvertedcomb;
}
);
width = 866;
}
);
unicode = 522;
},
{
glyphname = Iogonek;
kernLeft = H;
kernRight = H;
lastChange = "2024-06-12 14:22:11 +0000";
layers = (
{
background = {
anchors = (
{
name = bot;
pos = (442,0);
},
{
name = top;
pos = (442,1554);
}
);
shapes = (
{
closed = 1;
nodes = (
(745,1597,l),
(123,1597,l),
(123,0,l),
(745,0,l)
);
},
{
closed = 1;
nodes = (
(730,-522,o),
(742,-500,o),
(742,-481,cs),
(742,-449,o),
(713,-420,o),
(682,-420,cs),
(664,-420,o),
(572,-483,o),
(467,-483,cs),
(402,-483,o),
(377,-444,o),
(377,-387,cs),
(377,-246,o),
(521,0,o),
(521,0,c),
(383,0,l),
(383,0,o),
(105,-197,o),
(105,-401,cs),
(105,-561,o),
(248,-629,o),
(400,-629,cs),
(510,-629,o),
(627,-594,o),
(703,-543,c)
);
}
);
};
layerId = "22B129CF-CF15-475D-9616-E64336B05864";
shapes = (
{
ref = I;
},
{
pos = (59,0);
ref = ogonekcomb;
}
);
width = 866;
}
);
unicode = 302;
},
{
glyphname = Itilde;
kernLeft = H;
kernRight = H;
lastChange = "2024-06-12 14:22:11 +0000";
layers = (
{
associatedMasterId = "22B129CF-CF15-475D-9616-E64336B05864";
layerId = "B6CE1041-7538-4217-84EF-70C52ADE8BCB";
name = img;
width = 866;
},
{
background = {
anchors = (
{
name = bot;
pos = (442,0);
},
{
name = top;
pos = (442,1554);
}
);
shapes = (
{
closed = 1;
nodes = (
(745,1597,l),
(123,1597,l),
(123,0,l),
(745,0,l)
);
},
{
closed = 1;
nodes = (
(307,1863,o),
(522,1757,o),
(684,1757,cs),
(819,1757,o),
(919,1832,o),
(919,2105,cs),
(919,2113,o),
(913,2121,o),
(903,2121,cs),
(880,2121,o),
(835,2060,o),
(760,2060,cs),
(618,2060,o),
(401,2164,o),
(233,2164,cs),
(92,2164,o),
(-15,2091,o),
(-15,1820,cs),
(-15,1812,o),
(-6,1804,o),
(4,1804,cs),
(24,1804,o),
(71,1863,o),
(145,1863,cs)
);
}
);
};
layerId = "22B129CF-CF15-475D-9616-E64336B05864";
shapes = (
{
ref = I;
},
{
pos = (-160,874);
ref = tildecomb;
}
);
width = 866;
}
);
unicode = 296;
},
{
glyphname = J;
kernLeft = J;
kernRight = J;
lastChange = "2024-06-12 14:56:43 +0000";
layers = (
{
anchors = (
{
name = bottom;
pos = (790,0);
},
{
name = top;
pos = (1106,1554);
}
);
background = {
anchors = (
{
name = top;
pos = (1106,1554);
}
);
shapes = (
{
closed = 1;
nodes = (
(1151,-39,o),
(1481,170,o),
(1481,825,cs),
(1481,1597,l),
(844,1597,l),
(844,647,ls),
(844,526,o),
(774,451,o),
(702,451,cs),
(633,451,o),
(569,512,o),
(569,641,cs),
(569,795,l),
(14,719,l),
(14,567,ls),
(14,143,o),
(308,-39,o),
(727,-39,cs)
);
}
);
};
layerId = "22B129CF-CF15-475D-9616-E64336B05864";
shapes = (
{
closed = 1;
nodes = (
(1151,-39,o),
(1481,170,o),
(1481,825,cs),
(1481,1597,l),
(844,1597,l),
(844,647,ls),
(844,526,o),
(774,451,o),
(702,451,cs),
(633,451,o),
(569,512,o),
(569,641,cs),
(569,795,l),
(14,719,l),
(14,567,ls),
(14,143,o),
(308,-39,o),
(727,-39,cs)
);
}
);
width = 1579;
}
);
unicode = 74;
},
{
glyphname = Jcircumflex;
kernLeft = J;
kernRight = J;
lastChange = "2024-06-12 14:22:11 +0000";
layers = (
{
associatedMasterId = "22B129CF-CF15-475D-9616-E64336B05864";
layerId = "B6CE1041-7538-4217-84EF-70C52ADE8BCB";
name = img;
width = 1661;
},
{
background = {
anchors = (
{
name = top;
pos = (1188,1554);
}
);
shapes = (
{
closed = 1;
nodes = (
(1233,-39,o),
(1563,170,o),
(1563,825,cs),
(1563,1597,l),
(926,1597,l),
(926,647,ls),
(926,526,o),
(856,451,o),
(784,451,cs),
(715,451,o),
(651,512,o),
(651,641,cs),
(651,795,l),
(96,719,l),
(96,567,ls),
(96,143,o),
(390,-39,o),
(809,-39,cs)
);
},
{
closed = 1;
nodes = (
(841,1878,l),
(829,1851,o),
(825,1830,o),
(825,1814,cs),
(825,1792,o),
(837,1779,o),
(856,1779,cs),
(882,1779,o),
(921,1802,o),
(962,1839,cs),
(1188,2045,l),
(1415,1839,ls),
(1455,1802,o),
(1494,1779,o),
(1521,1779,cs),
(1540,1779,o),
(1550,1792,o),
(1550,1814,cs),
(1550,1830,o),
(1549,1851,o),
(1536,1878,cs),
(1331,2295,ls),
(1300,2357,o),
(1245,2385,o),
(1190,2385,cs),
(1134,2385,o),
(1074,2353,o),
(1046,2295,cs)
);
}
);
};
layerId = "22B129CF-CF15-475D-9616-E64336B05864";
shapes = (
{
ref = J;
},
{
pos = (696,874);
ref = circumflexcomb;
}
);
width = 1579;
}
);
unicode = 308;
},
{
glyphname = K;
kernLeft = H;
kernRight = K;
lastChange = "2024-06-12 14:56:43 +0000";
layers = (
{
anchors = (
{
name = bottom;
pos = (978,0);
},
{
name = top;
pos = (978,1622);
}
);
background = {
shapes = (
{
closed = 1;
nodes = (
(123,1597,l),
(123,0,l),
(770,0,l),
(770,500,l),
(807,565,l),
(1141,0,l),
(1870,0,l),
(1274,924,l),
(1790,1597,l),
(1141,1597,l),
(756,1106,l),
(756,1597,l)
);
}
);
};
layerId = "22B129CF-CF15-475D-9616-E64336B05864";
shapes = (
{
closed = 1;
nodes = (
(123,1597,l),
(123,0,l),
(770,0,l),
(770,500,l),
(807,565,l),
(1141,0,l),
(1870,0,l),
(1274,924,l),
(1790,1597,l),
(1141,1597,l),
(756,1106,l),
(756,1597,l),
(756,1597,l)
);
}
);
width = 1956;
}
);
unicode = 75;
},
{
glyphname = L;
kernLeft = H;
kernRight = L;
lastChange = "2024-06-12 14:56:43 +0000";
layers = (
{
anchors = (
{
name = bottom;
pos = (657,0);
},
{
name = center;
pos = (657,811);
},
{
name = top;
pos = (445,1555);
},
{
name = topright;
pos = (1293,1622);
}
);
background = {
anchors = (
{
name = top;
pos = (445,1555);
}
);
shapes = (
{
closed = 1;
nodes = (
(123,0,l),
(1282,0,l),
(1282,481,l),
(745,481,l),
(745,1597,l),
(123,1597,l)
);
}
);
};
layerId = "22B129CF-CF15-475D-9616-E64336B05864";
shapes = (
{
closed = 1;
nodes = (
(123,0,l),
(1282,0,l),
(1282,481,l),
(745,481,l),
(745,1597,l),
(123,1597,l),
(123,1597,l)
);
}
);
width = 1313;
}
);
unicode = 76;
},
{
glyphname = LJ;
kernLeft = H;
kernRight = J;
lastChange = "2024-06-12 14:22:11 +0000";
layers = (
{
background = {
shapes = (
{
closed = 1;
nodes = (
(123,0,l),
(1282,0,l),
(1282,481,l),
(745,481,l),
(745,1597,l),
(123,1597,l)
);
},
{
closed = 1;
nodes = (
(2464,-39,o),
(2794,170,o),
(2794,825,cs),
(2794,1597,l),
(2157,1597,l),
(2157,647,ls),
(2157,526,o),
(2087,451,o),
(2015,451,cs),
(1946,451,o),
(1882,512,o),
(1882,641,cs),
(1882,795,l),
(1327,719,l),
(1327,567,ls),
(1327,143,o),
(1621,-39,o),
(2040,-39,cs)
);
}
);
};
layerId = "22B129CF-CF15-475D-9616-E64336B05864";
shapes = (
{
ref = L;
},
{
pos = (1313,0);
ref = J;
}
);
width = 2892;
}
);
unicode = 455;
},
{
glyphname = Lacute;
kernLeft = H;
kernRight = L;
lastChange = "2024-06-12 14:22:11 +0000";
layers = (
{
background = {
anchors = (
{
name = top;
pos = (445,1555);
}
);
shapes = (
{
closed = 1;
nodes = (
(123,0,l),
(1282,0,l),
(1282,481,l),
(745,481,l),
(745,1597,l),
(123,1597,l)
);
},
{
closed = 1;
nodes = (
(559,2352,l),
(416,1853,ls),
(410,1832,o),
(408,1814,o),
(408,1799,cs),
(408,1765,o),
(422,1744,o),
(445,1744,cs),
(469,1744,o),
(500,1768,o),
(537,1814,cs),
(967,2352,l)
);
}
);
};
layerId = "22B129CF-CF15-475D-9616-E64336B05864";
shapes = (
{
ref = L;
},
{
pos = (375,875);
ref = acutecomb;
}
);
width = 1313;
}
);
unicode = 313;
},
{
glyphname = Lcaron;
kernLeft = H;
kernRight = L;
lastChange = "2024-06-12 14:22:11 +0000";
layers = (
{
background = {
anchors = (
{
name = top;
pos = (445,1555);
}
);
shapes = (
{
closed = 1;
nodes = (
(123,0,l),
(1282,0,l),
(1282,481,l),
(745,481,l),
(745,1597,l),
(123,1597,l)
);
},
{
closed = 1;
nodes = (
(874,712,l),
(1298,712,o),
(1483,892,o),
(1483,1195,cs),
(1483,1599,l),
(874,1599,l),
(874,1177,l),
(1054,1177,l),
(1054,1177,o),
(1054,970,o),
(874,970,c)
);
}
);
};
layerId = "22B129CF-CF15-475D-9616-E64336B05864";
shapes = (
{
alignment = -1;
ref = L;
},
{
alignment = -1;
pos = (777,2);
ref = caroncomb.alt;
}
);
width = 1406;
}
);
unicode = 317;
},
{
glyphname = Ldot;
kernLeft = H;
kernRight = L;
lastChange = "2024-06-12 14:47:42 +0000";
layers = (
{
background = {
anchors = (
{
name = top;
pos = (445,1555);
}
);
shapes = (
{
closed = 1;
nodes = (
(123,0,l),
(1282,0,l),
(1282,481,l),
(745,481,l),
(745,1597,l),
(123,1597,l)
);
},
{
closed = 1;
nodes = (
(1039,1270,o),
(914,1102,o),
(914,953,cs),
(914,811,o),
(998,682,o),
(1188,682,cs),
(1411,682,o),
(1522,844,o),
(1522,998,cs),
(1522,1137,o),
(1430,1270,o),
(1248,1270,cs)
);
}
);
};
layerId = "22B129CF-CF15-475D-9616-E64336B05864";
shapes = (
{
alignment = -1;
ref = L;
},
{
alignment = -1;
pos = (827,80);
ref = periodcentered.loclCAT.case;
}
);
width = 1481;
}
);
unicode = 319;
},
{
glyphname = Lj;
kernLeft = H;
kernRight = j;
lastChange = "2024-06-12 14:22:11 +0000";
layers = (
{
background = {
shapes = (
{
closed = 1;
nodes = (
(123,0,l),
(1282,0,l),
(1282,481,l),
(745,481,l),
(745,1597,l),
(123,1597,l)
);
},
{
closed = 1;
nodes = (
(1344,-188,l),
(1458,-279,o),
(1612,-332,o),
(1764,-332,cs),
(2015,-332,o),
(2224,-168,o),
(2224,111,cs),
(2224,1241,l),
(1626,1241,l),
(1626,317,ls),
(1626,201,o),
(1524,53,o),
(1450,53,cs),
(1407,53,o),
(1372,59,o),
(1346,70,c)
);
},
{
closed = 1;
nodes = (
(1729,1819,o),
(1618,1677,o),
(1618,1550,cs),
(1618,1444,o),
(1692,1346,o),
(1897,1346,cs),
(2110,1346,o),
(2228,1483,o),
(2228,1608,cs),
(2228,1718,o),
(2140,1819,o),
(1952,1819,cs)
);
}
);
};
layerId = "22B129CF-CF15-475D-9616-E64336B05864";
shapes = (
{
ref = L;
},
{
pos = (1313,0);
ref = j;
}
);
width = 2329;
}
);
unicode = 456;
},
{
glyphname = Lslash;
kernLeft = H;
kernRight = L;
lastChange = "2024-06-12 14:56:43 +0000";
layers = (
{
background = {
shapes = (
{
closed = 1;
nodes = (
(0,541,l),
(123,584,l),
(123,0,l),
(1282,0,l),
(1282,481,l),
(745,481,l),
(745,805,l),
(928,870,l),
(928,1241,l),
(745,1176,l),
(745,1597,l),
(123,1597,l),
(123,954,l),
(0,911,l)
);
}
);
};
layerId = "22B129CF-CF15-475D-9616-E64336B05864";
shapes = (
{
closed = 1;
nodes = (
(0,541,l),
(123,584,l),
(123,0,l),
(1282,0,l),
(1282,481,l),
(745,481,l),
(745,805,l),
(928,870,l),
(928,1241,l),
(745,1176,l),
(745,1597,l),
(123,1597,l),
(123,954,l),
(0,911,l),
(0,911,l)
);
}
);
width = 1321;
}
);
unicode = 321;
},
{
glyphname = M;
kernLeft = M;
kernRight = M;
lastChange = "2024-06-12 14:56:43 +0000";
layers = (
{
anchors = (
{
name = bottom;
pos = (1131,0);
},
{
name = top;
pos = (1131,1622);
}
);
background = {
shapes = (
{
closed = 1;
nodes = (
(123,0,l),
(676,0,l),
(676,506,l),
(1073,70,l),
(1481,518,l),
(1481,0,l),
(2138,0,l),
(2138,1597,l),
(1917,1597,l),
(1124,872,l),
(352,1597,l),
(123,1597,l)
);
}
);
};
layerId = "22B129CF-CF15-475D-9616-E64336B05864";
shapes = (
{
closed = 1;
nodes = (
(123,0,l),
(676,0,l),
(676,506,l),
(1073,70,l),
(1481,518,l),
(1481,0,l),
(2138,0,l),
(2138,1597,l),
(1917,1597,l),
(1124,872,l),
(352,1597,l),
(123,1597,l),
(123,1597,l)
);
}
);
width = 2261;
}
);
unicode = 77;
},
{
glyphname = N;
kernLeft = H;
kernRight = H;
lastChange = "2024-06-12 14:56:43 +0000";
layers = (
{
anchors = (
{
name = bottom;
pos = (922,0);
},
{
name = top;
pos = (961,1554);
}
);
background = {
anchors = (
{
name = top;
pos = (961,1554);
}
);
shapes = (
{
closed = 1;
nodes = (
(123,0,l),
(684,0,l),
(684,549,l),
(1505,0,l),
(1720,0,l),
(1720,1597,l),
(1157,1597,l),
(1157,975,l),
(285,1597,l),
(123,1597,l)
);
}
);
};
layerId = "22B129CF-CF15-475D-9616-E64336B05864";
shapes = (
{
closed = 1;
nodes = (
(123,0,l),
(684,0,l),
(684,549,l),
(1505,0,l),
(1720,0,l),
(1720,1597,l),
(1157,1597,l),
(1157,975,l),
(285,1597,l),
(123,1597,l),
(123,1597,l)
);
}
);
width = 1843;
}
);
unicode = 78;
},
{
glyphname = NJ;
kernLeft = H;
kernRight = J;
lastChange = "2024-06-12 14:22:11 +0000";
layers = (
{
background = {
anchors = (
{
name = top;
pos = (2939,1554);
}
);
shapes = (
{
closed = 1;
nodes = (
(123,0,l),
(684,0,l),
(684,549,l),
(1505,0,l),
(1720,0,l),
(1720,1597,l),
(1157,1597,l),
(1157,975,l),
(285,1597,l),
(123,1597,l)
);
},
{
closed = 1;
nodes = (
(2984,-39,o),
(3314,170,o),
(3314,825,cs),
(3314,1597,l),
(2677,1597,l),
(2677,647,ls),
(2677,526,o),
(2607,451,o),
(2535,451,cs),
(2466,451,o),
(2402,512,o),
(2402,641,cs),
(2402,795,l),
(1847,719,l),
(1847,567,ls),
(1847,143,o),
(2141,-39,o),
(2560,-39,cs)
);
}
);
};
layerId = "22B129CF-CF15-475D-9616-E64336B05864";
shapes = (
{
ref = N;
},
{
pos = (1843,0);
ref = J;
}
);
width = 3422;
}
);
unicode = 458;
},
{
glyphname = Nacute;
kernLeft = H;
kernRight = H;
lastChange = "2024-06-12 14:22:11 +0000";
layers = (
{
associatedMasterId = "22B129CF-CF15-475D-9616-E64336B05864";
layerId = "B6CE1041-7538-4217-84EF-70C52ADE8BCB";
name = img;
width = 1843;
},
{
background = {
anchors = (
{
name = top;
pos = (961,1554);
}
);
shapes = (
{
closed = 1;
nodes = (
(123,0,l),
(684,0,l),
(684,549,l),
(1505,0,l),
(1720,0,l),
(1720,1597,l),
(1157,1597,l),
(1157,975,l),
(285,1597,l),
(123,1597,l)
);
},
{
closed = 1;
nodes = (
(1075,2351,l),
(932,1852,ls),
(926,1831,o),
(924,1813,o),
(924,1798,cs),
(924,1764,o),
(938,1743,o),
(961,1743,cs),
(985,1743,o),
(1016,1767,o),
(1053,1813,cs),
(1483,2351,l)
);
}
);
};
layerId = "22B129CF-CF15-475D-9616-E64336B05864";
shapes = (
{
ref = N;
},
{
pos = (891,874);
ref = acutecomb;
}
);
width = 1843;
}
);
unicode = 323;
},
{
glyphname = Ncaron;
kernLeft = H;
kernRight = H;
lastChange = "2024-06-12 14:22:11 +0000";
layers = (
{
background = {
anchors = (
{
name = top;
pos = (961,1554);
}
);
shapes = (
{
closed = 1;
nodes = (
(123,0,l),
(684,0,l),
(684,549,l),
(1505,0,l),
(1720,0,l),
(1720,1597,l),
(1157,1597,l),
(1157,975,l),
(285,1597,l),
(123,1597,l)
);
},
{
closed = 1;
nodes = (
(820,1863,ls),
(848,1806,o),
(909,1773,o),
(963,1773,cs),
(1018,1773,o),
(1075,1801,o),
(1105,1863,cs),
(1309,2281,ls),
(1322,2308,o),
(1324,2328,o),
(1324,2344,cs),
(1324,2367,o),
(1313,2379,o),
(1295,2379,cs),
(1268,2379,o),
(1228,2356,o),
(1189,2320,cs),
(961,2113,l),
(736,2320,ls),
(695,2357,o),
(656,2379,o),
(629,2379,cs),
(611,2379,o),
(599,2367,o),
(599,2344,cs),
(599,2326,o),
(604,2307,o),
(615,2281,c)
);
}
);
};
layerId = "22B129CF-CF15-475D-9616-E64336B05864";
shapes = (
{
ref = N;
},
{
pos = (568,874);
ref = caroncomb;
}
);
width = 1843;
}
);
unicode = 327;
},
{
glyphname = Nj;
kernLeft = H;
kernRight = j;
lastChange = "2024-06-12 14:22:11 +0000";
layers = (
{
background = {
anchors = (
{
name = top;
pos = (961,1554);
}
);
shapes = (
{
closed = 1;
nodes = (
(123,0,l),
(684,0,l),
(684,549,l),
(1505,0,l),
(1720,0,l),
(1720,1597,l),
(1157,1597,l),
(1157,975,l),
(285,1597,l),
(123,1597,l)
);
},
{
closed = 1;
nodes = (
(1823,-188,l),
(1937,-279,o),
(2091,-332,o),
(2243,-332,cs),
(2494,-332,o),
(2703,-168,o),
(2703,111,cs),
(2703,1243,l),
(2105,1243,l),
(2105,317,ls),
(2105,201,o),
(2003,53,o),
(1929,53,cs),
(1886,53,o),
(1851,59,o),
(1825,70,c)
);
},
{
closed = 1;
nodes = (
(2208,1819,o),
(2097,1677,o),
(2097,1550,cs),
(2097,1444,o),
(2171,1346,o),
(2376,1346,cs),
(2589,1346,o),
(2707,1483,o),
(2707,1608,cs),
(2707,1718,o),
(2619,1819,o),
(2431,1819,cs)
);
}
);
};
layerId = "22B129CF-CF15-475D-9616-E64336B05864";
shapes = (
{
ref = N;
},
{
pos = (1843,0);
ref = j;
}
);
width = 2859;
}
);
unicode = 459;
},
{
glyphname = Ntilde;
kernLeft = H;
kernRight = H;
lastChange = "2024-06-12 14:22:11 +0000";
layers = (
{
associatedMasterId = "22B129CF-CF15-475D-9616-E64336B05864";
layerId = "B6CE1041-7538-4217-84EF-70C52ADE8BCB";
name = img;
width = 1843;
},
{
background = {
anchors = (
{
name = top;
pos = (961,1554);
}
);
shapes = (
{
closed = 1;
nodes = (
(123,0,l),
(684,0,l),
(684,549,l),
(1505,0,l),
(1720,0,l),
(1720,1597,l),
(1157,1597,l),
(1157,975,l),
(285,1597,l),
(123,1597,l)
);
},
{
closed = 1;
nodes = (
(825,1863,o),
(1040,1757,o),
(1202,1757,cs),
(1337,1757,o),
(1437,1832,o),
(1437,2105,cs),
(1437,2113,o),
(1431,2121,o),
(1421,2121,cs),
(1398,2121,o),
(1353,2060,o),
(1278,2060,cs),
(1136,2060,o),
(919,2164,o),
(751,2164,cs),
(610,2164,o),
(503,2091,o),
(503,1820,cs),
(503,1812,o),
(512,1804,o),
(522,1804,cs),
(542,1804,o),
(589,1863,o),
(663,1863,cs)
);
}
);
};
layerId = "22B129CF-CF15-475D-9616-E64336B05864";
shapes = (
{
ref = N;
},
{
pos = (359,874);
ref = tildecomb;
}
);
width = 1843;
}
);
unicode = 209;
},
{
glyphname = O;
kernLeft = _O_left;
kernRight = _O_right;
lastChange = "2024-06-12 14:56:43 +0000";
layers = (
{
anchors = (
{
name = bottom;
pos = (971,0);
},
{
name = center;
pos = (971,811);
},
{
name = ogonek;
pos = (1748,10);
},
{
name = top;
pos = (961,1554);
},
{
name = topleft;
pos = (20,1622);
},
{
name = topright;
pos = (1922,1622);
}
);
background = {
anchors = (
{
name = top;
pos = (961,1554);
}
);
guides = (
{
angle = 90;
pos = (946,0);
}
);
shapes = (
{
closed = 1;
nodes = (
(1192,1159,o),
(1237,1090,o),
(1237,997,cs),
(1237,797,o),
(1032,481,o),
(891,481,cs),
(770,481,o),
(723,551,o),
(723,647,cs),
(723,848,o),
(930,1159,o),
(1075,1159,cs)
);
},
{
closed = 1;
nodes = (
(1440,-39,o),
(1866,285,o),
(1866,797,cs),
(1866,1325,o),
(1468,1642,o),
(961,1642,cs),
(477,1642,o),
(74,1307,o),
(74,805,cs),
(74,293,o),
(510,-39,o),
(961,-39,cs)
);
}
);
};
guides = (
{
angle = 90;
pos = (946,0);
}
);
layerId = "22B129CF-CF15-475D-9616-E64336B05864";
shapes = (
{
closed = 1;
nodes = (
(1192,1159,o),
(1237,1090,o),
(1237,997,cs),
(1237,797,o),
(1032,481,o),
(891,481,cs),
(770,481,o),
(723,551,o),
(723,647,cs),
(723,848,o),
(930,1159,o),
(1075,1159,cs)
);
},
{
closed = 1;
nodes = (
(1440,-39,o),
(1866,285,o),
(1866,797,cs),
(1866,1325,o),
(1468,1642,o),
(961,1642,cs),
(477,1642,o),
(74,1307,o),
(74,805,cs),
(74,293,o),
(510,-39,o),
(961,-39,cs)
);
}
);
width = 1942;
}
);
unicode = 79;
},
{
glyphname = Oacute;
kernLeft = _O_left;
kernRight = _O_right;
lastChange = "2024-06-12 13:57:54 +0000";
layers = (
{
associatedMasterId = "22B129CF-CF15-475D-9616-E64336B05864";
layerId = "B6CE1041-7538-4217-84EF-70C52ADE8BCB";
name = img;
width = 1942;
},
{
background = {
anchors = (
{
name = top;
pos = (961,1554);
}
);
shapes = (
{
closed = 1;
nodes = (
(1192,1159,o),
(1237,1090,o),
(1237,997,cs),
(1237,797,o),
(1032,481,o),
(891,481,cs),
(770,481,o),
(723,551,o),
(723,647,cs),
(723,848,o),
(930,1159,o),
(1075,1159,cs)
);
},
{
closed = 1;
nodes = (
(1440,-39,o),
(1866,285,o),
(1866,797,cs),
(1866,1325,o),
(1468,1642,o),
(961,1642,cs),
(477,1642,o),
(74,1307,o),
(74,805,cs),
(74,293,o),
(510,-39,o),
(961,-39,cs)
);
},
{
closed = 1;
nodes = (
(1075,2351,l),
(932,1852,ls),
(926,1831,o),
(924,1813,o),
(924,1798,cs),
(924,1764,o),
(938,1743,o),
(961,1743,cs),
(985,1743,o),
(1016,1767,o),
(1053,1813,cs),
(1483,2351,l)
);
}
);
};
layerId = "22B129CF-CF15-475D-9616-E64336B05864";
shapes = (
{
ref = O;
},
{
pos = (891,874);
ref = acutecomb;
}
);
width = 1942;
}
);
unicode = 211;
},
{
glyphname = Ocircumflex;
kernLeft = _O_left;
kernRight = _O_right;
lastChange = "2024-06-12 13:57:54 +0000";
layers = (
{
associatedMasterId = "22B129CF-CF15-475D-9616-E64336B05864";
layerId = "B6CE1041-7538-4217-84EF-70C52ADE8BCB";
name = img;
width = 1942;
},
{
background = {
anchors = (
{
name = top;
pos = (961,1554);
}
);
shapes = (
{
closed = 1;
nodes = (
(1192,1159,o),
(1237,1090,o),
(1237,997,cs),
(1237,797,o),
(1032,481,o),
(891,481,cs),
(770,481,o),
(723,551,o),
(723,647,cs),
(723,848,o),
(930,1159,o),
(1075,1159,cs)
);
},
{
closed = 1;
nodes = (
(1440,-39,o),
(1866,285,o),
(1866,797,cs),
(1866,1325,o),
(1468,1642,o),
(961,1642,cs),
(477,1642,o),
(74,1307,o),
(74,805,cs),
(74,293,o),
(510,-39,o),
(961,-39,cs)
);
},
{
closed = 1;
nodes = (
(614,1878,l),
(602,1851,o),
(598,1830,o),
(598,1814,cs),
(598,1792,o),
(610,1779,o),
(629,1779,cs),
(655,1779,o),
(694,1802,o),
(735,1839,cs),
(961,2045,l),
(1188,1839,ls),
(1228,1802,o),
(1267,1779,o),
(1294,1779,cs),
(1313,1779,o),
(1323,1792,o),
(1323,1814,cs),
(1323,1830,o),
(1322,1851,o),
(1309,1878,cs),
(1104,2295,ls),
(1073,2357,o),
(1018,2385,o),
(963,2385,cs),
(907,2385,o),
(847,2353,o),
(819,2295,cs)
);
}
);
};
layerId = "22B129CF-CF15-475D-9616-E64336B05864";
shapes = (
{
ref = O;
},
{
pos = (551,874);
ref = circumflexcomb;
}
);
width = 1942;
}
);
unicode = 212;
},
{
glyphname = Odieresis;
kernLeft = _O_left;
kernRight = _O_right;
lastChange = "2024-06-12 13:57:54 +0000";
layers = (
{
associatedMasterId = "22B129CF-CF15-475D-9616-E64336B05864";
layerId = "B6CE1041-7538-4217-84EF-70C52ADE8BCB";
name = img;
width = 1942;
},
{
background = {
anchors = (
{
name = top;
pos = (961,1554);
}
);
shapes = (
{
closed = 1;
nodes = (
(1192,1159,o),
(1237,1090,o),
(1237,997,cs),
(1237,797,o),
(1032,481,o),
(891,481,cs),
(770,481,o),
(723,551,o),
(723,647,cs),
(723,848,o),
(930,1159,o),
(1075,1159,cs)
);
},
{
closed = 1;
nodes = (
(1440,-39,o),
(1866,285,o),
(1866,797,cs),
(1866,1325,o),
(1468,1642,o),
(961,1642,cs),
(477,1642,o),
(74,1307,o),
(74,805,cs),
(74,293,o),
(510,-39,o),
(961,-39,cs)
);
},
{
closed = 1;
nodes = (
(508,2158,o),
(415,2039,o),
(415,1923,cs),
(415,1810,o),
(491,1716,o),
(643,1716,cs),
(819,1716,o),
(895,1837,o),
(895,1957,cs),
(895,2068,o),
(817,2158,o),
(673,2158,cs)
);
},
{
closed = 1;
nodes = (
(1114,2158,o),
(1022,2039,o),
(1022,1923,cs),
(1022,1810,o),
(1101,1716,o),
(1251,1716,cs),
(1427,1716,o),
(1501,1837,o),
(1501,1957,cs),
(1501,2068,o),
(1423,2158,o),
(1278,2158,cs)
);
}
);
};
layerId = "22B129CF-CF15-475D-9616-E64336B05864";
shapes = (
{
ref = O;
},
{
pos = (314,874);
ref = dieresiscomb;
}
);
width = 1942;
}
);
unicode = 214;
},
{
glyphname = Ograve;
kernLeft = _O_left;
kernRight = _O_right;
lastChange = "2024-06-12 13:57:54 +0000";
layers = (
{
associatedMasterId = "22B129CF-CF15-475D-9616-E64336B05864";
layerId = "B6CE1041-7538-4217-84EF-70C52ADE8BCB";
name = img;
width = 1942;
},
{
background = {
anchors = (
{
name = top;
pos = (961,1554);
}
);
shapes = (
{
closed = 1;
nodes = (
(1192,1159,o),
(1237,1090,o),
(1237,997,cs),
(1237,797,o),
(1032,481,o),
(891,481,cs),
(770,481,o),
(723,551,o),
(723,647,cs),
(723,848,o),
(930,1159,o),
(1075,1159,cs)
);
},
{
closed = 1;
nodes = (
(1440,-39,o),
(1866,285,o),
(1866,797,cs),
(1866,1325,o),
(1468,1642,o),
(961,1642,cs),
(477,1642,o),
(74,1307,o),
(74,805,cs),
(74,293,o),
(510,-39,o),
(961,-39,cs)
);
},
{
closed = 1;
nodes = (
(439,2350,l),
(869,1812,ls),
(906,1766,o),
(936,1742,o),
(961,1742,cs),
(984,1742,o),
(998,1763,o),
(998,1797,cs),
(998,1812,o),
(996,1830,o),
(990,1851,cs),
(846,2350,l)
);
}
);
};
layerId = "22B129CF-CF15-475D-9616-E64336B05864";
shapes = (
{
ref = O;
},
{
pos = (406,874);
ref = gravecomb;
}
);
width = 1942;
}
);
unicode = 210;
},
{
glyphname = Ohungarumlaut;
kernLeft = _O_left;
kernRight = _O_right;
lastChange = "2024-06-12 13:57:54 +0000";
layers = (
{
background = {
anchors = (
{
name = top;
pos = (961,1554);
}
);
shapes = (
{
closed = 1;
nodes = (
(1192,1159,o),
(1237,1090,o),
(1237,997,cs),
(1237,797,o),
(1032,481,o),
(891,481,cs),
(770,481,o),
(723,551,o),
(723,647,cs),
(723,848,o),
(930,1159,o),
(1075,1159,cs)
);
},
{
closed = 1;
nodes = (
(1440,-39,o),
(1866,285,o),
(1866,797,cs),
(1866,1325,o),
(1468,1642,o),
(961,1642,cs),
(477,1642,o),
(74,1307,o),
(74,805,cs),
(74,293,o),
(510,-39,o),
(961,-39,cs)
);
},
{
closed = 1;
nodes = (
(743,2359,l),
(702,1859,l),
(702,1849,o),
(700,1841,o),
(700,1832,cs),
(700,1777,o),
(719,1751,o),
(741,1751,cs),
(766,1751,o),
(794,1773,o),
(823,1820,cs),
(1151,2359,l)
);
},
{
closed = 1;
nodes = (
(1280,2359,l),
(1151,1859,l),
(1151,1837,o),
(1149,1818,o),
(1149,1804,cs),
(1149,1769,o),
(1161,1755,o),
(1182,1755,cs),
(1208,1755,o),
(1245,1779,o),
(1278,1820,cs),
(1708,2359,l)
);
}
);
};
layerId = "22B129CF-CF15-475D-9616-E64336B05864";
shapes = (
{
ref = O;
},
{
pos = (555,874);
ref = hungarumlautcomb;
}
);
width = 1942;
}
);
unicode = 336;
},
{
glyphname = Oinvertedbreve;
kernLeft = _O_left;
kernRight = _O_right;
lastChange = "2024-06-12 14:49:45 +0000";
layers = (
{
background = {
anchors = (
{
name = top;
pos = (961,1554);
}
);
shapes = (
{
closed = 1;
nodes = (
(1192,1159,o),
(1237,1090,o),
(1237,997,cs),
(1237,797,o),
(1032,481,o),
(891,481,cs),
(770,481,o),
(723,551,o),
(723,647,cs),
(723,848,o),
(930,1159,o),
(1075,1159,cs)
);
},
{
closed = 1;
nodes = (
(1440,-39,o),
(1866,285,o),
(1866,797,cs),
(1866,1325,o),
(1468,1642,o),
(961,1642,cs),
(477,1642,o),
(74,1307,o),
(74,805,cs),
(74,293,o),
(510,-39,o),
(961,-39,cs)
);
},
{
closed = 1;
nodes = (
(1516,1800,l),
(1516,2064,o),
(1328,2324,o),
(961,2324,cs),
(593,2324,o),
(406,2066,o),
(406,1800,c),
(775,1800,l),
(775,1910,o),
(839,2015,o),
(961,2015,cs),
(1084,2015,o),
(1146,1906,o),
(1146,1800,c)
);
}
);
};
layerId = "22B129CF-CF15-475D-9616-E64336B05864";
shapes = (
{
ref = O;
},
{
pos = (302,874);
ref = breveinvertedcomb;
}
);
width = 1942;
}
);
unicode = 526;
},
{
glyphname = Oslash;
kernLeft = _O_left;
kernRight = _O_right;
lastChange = "2024-06-12 14:56:43 +0000";
layers = (
{
anchors = (
{
name = bottom;
pos = (929,0);
},
{
name = top;
pos = (929,1622);
}
);
background = {
shapes = (
{
closed = 1;
nodes = (
(1430,-39,o),
(1855,285,o),
(1855,797,cs),
(1855,1178,o),
(1649,1448,o),
(1343,1571,c),
(1405,1763,l),
(1262,1804,l),
(1200,1614,l),
(1120,1632,o),
(1036,1642,o),
(950,1642,cs),
(467,1642,o),
(63,1307,o),
(63,805,cs),
(63,422,o),
(305,139,o),
(616,20,c),
(551,-184,l),
(694,-225,l),
(762,-18,l),
(823,-31,o),
(887,-39,o),
(950,-39,cs)
);
},
{
closed = 1;
nodes = (
(1182,1159,o),
(1227,1090,o),
(1227,997,cs),
(1227,797,o),
(1022,481,o),
(881,481,cs),
(760,481,o),
(713,551,o),
(713,647,cs),
(713,848,o),
(920,1159,o),
(1065,1159,cs)
);
}
);
};
layerId = "22B129CF-CF15-475D-9616-E64336B05864";
shapes = (
{
closed = 1;
nodes = (
(1430,-39,o),
(1855,285,o),
(1855,797,cs),
(1855,1178,o),
(1649,1448,o),
(1343,1571,c),
(1405,1763,l),
(1262,1804,l),
(1200,1614,l),
(1120,1632,o),
(1036,1642,o),
(950,1642,cs),
(467,1642,o),
(63,1307,o),
(63,805,cs),
(63,422,o),
(305,139,o),
(616,20,c),
(551,-184,l),
(694,-225,l),
(762,-18,l),
(823,-31,o),
(887,-39,o),
(950,-39,cs)
);
},
{
closed = 1;
nodes = (
(1182,1159,o),
(1227,1090,o),
(1227,997,cs),
(1227,797,o),
(1022,481,o),
(881,481,cs),
(760,481,o),
(713,551,o),
(713,647,cs),
(713,848,o),
(920,1159,o),
(1065,1159,cs)
);
}
);
width = 1858;
}
);
unicode = 216;
},
{
glyphname = Otilde;
kernLeft = _O_left;
kernRight = _O_right;
lastChange = "2024-06-12 13:57:54 +0000";
layers = (
{
associatedMasterId = "22B129CF-CF15-475D-9616-E64336B05864";
layerId = "B6CE1041-7538-4217-84EF-70C52ADE8BCB";
name = img;
width = 1942;
},
{
background = {
anchors = (
{
name = top;
pos = (961,1554);
}
);
shapes = (
{
closed = 1;
nodes = (
(1192,1159,o),
(1237,1090,o),
(1237,997,cs),
(1237,797,o),
(1032,481,o),
(891,481,cs),
(770,481,o),
(723,551,o),
(723,647,cs),
(723,848,o),
(930,1159,o),
(1075,1159,cs)
);
},
{
closed = 1;
nodes = (
(1440,-39,o),
(1866,285,o),
(1866,797,cs),
(1866,1325,o),
(1468,1642,o),
(961,1642,cs),
(477,1642,o),
(74,1307,o),
(74,805,cs),
(74,293,o),
(510,-39,o),
(961,-39,cs)
);
},
{
closed = 1;
nodes = (
(825,1863,o),
(1040,1757,o),
(1202,1757,cs),
(1337,1757,o),
(1437,1832,o),
(1437,2105,cs),
(1437,2113,o),
(1431,2121,o),
(1421,2121,cs),
(1398,2121,o),
(1353,2060,o),
(1278,2060,cs),
(1136,2060,o),
(919,2164,o),
(751,2164,cs),
(610,2164,o),
(503,2091,o),
(503,1820,cs),
(503,1812,o),
(512,1804,o),
(522,1804,cs),
(542,1804,o),
(589,1863,o),
(663,1863,cs)
);
}
);
};
layerId = "22B129CF-CF15-475D-9616-E64336B05864";
shapes = (
{
ref = O;
},
{
pos = (359,874);
ref = tildecomb;
}
);
width = 1942;
}
);
unicode = 213;
},
{
glyphname = OE;
kernLeft = _O_left;
kernRight = E;
lastChange = "2024-06-12 14:56:43 +0000";
layers = (
{
anchors = (
{
name = bottom;
pos = (1182,0);
},
{
name = top;
pos = (1182,1622);
}
);
background = {
shapes = (
{
closed = 1;
nodes = (
(47,326,o),
(375,0,o),
(803,0,cs),
(2302,0,l),
(2302,469,l),
(1798,469,l),
(1798,621,l),
(2281,621,l),
(2281,1012,l),
(1798,1012,l),
(1798,1163,l),
(2302,1163,l),
(2302,1599,l),
(979,1599,ls),
(432,1599,o),
(47,1235,o),
(47,739,cs)
);
},
{
closed = 1;
nodes = (
(1165,1159,o),
(1210,1090,o),
(1210,997,cs),
(1210,797,o),
(1006,481,o),
(864,481,cs),
(743,481,o),
(696,551,o),
(696,647,cs),
(696,848,o),
(903,1159,o),
(1049,1159,cs)
);
}
);
};
layerId = "22B129CF-CF15-475D-9616-E64336B05864";
shapes = (
{
closed = 1;
nodes = (
(47,326,o),
(375,0,o),
(803,0,cs),
(2302,0,l),
(2302,469,l),
(1798,469,l),
(1798,621,l),
(2281,621,l),
(2281,1012,l),
(1798,1012,l),
(1798,1163,l),
(2302,1163,l),
(2302,1599,l),
(979,1599,ls),
(432,1599,o),
(47,1235,o),
(47,739,cs)
);
},
{
closed = 1;
nodes = (
(1165,1159,o),
(1210,1090,o),
(1210,997,cs),
(1210,797,o),
(1006,481,o),
(864,481,cs),
(743,481,o),
(696,551,o),
(696,647,cs),
(696,848,o),
(903,1159,o),
(1049,1159,cs)
);
}
);
width = 2363;
}
);
unicode = 338;
},
{
glyphname = P;
kernLeft = H;
kernRight = P;
lastChange = "2024-06-12 14:56:43 +0000";
layers = (
{
anchors = (
{
name = bottom;
pos = (876,0);
},
{
name = top;
pos = (876,1622);
}
);
background = {
shapes = (
{
closed = 1;
nodes = (
(694,1642,o),
(434,1624,o),
(123,1593,c),
(123,0,l),
(776,0,l),
(776,289,l),
(846,289,o),
(901,285,o),
(954,285,cs),
(1370,285,o),
(1706,575,o),
(1706,991,cs),
(1706,1456,o),
(1475,1642,o),
(918,1642,cs)
);
},
{
closed = 1;
nodes = (
(1096,1227,o),
(1137,1169,o),
(1137,1102,cs),
(1137,946,o),
(1024,854,o),
(889,788,cs),
(772,731,l),
(772,1108,l),
(772,1108,o),
(930,1227,o),
(1024,1227,cs)
);
}
);
};
layerId = "22B129CF-CF15-475D-9616-E64336B05864";
shapes = (
{
closed = 1;
nodes = (
(694,1642,o),
(434,1624,o),
(123,1593,c),
(123,0,l),
(776,0,l),
(776,289,l),
(846,289,o),
(901,285,o),
(954,285,cs),
(1370,285,o),
(1706,575,o),
(1706,991,cs),
(1706,1456,o),
(1475,1642,o),
(918,1642,cs)
);
},
{
closed = 1;
nodes = (
(1096,1227,o),
(1137,1169,o),
(1137,1102,cs),
(1137,946,o),
(1024,854,o),
(889,788,cs),
(772,731,l),
(772,1108,l),
(772,1108,o),
(930,1227,o),
(1024,1227,cs)
);
}
);
width = 1751;
}
);
unicode = 80;
},
{
glyphname = Thorn;
kernLeft = H;
kernRight = Thorn;
lastChange = "2024-06-12 14:56:43 +0000";
layers = (
{
anchors = (
{
name = bottom;
pos = (831,0);
},
{
name = top;
pos = (831,1622);
}
);
background = {
shapes = (
{
closed = 1;
nodes = (
(61,0,l),
(715,0,l),
(715,207,l),
(1311,221,o),
(1628,539,o),
(1628,1020,cs),
(1628,1296,o),
(1475,1536,o),
(1102,1536,cs),
(995,1536,o),
(866,1516,o),
(715,1468,c),
(715,1599,l),
(61,1599,l)
);
},
{
closed = 1;
nodes = (
(1016,1116,o),
(1055,1065,o),
(1055,999,cs),
(1055,854,o),
(950,764,o),
(821,702,cs),
(711,649,l),
(711,1006,l),
(711,1006,o),
(860,1116,o),
(948,1116,cs)
);
}
);
};
layerId = "22B129CF-CF15-475D-9616-E64336B05864";
shapes = (
{
closed = 1;
nodes = (
(61,0,l),
(715,0,l),
(715,207,l),
(1311,221,o),
(1628,539,o),
(1628,1020,cs),
(1628,1296,o),
(1475,1536,o),
(1102,1536,cs),
(995,1536,o),
(866,1516,o),
(715,1468,c),
(715,1599,l),
(61,1599,l),
(61,1599,l)
);
},
{
closed = 1;
nodes = (
(1016,1116,o),
(1055,1065,o),
(1055,999,cs),
(1055,854,o),
(950,764,o),
(821,702,cs),
(711,649,l),
(711,1006,l),
(711,1006,o),
(860,1116,o),
(948,1116,cs)
);
}
);
width = 1661;
}
);
unicode = 222;
},
{
glyphname = Q;
kernLeft = _O_left;
kernRight = Q;
lastChange = "2024-06-12 14:56:43 +0000";
layers = (
{
anchors = (
{
name = bottom;
pos = (1008,0);
},
{
name = top;
pos = (1008,1622);
}
);
background = {
shapes = (
{
closed = 1;
nodes = (
(1145,-39,o),
(1325,10,o),
(1474,101,c),
(1607,15,o),
(1749,-39,o),
(1901,-39,cs),
(1929,-39,o),
(1962,-37,o),
(1993,-33,c),
(1993,-33,o),
(1991,408,o),
(1989,408,c),
(1937,408,o),
(1868,422,o),
(1789,448,c),
(1837,551,o),
(1864,668,o),
(1864,797,cs),
(1864,1325,o),
(1466,1642,o),
(958,1642,cs),
(475,1642,o),
(72,1307,o),
(72,805,cs),
(72,293,o),
(508,-39,o),
(958,-39,cs)
);
},
{
closed = 1;
nodes = (
(1190,1159,o),
(1235,1090,o),
(1235,997,cs),
(1235,922,o),
(1206,832,o),
(1163,747,c),
(1097,787,o),
(1031,828,o),
(969,870,c),
(860,707,l),
(908,650,o),
(956,592,o),
(1005,536,c),
(965,502,o),
(925,481,o),
(889,481,cs),
(768,481,o),
(721,551,o),
(721,647,cs),
(721,848,o),
(928,1159,o),
(1073,1159,cs)
);
}
);
};
layerId = "22B129CF-CF15-475D-9616-E64336B05864";
shapes = (
{
closed = 1;
nodes = (
(1145,-39,o),
(1325,10,o),
(1474,101,c),
(1607,15,o),
(1749,-39,o),
(1901,-39,cs),
(1929,-39,o),
(1962,-37,o),
(1993,-33,c),
(1993,-33,o),
(1991,408,o),
(1989,408,cs),
(1937,408,o),
(1868,422,o),
(1789,448,c),
(1837,551,o),
(1864,668,o),
(1864,797,cs),
(1864,1325,o),
(1466,1642,o),
(958,1642,cs),
(475,1642,o),
(72,1307,o),
(72,805,cs),
(72,293,o),
(508,-39,o),
(958,-39,cs)
);
},
{
closed = 1;
nodes = (
(1190,1159,o),
(1235,1090,o),
(1235,997,cs),
(1235,922,o),
(1206,832,o),
(1163,747,c),
(1097,787,o),
(1031,828,o),
(969,870,c),
(860,707,l),
(908,650,o),
(956,592,o),
(1005,536,c),
(965,502,o),
(925,481,o),
(889,481,cs),
(768,481,o),
(721,551,o),
(721,647,cs),
(721,848,o),
(928,1159,o),
(1073,1159,cs)
);
}
);
width = 2015;
}
);
unicode = 81;
},
{
glyphname = R;
kernLeft = H;
kernRight = R;
lastChange = "2024-06-12 14:56:43 +0000";
layers = (
{
anchors = (
{
name = bottom;
pos = (959,0);
},
{
name = top;
pos = (815,1554);
}
);
background = {
anchors = (
{
name = top;
pos = (815,1554);
}
);
shapes = (
{
closed = 1;
nodes = (
(772,1145,l),
(905,1200,ls),
(950,1219,o),
(991,1233,o),
(1030,1233,cs),
(1090,1233,o),
(1135,1200,o),
(1135,1092,cs),
(1135,963,o),
(1030,850,o),
(772,754,c)
);
},
{
closed = 1;
nodes = (
(1057,0,l),
(1847,0,l),
(1413,567,l),
(1597,676,o),
(1729,842,o),
(1729,1075,cs),
(1729,1341,o),
(1538,1642,o),
(1022,1642,cs),
(711,1642,o),
(123,1597,o),
(123,1597,c),
(123,0,l),
(776,0,l),
(776,463,l)
);
}
);
};
layerId = "22B129CF-CF15-475D-9616-E64336B05864";
shapes = (
{
closed = 1;
nodes = (
(772,1145,l),
(905,1200,ls),
(950,1219,o),
(991,1233,o),
(1030,1233,cs),
(1090,1233,o),
(1135,1200,o),
(1135,1092,cs),
(1135,963,o),
(1030,850,o),
(772,754,c)
);
},
{
closed = 1;
nodes = (
(1057,0,l),
(1847,0,l),
(1413,567,l),
(1597,676,o),
(1729,842,o),
(1729,1075,cs),
(1729,1341,o),
(1538,1642,o),
(1022,1642,cs),
(711,1642,o),
(123,1597,o),
(123,1597,c),
(123,0,l),
(776,0,l),
(776,463,l),
(776,463,l)
);
}
);
width = 1917;
}
);
unicode = 82;
},
{
glyphname = Racute;
kernLeft = H;
kernRight = R;
lastChange = "2024-06-12 14:22:11 +0000";
layers = (
{
associatedMasterId = "22B129CF-CF15-475D-9616-E64336B05864";
layerId = "B6CE1041-7538-4217-84EF-70C52ADE8BCB";
name = img;
width = 1915;
},
{
background = {
anchors = (
{
name = top;
pos = (815,1554);
}
);
shapes = (
{
closed = 1;
nodes = (
(772,1145,l),
(905,1200,ls),
(950,1219,o),
(991,1233,o),
(1030,1233,cs),
(1090,1233,o),
(1135,1200,o),
(1135,1092,cs),
(1135,963,o),
(1030,850,o),
(772,754,c)
);
},
{
closed = 1;
nodes = (
(1057,0,l),
(1847,0,l),
(1413,567,l),
(1597,676,o),
(1729,842,o),
(1729,1075,cs),
(1729,1341,o),
(1538,1642,o),
(1022,1642,cs),
(711,1642,o),
(123,1597,o),
(123,1597,c),
(123,0,l),
(776,0,l),
(776,463,l)
);
},
{
closed = 1;
nodes = (
(929,2351,l),
(786,1852,ls),
(780,1831,o),
(778,1813,o),
(778,1798,cs),
(778,1764,o),
(792,1743,o),
(815,1743,cs),
(839,1743,o),
(870,1767,o),
(907,1813,cs),
(1337,2351,l)
);
}
);
};
layerId = "22B129CF-CF15-475D-9616-E64336B05864";
shapes = (
{
ref = R;
},
{
pos = (745,874);
ref = acutecomb;
}
);
width = 1917;
}
);
unicode = 340;
},
{
glyphname = Rcaron;
kernLeft = H;
kernRight = R;
lastChange = "2024-06-12 14:22:11 +0000";
layers = (
{
associatedMasterId = "22B129CF-CF15-475D-9616-E64336B05864";
layerId = "B6CE1041-7538-4217-84EF-70C52ADE8BCB";
name = img;
width = 1915;
},
{
background = {
anchors = (
{
name = top;
pos = (815,1554);
}
);
shapes = (
{
closed = 1;
nodes = (
(772,1145,l),
(905,1200,ls),
(950,1219,o),
(991,1233,o),
(1030,1233,cs),
(1090,1233,o),
(1135,1200,o),
(1135,1092,cs),
(1135,963,o),
(1030,850,o),
(772,754,c)
);
},
{
closed = 1;
nodes = (
(1057,0,l),
(1847,0,l),
(1413,567,l),
(1597,676,o),
(1729,842,o),
(1729,1075,cs),
(1729,1341,o),
(1538,1642,o),
(1022,1642,cs),
(711,1642,o),
(123,1597,o),
(123,1597,c),
(123,0,l),
(776,0,l),
(776,463,l)
);
},
{
closed = 1;
nodes = (
(674,1863,ls),
(702,1806,o),
(763,1773,o),
(817,1773,cs),
(872,1773,o),
(929,1801,o),
(959,1863,cs),
(1163,2281,ls),
(1176,2308,o),
(1178,2328,o),
(1178,2344,cs),
(1178,2367,o),
(1167,2379,o),
(1149,2379,cs),
(1122,2379,o),
(1082,2356,o),
(1043,2320,cs),
(815,2113,l),
(590,2320,ls),
(549,2357,o),
(510,2379,o),
(483,2379,cs),
(465,2379,o),
(453,2367,o),
(453,2344,cs),
(453,2326,o),
(458,2307,o),
(469,2281,c)
);
}
);
};
layerId = "22B129CF-CF15-475D-9616-E64336B05864";
shapes = (
{
ref = R;
},
{
pos = (422,874);
ref = caroncomb;
}
);
width = 1917;
}
);
unicode = 344;
},
{
glyphname = Rcommaaccent;
kernLeft = H;
kernRight = R;
lastChange = "2024-06-12 14:22:11 +0000";
layers = (
{
associatedMasterId = "22B129CF-CF15-475D-9616-E64336B05864";
layerId = "B6CE1041-7538-4217-84EF-70C52ADE8BCB";
name = img;
width = 1915;
},
{
background = {
anchors = (
{
name = top;
pos = (815,1554);
}
);
shapes = (
{
closed = 1;
nodes = (
(772,1145,l),
(905,1200,ls),
(950,1219,o),
(991,1233,o),
(1030,1233,cs),
(1090,1233,o),
(1135,1200,o),
(1135,1092,cs),
(1135,963,o),
(1030,850,o),
(772,754,c)
);
},
{
closed = 1;
nodes = (
(1057,0,l),
(1847,0,l),
(1413,567,l),
(1597,676,o),
(1729,842,o),
(1729,1075,cs),
(1729,1341,o),
(1538,1642,o),
(1022,1642,cs),
(711,1642,o),
(123,1597,o),
(123,1597,c),
(123,0,l),
(776,0,l),
(776,463,l)
);
},
{
closed = 1;
nodes = (
(653,-1022,l),
(1077,-1022,o),
(1262,-842,o),
(1262,-539,cs),
(1262,-135,l),
(653,-135,l),
(653,-557,l),
(833,-557,l),
(833,-557,o),
(833,-764,o),
(653,-764,c)
);
}
);
};
layerId = "22B129CF-CF15-475D-9616-E64336B05864";
shapes = (
{
ref = R;
},
{
pos = (601,0);
ref = commaaccentcomb;
}
);
width = 1917;
}
);
unicode = 342;
},
{
glyphname = Rinvertedbreve;
kernLeft = H;
kernRight = R;
lastChange = "2024-06-12 14:49:45 +0000";
layers = (
{
associatedMasterId = "22B129CF-CF15-475D-9616-E64336B05864";
layerId = "B6CE1041-7538-4217-84EF-70C52ADE8BCB";
name = img;
width = 1917;
},
{
background = {
anchors = (
{
name = top;
pos = (815,1554);
}
);
shapes = (
{
closed = 1;
nodes = (
(772,1145,l),
(905,1200,ls),
(950,1219,o),
(991,1233,o),
(1030,1233,cs),
(1090,1233,o),
(1135,1200,o),
(1135,1092,cs),
(1135,963,o),
(1030,850,o),
(772,754,c)
);
},
{
closed = 1;
nodes = (
(1057,0,l),
(1847,0,l),
(1413,567,l),
(1597,676,o),
(1729,842,o),
(1729,1075,cs),
(1729,1341,o),
(1538,1642,o),
(1022,1642,cs),
(711,1642,o),
(123,1597,o),
(123,1597,c),
(123,0,l),
(776,0,l),
(776,463,l)
);
},
{
closed = 1;
nodes = (
(1370,1800,l),
(1370,2064,o),
(1182,2324,o),
(815,2324,cs),
(447,2324,o),
(260,2066,o),
(260,1800,c),
(629,1800,l),
(629,1910,o),
(693,2015,o),
(815,2015,cs),
(938,2015,o),
(1000,1906,o),
(1000,1800,c)
);
}
);
};
layerId = "22B129CF-CF15-475D-9616-E64336B05864";
shapes = (
{
ref = R;
},
{
pos = (156,874);
ref = breveinvertedcomb;
}
);
width = 1917;
}
);
unicode = 530;
},
{
glyphname = S;
kernLeft = S;
kernRight = S;
lastChange = "2024-06-12 14:56:43 +0000";
layers = (
{
anchors = (
{
name = bot;
pos = (695,0);
},
{
name = bottom;
pos = (723,0);
},
{
name = top;
pos = (717,1554);
}
);
background = {
anchors = (
{
name = bot;
pos = (695,0);
},
{
name = top;
pos = (717,1554);
}
);
shapes = (
{
closed = 1;
nodes = (
(100,72,l),
(100,72,o),
(219,-39,o),
(696,-39,cs),
(1111,-39,o),
(1356,165,o),
(1356,477,cs),
(1356,826,o),
(1123,935,o),
(842,1057,cs),
(805,1073,o),
(774,1106,o),
(774,1130,cs),
(774,1159,o),
(805,1184,o),
(866,1184,cs),
(999,1184,o),
(1257,1126,o),
(1257,1126,c),
(1257,1585,l),
(1221,1595,o),
(1014,1642,o),
(793,1642,cs),
(444,1642,o),
(96,1509,o),
(96,1133,cs),
(96,674,o),
(647,635,o),
(647,485,cs),
(647,438,o),
(606,424,o),
(547,424,cs),
(412,424,o),
(117,526,o),
(100,530,c)
);
}
);
};
layerId = "22B129CF-CF15-475D-9616-E64336B05864";
shapes = (
{
closed = 1;
nodes = (
(100,72,l),
(100,72,o),
(219,-39,o),
(696,-39,cs),
(1111,-39,o),
(1356,165,o),
(1356,477,cs),
(1356,826,o),
(1123,935,o),
(842,1057,cs),
(805,1073,o),
(774,1106,o),
(774,1130,cs),
(774,1159,o),
(805,1184,o),
(866,1184,cs),
(999,1184,o),
(1257,1126,o),
(1257,1126,c),
(1257,1585,l),
(1221,1595,o),
(1014,1642,o),
(793,1642,cs),
(444,1642,o),
(96,1509,o),
(96,1133,cs),
(96,674,o),
(647,635,o),
(647,485,cs),
(647,438,o),
(606,424,o),
(547,424,cs),
(412,424,o),
(117,526,o),
(100,530,c)
);
}
);
width = 1446;
}
);
unicode = 83;
},
{
glyphname = Scaron;
kernLeft = S;
kernRight = S;
lastChange = "2024-06-12 14:22:11 +0000";
layers = (
{
background = {
anchors = (
{
name = bot;
pos = (695,0);
},
{
name = top;
pos = (717,1554);
}
);
shapes = (
{
closed = 1;
nodes = (
(100,72,l),
(100,72,o),
(219,-39,o),
(696,-39,cs),
(1111,-39,o),
(1356,165,o),
(1356,477,cs),
(1356,826,o),
(1123,935,o),
(842,1057,cs),
(805,1073,o),
(774,1106,o),
(774,1130,cs),
(774,1159,o),
(805,1184,o),
(866,1184,cs),
(999,1184,o),
(1257,1126,o),
(1257,1126,c),
(1257,1585,l),
(1221,1595,o),
(1014,1642,o),
(793,1642,cs),
(444,1642,o),
(96,1509,o),
(96,1133,cs),
(96,674,o),
(647,635,o),
(647,485,cs),
(647,438,o),
(606,424,o),
(547,424,cs),
(412,424,o),
(117,526,o),
(100,530,c)
);
},
{
closed = 1;
nodes = (
(576,1863,ls),
(604,1806,o),
(665,1773,o),
(719,1773,cs),
(774,1773,o),
(831,1801,o),
(861,1863,cs),
(1065,2281,ls),
(1078,2308,o),
(1080,2328,o),
(1080,2344,cs),
(1080,2367,o),
(1069,2379,o),
(1051,2379,cs),
(1024,2379,o),
(984,2356,o),
(945,2320,cs),
(717,2113,l),
(492,2320,ls),
(451,2357,o),
(412,2379,o),
(385,2379,cs),
(367,2379,o),
(355,2367,o),
(355,2344,cs),
(355,2326,o),
(360,2307,o),
(371,2281,c)
);
}
);
};
layerId = "22B129CF-CF15-475D-9616-E64336B05864";
shapes = (
{
ref = S;
},
{
pos = (324,874);
ref = caroncomb;
}
);
width = 1446;
}
);
unicode = 352;
},
{
glyphname = Scedilla;
kernLeft = S;
kernRight = S;
lastChange = "2024-06-12 14:22:11 +0000";
layers = (
{
background = {
anchors = (
{
name = bot;
pos = (695,0);
},
{
name = top;
pos = (717,1554);
}
);
shapes = (
{
closed = 1;
nodes = (
(100,72,l),
(100,72,o),
(219,-39,o),
(696,-39,cs),
(1111,-39,o),
(1356,165,o),
(1356,477,cs),
(1356,826,o),
(1123,935,o),
(842,1057,cs),
(805,1073,o),
(774,1106,o),
(774,1130,cs),
(774,1159,o),
(805,1184,o),
(866,1184,cs),
(999,1184,o),
(1257,1126,o),
(1257,1126,c),
(1257,1585,l),
(1221,1595,o),
(1014,1642,o),
(793,1642,cs),
(444,1642,o),
(96,1509,o),
(96,1133,cs),
(96,674,o),
(647,635,o),
(647,485,cs),
(647,438,o),
(606,424,o),
(547,424,cs),
(412,424,o),
(117,526,o),
(100,530,c)
);
},
{
closed = 1;
nodes = (
(468,-596,o),
(585,-631,o),
(695,-631,cs),
(847,-631,o),
(990,-563,o),
(990,-403,cs),
(990,-218,o),
(818,-200,o),
(734,-192,cs),
(712,-190,l),
(773,0,l),
(636,0,l),
(636,0,o),
(541,-322,o),
(542,-328,c),
(630,-328,o),
(718,-360,o),
(718,-420,cs),
(718,-469,o),
(665,-485,o),
(628,-485,cs),
(523,-485,o),
(431,-422,o),
(413,-422,cs),
(382,-422,o),
(353,-451,o),
(353,-483,cs),
(353,-502,o),
(366,-524,o),
(392,-545,c)
);
}
);
};
layerId = "22B129CF-CF15-475D-9616-E64336B05864";
shapes = (
{
ref = S;
},
{
pos = (333,0);
ref = cedillacomb;
}
);
width = 1446;
}
);
unicode = 350;
},
{
glyphname = T;
kernLeft = T;
kernRight = T;
lastChange = "2024-06-12 14:56:43 +0000";
layers = (
{
anchors = (
{
name = bottom;
pos = (812,0);
},
{
name = center;
pos = (812,811);
},
{
name = top;
pos = (818,1555);
}
);
background = {
anchors = (
{
name = top;
pos = (818,1555);
}
);
shapes = (
{
closed = 1;
nodes = (
(57,1079,l),
(502,1079,l),
(502,0,l),
(1124,0,l),
(1124,1079,l),
(1569,1079,l),
(1569,1597,l),
(57,1597,l)
);
}
);
};
layerId = "22B129CF-CF15-475D-9616-E64336B05864";
shapes = (
{
closed = 1;
nodes = (
(57,1079,l),
(502,1079,l),
(502,0,l),
(1124,0,l),
(1124,1079,l),
(1569,1079,l),
(1569,1597,l),
(57,1597,l),
(57,1597,l)
);
}
);
width = 1624;
}
);
unicode = 84;
},
{
glyphname = Tcaron;
kernLeft = T;
kernRight = T;
lastChange = "2024-06-12 14:22:11 +0000";
layers = (
{
background = {
anchors = (
{
name = top;
pos = (818,1555);
}
);
shapes = (
{
closed = 1;
nodes = (
(57,1079,l),
(502,1079,l),
(502,0,l),
(1124,0,l),
(1124,1079,l),
(1569,1079,l),
(1569,1597,l),
(57,1597,l)
);
},
{
closed = 1;
nodes = (
(677,1864,ls),
(705,1807,o),
(766,1774,o),
(820,1774,cs),
(875,1774,o),
(932,1802,o),
(962,1864,cs),
(1166,2282,ls),
(1179,2309,o),
(1181,2329,o),
(1181,2345,cs),
(1181,2368,o),
(1170,2380,o),
(1152,2380,cs),
(1125,2380,o),
(1085,2357,o),
(1046,2321,cs),
(818,2114,l),
(593,2321,ls),
(552,2358,o),
(513,2380,o),
(486,2380,cs),
(468,2380,o),
(456,2368,o),
(456,2345,cs),
(456,2327,o),
(461,2308,o),
(472,2282,c)
);
}
);
};
layerId = "22B129CF-CF15-475D-9616-E64336B05864";
shapes = (
{
ref = T;
},
{
pos = (425,875);
ref = caroncomb;
}
);
width = 1624;
}
);
unicode = 356;
},
{
glyphname = Tcedilla;
kernLeft = t;
kernRight = t;
lastChange = "2024-06-13 07:58:03 +0000";
layers = (
{
background = {
anchors = (
{
name = top;
pos = (918,1243);
}
);
shapes = (
{
closed = 1;
nodes = (
(66,926,l),
(180,926,l),
(180,406,ls),
(180,127,o),
(389,-39,o),
(641,-39,cs),
(793,-39,o),
(946,12,o),
(1061,90,c),
(1061,344,l),
(846,344,o),
(778,430,o),
(778,612,cs),
(778,926,l),
(1061,926,l),
(1061,1243,l),
(778,1243,l),
(778,1640,l),
(180,1579,l),
(180,1243,l),
(66,1243,l)
);
},
{
closed = 1;
nodes = (
(917,1382,l),
(1341,1382,o),
(1526,1562,o),
(1526,1865,cs),
(1526,2269,l),
(917,2269,l),
(917,1847,l),
(1097,1847,l),
(1097,1847,o),
(1097,1640,o),
(917,1640,c)
);
}
);
};
layerId = "22B129CF-CF15-475D-9616-E64336B05864";
shapes = (
{
ref = T;
},
{
pos = (473,0);
ref = cedillacomb;
}
);
width = 1624;
}
);
unicode = 354;
},
{
glyphname = U;
kernLeft = U;
kernRight = U;
lastChange = "2024-06-12 14:56:43 +0000";
layers = (
{
anchors = (
{
name = bot;
pos = (901,0);
},
{
name = bottom;
pos = (873,0);
},
{
name = ogonek;
pos = (1571,10);
},
{
name = top;
pos = (911,1554);
},
{
name = topright;
pos = (1725,1622);
}
);
background = {
anchors = (
{
name = bot;
pos = (901,0);
},
{
name = top;
pos = (911,1554);
}
);
shapes = (
{
closed = 1;
nodes = (
(106,637,ls),
(106,178,o),
(381,-39,o),
(901,-39,cs),
(1378,-39,o),
(1638,178,o),
(1638,637,cs),
(1638,1597,l),
(1085,1597,l),
(1085,659,ls),
(1085,545,o),
(1034,455,o),
(911,455,cs),
(788,455,o),
(737,541,o),
(737,655,cs),
(737,1597,l),
(106,1597,l)
);
}
);
};
layerId = "22B129CF-CF15-475D-9616-E64336B05864";
shapes = (
{
closed = 1;
nodes = (
(106,637,ls),
(106,178,o),
(381,-39,o),
(901,-39,cs),
(1378,-39,o),
(1638,178,o),
(1638,637,cs),
(1638,1597,l),
(1085,1597,l),
(1085,659,ls),
(1085,545,o),
(1034,455,o),
(911,455,cs),
(788,455,o),
(737,541,o),
(737,655,cs),
(737,1597,l),
(106,1597,l),
(106,1597,l)
);
}
);
width = 1745;
}
);
unicode = 85;
},
{
glyphname = Uacute;
kernLeft = U;
kernRight = U;
lastChange = "2024-06-12 14:22:11 +0000";
layers = (
{
associatedMasterId = "22B129CF-CF15-475D-9616-E64336B05864";
layerId = "B6CE1041-7538-4217-84EF-70C52ADE8BCB";
name = img;
width = 1745;
},
{
background = {
anchors = (
{
name = bot;
pos = (901,0);
},
{
name = top;
pos = (911,1554);
}
);
shapes = (
{
closed = 1;
nodes = (
(106,637,ls),
(106,178,o),
(381,-39,o),
(901,-39,cs),
(1378,-39,o),
(1638,178,o),
(1638,637,cs),
(1638,1597,l),
(1085,1597,l),
(1085,659,ls),
(1085,545,o),
(1034,455,o),
(911,455,cs),
(788,455,o),
(737,541,o),
(737,655,cs),
(737,1597,l),
(106,1597,l)
);
},
{
closed = 1;
nodes = (
(1026,2351,l),
(883,1852,ls),
(877,1831,o),
(875,1813,o),
(875,1798,cs),
(875,1764,o),
(889,1743,o),
(912,1743,cs),
(936,1743,o),
(967,1767,o),
(1004,1813,cs),
(1434,2351,l)
);
}
);
};
layerId = "22B129CF-CF15-475D-9616-E64336B05864";
shapes = (
{
ref = U;
},
{
pos = (841,874);
ref = acutecomb;
}
);
width = 1745;
}
);
unicode = 218;
},
{
glyphname = Ucircumflex;
kernLeft = U;
kernRight = U;
lastChange = "2024-06-12 14:22:11 +0000";
layers = (
{
associatedMasterId = "22B129CF-CF15-475D-9616-E64336B05864";
layerId = "B6CE1041-7538-4217-84EF-70C52ADE8BCB";
name = img;
width = 1745;
},
{
background = {
anchors = (
{
name = bot;
pos = (901,0);
},
{
name = top;
pos = (911,1554);
}
);
shapes = (
{
closed = 1;
nodes = (
(106,637,ls),
(106,178,o),
(381,-39,o),
(901,-39,cs),
(1378,-39,o),
(1638,178,o),
(1638,637,cs),
(1638,1597,l),
(1085,1597,l),
(1085,659,ls),
(1085,545,o),
(1034,455,o),
(911,455,cs),
(788,455,o),
(737,541,o),
(737,655,cs),
(737,1597,l),
(106,1597,l)
);
},
{
closed = 1;
nodes = (
(565,1878,l),
(553,1851,o),
(549,1830,o),
(549,1814,cs),
(549,1792,o),
(561,1779,o),
(580,1779,cs),
(606,1779,o),
(645,1802,o),
(686,1839,cs),
(912,2045,l),
(1139,1839,ls),
(1179,1802,o),
(1218,1779,o),
(1245,1779,cs),
(1264,1779,o),
(1274,1792,o),
(1274,1814,cs),
(1274,1830,o),
(1273,1851,o),
(1260,1878,cs),
(1055,2295,ls),
(1024,2357,o),
(969,2385,o),
(914,2385,cs),
(858,2385,o),
(798,2353,o),
(770,2295,cs)
);
}
);
};
layerId = "22B129CF-CF15-475D-9616-E64336B05864";
shapes = (
{
ref = U;
},
{
pos = (501,874);
ref = circumflexcomb;
}
);
width = 1745;
}
);
unicode = 219;
},
{
glyphname = Udieresis;
kernLeft = U;
kernRight = U;
lastChange = "2024-06-12 14:22:11 +0000";
layers = (
{
associatedMasterId = "22B129CF-CF15-475D-9616-E64336B05864";
layerId = "B6CE1041-7538-4217-84EF-70C52ADE8BCB";
name = img;
width = 1745;
},
{
background = {
anchors = (
{
name = bot;
pos = (901,0);
},
{
name = top;
pos = (911,1554);
}
);
shapes = (
{
closed = 1;
nodes = (
(106,637,ls),
(106,178,o),
(381,-39,o),
(901,-39,cs),
(1378,-39,o),
(1638,178,o),
(1638,637,cs),
(1638,1597,l),
(1085,1597,l),
(1085,659,ls),
(1085,545,o),
(1034,455,o),
(911,455,cs),
(788,455,o),
(737,541,o),
(737,655,cs),
(737,1597,l),
(106,1597,l)
);
},
{
closed = 1;
nodes = (
(459,2158,o),
(366,2039,o),
(366,1923,cs),
(366,1810,o),
(442,1716,o),
(594,1716,cs),
(770,1716,o),
(846,1837,o),
(846,1957,cs),
(846,2068,o),
(768,2158,o),
(624,2158,cs)
);
},
{
closed = 1;
nodes = (
(1065,2158,o),
(973,2039,o),
(973,1923,cs),
(973,1810,o),
(1052,1716,o),
(1202,1716,cs),
(1378,1716,o),
(1452,1837,o),
(1452,1957,cs),
(1452,2068,o),
(1374,2158,o),
(1229,2158,cs)
);
}
);
};
layerId = "22B129CF-CF15-475D-9616-E64336B05864";
shapes = (
{
ref = U;
},
{
pos = (264,874);
ref = dieresiscomb;
}
);
width = 1745;
}
);
unicode = 220;
},
{
glyphname = Ugrave;
kernLeft = U;
kernRight = U;
lastChange = "2024-06-12 14:22:11 +0000";
layers = (
{
associatedMasterId = "22B129CF-CF15-475D-9616-E64336B05864";
layerId = "B6CE1041-7538-4217-84EF-70C52ADE8BCB";
name = img;
width = 1745;
},
{
background = {
anchors = (
{
name = bot;
pos = (901,0);
},
{
name = top;
pos = (911,1554);
}
);
shapes = (
{
closed = 1;
nodes = (
(106,637,ls),
(106,178,o),
(381,-39,o),
(901,-39,cs),
(1378,-39,o),
(1638,178,o),
(1638,637,cs),
(1638,1597,l),
(1085,1597,l),
(1085,659,ls),
(1085,545,o),
(1034,455,o),
(911,455,cs),
(788,455,o),
(737,541,o),
(737,655,cs),
(737,1597,l),
(106,1597,l)
);
},
{
closed = 1;
nodes = (
(389,2350,l),
(819,1812,ls),
(856,1766,o),
(886,1742,o),
(911,1742,cs),
(934,1742,o),
(948,1763,o),
(948,1797,cs),
(948,1812,o),
(946,1830,o),
(940,1851,cs),
(796,2350,l)
);
}
);
};
layerId = "22B129CF-CF15-475D-9616-E64336B05864";
shapes = (
{
ref = U;
},
{
pos = (356,874);
ref = gravecomb;
}
);
width = 1745;
}
);
unicode = 217;
},
{
glyphname = Uhungarumlaut;
kernLeft = U;
kernRight = U;
lastChange = "2024-06-12 14:22:11 +0000";
layers = (
{
background = {
anchors = (
{
name = bot;
pos = (901,0);
},
{
name = top;
pos = (911,1554);
}
);
shapes = (
{
closed = 1;
nodes = (
(106,637,ls),
(106,178,o),
(381,-39,o),
(901,-39,cs),
(1378,-39,o),
(1638,178,o),
(1638,637,cs),
(1638,1597,l),
(1085,1597,l),
(1085,659,ls),
(1085,545,o),
(1034,455,o),
(911,455,cs),
(788,455,o),
(737,541,o),
(737,655,cs),
(737,1597,l),
(106,1597,l)
);
},
{
closed = 1;
nodes = (
(693,2359,l),
(652,1859,l),
(652,1849,o),
(650,1841,o),
(650,1832,cs),
(650,1777,o),
(669,1751,o),
(691,1751,cs),
(716,1751,o),
(744,1773,o),
(773,1820,cs),
(1101,2359,l)
);
},
{
closed = 1;
nodes = (
(1230,2359,l),
(1101,1859,l),
(1101,1837,o),
(1099,1818,o),
(1099,1804,cs),
(1099,1769,o),
(1111,1755,o),
(1132,1755,cs),
(1158,1755,o),
(1195,1779,o),
(1228,1820,cs),
(1658,2359,l)
);
}
);
};
layerId = "22B129CF-CF15-475D-9616-E64336B05864";
shapes = (
{
ref = U;
},
{
pos = (505,874);
ref = hungarumlautcomb;
}
);
width = 1745;
}
);
unicode = 368;
},
{
glyphname = Uinvertedbreve;
kernLeft = U;
kernRight = U;
lastChange = "2024-06-12 14:49:45 +0000";
layers = (
{
associatedMasterId = "22B129CF-CF15-475D-9616-E64336B05864";
layerId = "B6CE1041-7538-4217-84EF-70C52ADE8BCB";
name = img;
width = 1745;
},
{
background = {
anchors = (
{
name = bot;
pos = (901,0);
},
{
name = top;
pos = (911,1554);
}
);
shapes = (
{
closed = 1;
nodes = (
(106,637,ls),
(106,178,o),
(381,-39,o),
(901,-39,cs),
(1378,-39,o),
(1638,178,o),
(1638,637,cs),
(1638,1597,l),
(1085,1597,l),
(1085,659,ls),
(1085,545,o),
(1034,455,o),
(911,455,cs),
(788,455,o),
(737,541,o),
(737,655,cs),
(737,1597,l),
(106,1597,l)
);
},
{
closed = 1;
nodes = (
(1466,1800,l),
(1466,2064,o),
(1278,2324,o),
(911,2324,cs),
(543,2324,o),
(356,2066,o),
(356,1800,c),
(725,1800,l),
(725,1910,o),
(789,2015,o),
(911,2015,cs),
(1034,2015,o),
(1096,1906,o),
(1096,1800,c)
);
}
);
};
layerId = "22B129CF-CF15-475D-9616-E64336B05864";
shapes = (
{
ref = U;
},
{
pos = (252,874);
ref = breveinvertedcomb;
}
);
width = 1745;
}
);
unicode = 534;
},
{
glyphname = Umacron;
kernLeft = U;
kernRight = U;
lastChange = "2024-06-12 14:22:11 +0000";
layers = (
{
associatedMasterId = "22B129CF-CF15-475D-9616-E64336B05864";
layerId = "B6CE1041-7538-4217-84EF-70C52ADE8BCB";
name = img;
width = 1745;
},
{
background = {
anchors = (
{
name = bot;
pos = (901,0);
},
{
name = top;
pos = (911,1554);
}
);
shapes = (
{
closed = 1;
nodes = (
(106,637,ls),
(106,178,o),
(381,-39,o),
(901,-39,cs),
(1378,-39,o),
(1638,178,o),
(1638,637,cs),
(1638,1597,l),
(1085,1597,l),
(1085,659,ls),
(1085,545,o),
(1034,455,o),
(911,455,cs),
(788,455,o),
(737,541,o),
(737,655,cs),
(737,1597,l),
(106,1597,l)
);
},
{
closed = 1;
nodes = (
(447,1820,l),
(1360,1820,l),
(1360,2117,l),
(447,2117,l)
);
}
);
};
layerId = "22B129CF-CF15-475D-9616-E64336B05864";
shapes = (
{
ref = U;
},
{
pos = (323,874);
ref = macroncomb;
}
);
width = 1745;
}
);
unicode = 362;
},
{
glyphname = Uogonek;
kernLeft = U;
kernRight = U;
lastChange = "2024-06-12 14:22:11 +0000";
layers = (
{
associatedMasterId = "22B129CF-CF15-475D-9616-E64336B05864";
layerId = "B6CE1041-7538-4217-84EF-70C52ADE8BCB";
name = img;
width = 1745;
},
{
background = {
anchors = (
{
name = bot;
pos = (901,0);
},
{
name = top;
pos = (911,1554);
}
);
shapes = (
{
closed = 1;
nodes = (
(106,637,ls),
(106,178,o),
(381,-39,o),
(901,-39,cs),
(1378,-39,o),
(1638,178,o),
(1638,637,cs),
(1638,1597,l),
(1085,1597,l),
(1085,659,ls),
(1085,545,o),
(1034,455,o),
(911,455,cs),
(788,455,o),
(737,541,o),
(737,655,cs),
(737,1597,l),
(106,1597,l)
);
},
{
closed = 1;
nodes = (
(1182,-522,o),
(1194,-500,o),
(1194,-481,cs),
(1194,-449,o),
(1165,-420,o),
(1134,-420,cs),
(1116,-420,o),
(1024,-483,o),
(919,-483,cs),
(854,-483,o),
(829,-444,o),
(829,-387,cs),
(829,-246,o),
(973,0,o),
(973,0,c),
(835,0,l),
(835,0,o),
(557,-197,o),
(557,-401,cs),
(557,-561,o),
(700,-629,o),
(852,-629,cs),
(962,-629,o),
(1079,-594,o),
(1155,-543,c)
);
}
);
};
layerId = "22B129CF-CF15-475D-9616-E64336B05864";
shapes = (
{
ref = U;
},
{
pos = (518,0);
ref = ogonekcomb;
}
);
width = 1745;
}
);
unicode = 370;
},
{
glyphname = Uring;
kernLeft = U;
kernRight = U;
lastChange = "2024-06-12 14:22:11 +0000";
layers = (
{
background = {
anchors = (
{
name = bot;
pos = (901,0);
},
{
name = top;
pos = (911,1554);
}
);
shapes = (
{
closed = 1;
nodes = (
(106,637,ls),
(106,178,o),
(381,-39,o),
(901,-39,cs),
(1378,-39,o),
(1638,178,o),
(1638,637,cs),
(1638,1597,l),
(1085,1597,l),
(1085,659,ls),
(1085,545,o),
(1034,455,o),
(911,455,cs),
(788,455,o),
(737,541,o),
(737,655,cs),
(737,1597,l),
(106,1597,l)
);
},
{
closed = 1;
nodes = (
(1003,2201,o),
(1052,2131,o),
(1052,2064,cs),
(1052,1996,o),
(1005,1929,o),
(911,1929,cs),
(814,1929,o),
(765,1998,o),
(765,2068,cs),
(765,2134,o),
(812,2201,o),
(907,2201,cs)
);
},
{
closed = 1;
nodes = (
(583,1853,o),
(745,1746,o),
(909,1746,cs),
(1070,1746,o),
(1232,1853,o),
(1232,2066,cs),
(1232,2275,o),
(1068,2381,o),
(907,2381,cs),
(745,2381,o),
(583,2277,o),
(583,2066,cs)
);
}
);
};
layerId = "22B129CF-CF15-475D-9616-E64336B05864";
shapes = (
{
ref = U;
},
{
pos = (540,874);
ref = ringcomb;
}
);
width = 1745;
}
);
unicode = 366;
},
{
glyphname = V;
kernLeft = V;
kernRight = V;
lastChange = "2024-06-12 14:56:43 +0000";
layers = (
{
anchors = (
{
name = bottom;
pos = (922,0);
},
{
name = top;
pos = (922,1622);
}
);
background = {
shapes = (
{
closed = 1;
nodes = (
(25,1597,l),
(852,2,ls),
(869,-31,o),
(904,-47,o),
(942,-47,cs),
(978,-47,o),
(1016,-29,o),
(1032,2,cs),
(1817,1597,l),
(1231,1597,l),
(999,1096,l),
(750,1597,l)
);
}
);
};
layerId = "22B129CF-CF15-475D-9616-E64336B05864";
shapes = (
{
closed = 1;
nodes = (
(25,1597,l),
(852,2,ls),
(869,-31,o),
(904,-47,o),
(942,-47,cs),
(978,-47,o),
(1016,-29,o),
(1032,2,cs),
(1817,1597,l),
(1231,1597,l),
(999,1096,l),
(750,1597,l),
(750,1597,l)
);
}
);
width = 1843;
}
);
unicode = 86;
},
{
glyphname = W;
kernLeft = W;
kernRight = W;
lastChange = "2024-06-12 14:56:43 +0000";
layers = (
{
anchors = (
{
name = bottom;
pos = (1332,0);
},
{
name = top;
pos = (1332,1622);
}
);
background = {
shapes = (
{
closed = 1;
nodes = (
(63,1597,l),
(625,45,ls),
(651,-26,o),
(697,-55,o),
(747,-55,cs),
(796,-55,o),
(847,-22,o),
(887,31,cs),
(1368,678,l),
(1815,33,ls),
(1857,-28,o),
(1907,-59,o),
(1956,-59,cs),
(2006,-59,o),
(2053,-25,o),
(2075,41,cs),
(2597,1597,l),
(2025,1597,l),
(1845,1034,l),
(1473,1563,ls),
(1447,1600,o),
(1434,1606,o),
(1417,1606,cs),
(1399,1606,o),
(1389,1599,o),
(1362,1563,cs),
(963,1028,l),
(780,1597,l)
);
}
);
};
layerId = "22B129CF-CF15-475D-9616-E64336B05864";
shapes = (
{
closed = 1;
nodes = (
(63,1597,l),
(625,45,ls),
(651,-26,o),
(697,-55,o),
(747,-55,cs),
(796,-55,o),
(847,-22,o),
(887,31,cs),
(1368,678,l),
(1815,33,ls),
(1857,-28,o),
(1907,-59,o),
(1956,-59,cs),
(2006,-59,o),
(2053,-25,o),
(2075,41,cs),
(2597,1597,l),
(2025,1597,l),
(1845,1034,l),
(1473,1563,ls),
(1447,1600,o),
(1434,1606,o),
(1417,1606,cs),
(1399,1606,o),
(1389,1599,o),
(1362,1563,cs),
(963,1028,l),
(780,1597,l),
(780,1597,l)
);
}
);
width = 2664;
}
);
unicode = 87;
},
{
glyphname = X;
kernLeft = X;
kernRight = X;
lastChange = "2024-06-12 14:56:43 +0000";
layers = (
{
anchors = (
{
name = bottom;
pos = (962,0);
},
{
name = top;
pos = (962,1622);
}
);
background = {
shapes = (
{
closed = 1;
nodes = (
(1100,0,l),
(1837,0,l),
(1319,846,l),
(1737,1597,l),
(1178,1597,l),
(991,1278,l),
(813,1597,l),
(96,1597,l),
(567,831,l),
(131,0,l),
(727,0,l),
(909,365,l)
);
}
);
};
layerId = "22B129CF-CF15-475D-9616-E64336B05864";
shapes = (
{
closed = 1;
nodes = (
(1100,0,l),
(1837,0,l),
(1319,846,l),
(1737,1597,l),
(1178,1597,l),
(991,1278,l),
(813,1597,l),
(96,1597,l),
(567,831,l),
(131,0,l),
(727,0,l),
(909,365,l),
(909,365,l)
);
}
);
width = 1923;
}
);
unicode = 88;
},
{
glyphname = Y;
kernLeft = Y;
kernRight = _Y_right;
lastChange = "2024-06-12 14:56:43 +0000";
layers = (
{
anchors = (
{
name = bottom;
pos = (859,0);
},
{
name = top;
pos = (915,1554);
},
{
name = topleft;
pos = (20,1622);
}
);
background = {
anchors = (
{
name = top;
pos = (915,1554);
}
);
shapes = (
{
closed = 1;
nodes = (
(530,0,l),
(1178,0,l),
(1178,623,l),
(1675,1597,l),
(1079,1597,l),
(915,1270,l),
(756,1597,l),
(43,1597,l),
(530,623,l)
);
}
);
};
layerId = "22B129CF-CF15-475D-9616-E64336B05864";
shapes = (
{
closed = 1;
nodes = (
(530,0,l),
(1178,0,l),
(1178,623,l),
(1675,1597,l),
(1079,1597,l),
(915,1270,l),
(756,1597,l),
(43,1597,l),
(530,623,l),
(530,623,l)
);
}
);
width = 1718;
}
);
unicode = 89;
},
{
glyphname = Yacute;
kernLeft = Y;
kernRight = _Y_right;
lastChange = "2024-06-12 14:22:12 +0000";
layers = (
{
associatedMasterId = "22B129CF-CF15-475D-9616-E64336B05864";
layerId = "B6CE1041-7538-4217-84EF-70C52ADE8BCB";
name = img;
width = 1718;
},
{
background = {
anchors = (
{
name = top;
pos = (915,1554);
}
);
shapes = (
{
closed = 1;
nodes = (
(530,0,l),
(1178,0,l),
(1178,623,l),
(1675,1597,l),
(1079,1597,l),
(915,1270,l),
(756,1597,l),
(43,1597,l),
(530,623,l)
);
},
{
closed = 1;
nodes = (
(1030,2351,l),
(887,1852,ls),
(881,1831,o),
(879,1813,o),
(879,1798,cs),
(879,1764,o),
(893,1743,o),
(916,1743,cs),
(940,1743,o),
(971,1767,o),
(1008,1813,cs),
(1438,2351,l)
);
}
);
};
layerId = "22B129CF-CF15-475D-9616-E64336B05864";
shapes = (
{
ref = Y;
},
{
pos = (845,874);
ref = acutecomb;
}
);
width = 1718;
}
);
unicode = 221;
},
{
glyphname = Ydieresis;
kernLeft = Y;
kernRight = _Y_right;
lastChange = "2024-06-12 14:22:12 +0000";
layers = (
{
background = {
anchors = (
{
name = top;
pos = (915,1554);
}
);
shapes = (
{
closed = 1;
nodes = (
(530,0,l),
(1178,0,l),
(1178,623,l),
(1675,1597,l),
(1079,1597,l),
(915,1270,l),
(756,1597,l),
(43,1597,l),
(530,623,l)
);
},
{
closed = 1;
nodes = (
(463,2158,o),
(370,2039,o),
(370,1923,cs),
(370,1810,o),
(446,1716,o),
(598,1716,cs),
(774,1716,o),
(850,1837,o),
(850,1957,cs),
(850,2068,o),
(772,2158,o),
(628,2158,cs)
);
},
{
closed = 1;
nodes = (
(1069,2158,o),
(977,2039,o),
(977,1923,cs),
(977,1810,o),
(1056,1716,o),
(1206,1716,cs),
(1382,1716,o),
(1456,1837,o),
(1456,1957,cs),
(1456,2068,o),
(1378,2158,o),
(1233,2158,cs)
);
}
);
};
layerId = "22B129CF-CF15-475D-9616-E64336B05864";
shapes = (
{
ref = Y;
},
{
pos = (268,874);
ref = dieresiscomb;
}
);
width = 1718;
}
);
unicode = 376;
},
{
glyphname = Z;
kernLeft = Z;
kernRight = Z;
lastChange = "2024-06-12 14:56:43 +0000";
layers = (
{
anchors = (
{
name = bottom;
pos = (923,0);
},
{
name = center;
pos = (923,811);
},
{
name = top;
pos = (948,1554);
}
);
background = {
anchors = (
{
name = top;
pos = (948,1554);
}
);
shapes = (
{
closed = 1;
nodes = (
(109,92,l),
(109,0,l),
(1726,0,l),
(1726,457,l),
(1110,457,l),
(1726,1475,l),
(1726,1597,l),
(170,1597,l),
(170,1114,l),
(721,1114,l)
);
}
);
};
layerId = "22B129CF-CF15-475D-9616-E64336B05864";
shapes = (
{
closed = 1;
nodes = (
(109,92,l),
(109,0,l),
(1726,0,l),
(1726,457,l),
(1110,457,l),
(1726,1475,l),
(1726,1597,l),
(170,1597,l),
(170,1114,l),
(721,1114,l),
(721,1114,l)
);
}
);
width = 1845;
}
);
unicode = 90;
},
{
glyphname = Zcaron;
kernLeft = Z;
kernRight = Z;
lastChange = "2024-06-12 14:22:12 +0000";
layers = (
{
background = {
anchors = (
{
name = top;
pos = (948,1554);
}
);
shapes = (
{
closed = 1;
nodes = (
(109,92,l),
(109,0,l),
(1726,0,l),
(1726,457,l),
(1110,457,l),
(1726,1475,l),
(1726,1597,l),
(170,1597,l),
(170,1114,l),
(721,1114,l)
);
},
{
closed = 1;
nodes = (
(807,1863,ls),
(835,1806,o),
(896,1773,o),
(950,1773,cs),
(1005,1773,o),
(1062,1801,o),
(1092,1863,cs),
(1296,2281,ls),
(1309,2308,o),
(1311,2328,o),
(1311,2344,cs),
(1311,2367,o),
(1300,2379,o),
(1282,2379,cs),
(1255,2379,o),
(1215,2356,o),
(1176,2320,cs),
(948,2113,l),
(723,2320,ls),
(682,2357,o),
(643,2379,o),
(616,2379,cs),
(598,2379,o),
(586,2367,o),
(586,2344,cs),
(586,2326,o),
(591,2307,o),
(602,2281,c)
);
}
);
};
layerId = "22B129CF-CF15-475D-9616-E64336B05864";
shapes = (
{
ref = Z;
},
{
pos = (555,874);
ref = caroncomb;
}
);
width = 1845;
}
);
unicode = 381;
},
{
glyphname = a;
kernLeft = _o_left;
kernRight = n;
lastChange = "2024-06-12 14:56:43 +0000";
layers = (
{
anchors = (
{
name = bottom;
pos = (863,0);
},
{
name = ogonek;
pos = (1553,10);
},
{
name = top;
pos = (907,1243);
}
);
background = {
anchors = (
{
name = top;
pos = (907,1243);
}
);
guides = (
{
angle = 90;
pos = (1069,0);
}
);
shapes = (
{
closed = 1;
nodes = (
(84,156,o),
(358,-37,o),
(662,-37,cs),
(846,-37,o),
(1034,55,o),
(1137,207,c),
(1280,0,l),
(1608,0,l),
(1608,1243,l),
(1280,1243,l),
(1137,1090,l),
(1055,1217,o),
(907,1290,o),
(764,1290,cs),
(410,1290,o),
(84,1001,o),
(84,565,cs)
);
},
{
closed = 1;
nodes = (
(680,678,o),
(839,887,o),
(990,887,cs),
(1017,887,o),
(1044,881,o),
(1069,866,c),
(1069,512,l),
(956,416,o),
(844,379,o),
(778,379,cs),
(709,379,o),
(680,451,o),
(680,516,cs)
);
}
);
};
guides = (
{
angle = 90;
pos = (1069,0);
}
);
layerId = "22B129CF-CF15-475D-9616-E64336B05864";
shapes = (
{
closed = 1;
nodes = (
(84,156,o),
(358,-37,o),
(662,-37,cs),
(846,-37,o),
(1034,55,o),
(1137,207,c),
(1280,0,l),
(1608,0,l),
(1608,1243,l),
(1280,1243,l),
(1137,1090,l),
(1055,1217,o),
(907,1290,o),
(764,1290,cs),
(410,1290,o),
(84,1001,o),
(84,565,cs)
);
},
{
closed = 1;
nodes = (
(680,678,o),
(839,887,o),
(990,887,cs),
(1017,887,o),
(1044,881,o),
(1069,866,c),
(1069,512,l),
(956,416,o),
(844,379,o),
(778,379,cs),
(709,379,o),
(680,451,o),
(680,516,cs)
);
}
);
width = 1726;
}
);
unicode = 97;
},
{
glyphname = aacute;
kernLeft = _o_left;
kernRight = n;
lastChange = "2024-06-12 14:22:12 +0000";
layers = (
{
background = {
anchors = (
{
name = top;
pos = (907,1243);
}
);
shapes = (
{
closed = 1;
nodes = (
(84,156,o),
(358,-37,o),
(662,-37,cs),
(846,-37,o),
(1034,55,o),
(1137,207,c),
(1280,0,l),
(1608,0,l),
(1608,1243,l),
(1280,1243,l),
(1137,1090,l),
(1055,1217,o),
(907,1290,o),
(764,1290,cs),
(410,1290,o),
(84,1001,o),
(84,565,cs)
);
},
{
closed = 1;
nodes = (
(680,678,o),
(839,887,o),
(990,887,cs),
(1017,887,o),
(1044,881,o),
(1069,866,c),
(1069,512,l),
(956,416,o),
(844,379,o),
(778,379,cs),
(709,379,o),
(680,451,o),
(680,516,cs)
);
},
{
closed = 1;
nodes = (
(1001,2040,l),
(858,1541,ls),
(852,1520,o),
(850,1502,o),
(850,1487,cs),
(850,1453,o),
(864,1432,o),
(887,1432,cs),
(911,1432,o),
(942,1456,o),
(979,1502,cs),
(1409,2040,l)
);
}
);
};
layerId = "22B129CF-CF15-475D-9616-E64336B05864";
shapes = (
{
ref = a;
},
{
pos = (837,563);
ref = acutecomb;
}
);
width = 1726;
}
);
unicode = 225;
},
{
glyphname = acircumflex;
kernLeft = _o_left;
kernRight = n;
lastChange = "2024-06-12 14:22:12 +0000";
layers = (
{
background = {
anchors = (
{
name = top;
pos = (907,1243);
}
);
shapes = (
{
closed = 1;
nodes = (
(84,156,o),
(358,-37,o),
(662,-37,cs),
(846,-37,o),
(1034,55,o),
(1137,207,c),
(1280,0,l),
(1608,0,l),
(1608,1243,l),
(1280,1243,l),
(1137,1090,l),
(1055,1217,o),
(907,1290,o),
(764,1290,cs),
(410,1290,o),
(84,1001,o),
(84,565,cs)
);
},
{
closed = 1;
nodes = (
(680,678,o),
(839,887,o),
(990,887,cs),
(1017,887,o),
(1044,881,o),
(1069,866,c),
(1069,512,l),
(956,416,o),
(844,379,o),
(778,379,cs),
(709,379,o),
(680,451,o),
(680,516,cs)
);
},
{
closed = 1;
nodes = (
(540,1567,l),
(528,1540,o),
(524,1519,o),
(524,1503,cs),
(524,1481,o),
(536,1468,o),
(555,1468,cs),
(581,1468,o),
(620,1491,o),
(661,1528,cs),
(887,1734,l),
(1114,1528,ls),
(1154,1491,o),
(1193,1468,o),
(1220,1468,cs),
(1239,1468,o),
(1249,1481,o),
(1249,1503,cs),
(1249,1519,o),
(1248,1540,o),
(1235,1567,cs),
(1030,1984,ls),
(999,2046,o),
(944,2074,o),
(889,2074,cs),
(833,2074,o),
(773,2042,o),
(745,1984,cs)
);
}
);
};
layerId = "22B129CF-CF15-475D-9616-E64336B05864";
shapes = (
{
ref = a;
},
{
pos = (497,563);
ref = circumflexcomb;
}
);
width = 1726;
}
);
unicode = 226;
},
{
glyphname = adieresis;
kernLeft = _o_left;
kernRight = n;
lastChange = "2024-06-12 14:22:12 +0000";
layers = (
{
background = {
anchors = (
{
name = top;
pos = (907,1243);
}
);
shapes = (
{
closed = 1;
nodes = (
(84,156,o),
(358,-37,o),
(662,-37,cs),
(846,-37,o),
(1034,55,o),
(1137,207,c),
(1280,0,l),
(1608,0,l),
(1608,1243,l),
(1280,1243,l),
(1137,1090,l),
(1055,1217,o),
(907,1290,o),
(764,1290,cs),
(410,1290,o),
(84,1001,o),
(84,565,cs)
);
},
{
closed = 1;
nodes = (
(680,678,o),
(839,887,o),
(990,887,cs),
(1017,887,o),
(1044,881,o),
(1069,866,c),
(1069,512,l),
(956,416,o),
(844,379,o),
(778,379,cs),
(709,379,o),
(680,451,o),
(680,516,cs)
);
},
{
closed = 1;
nodes = (
(435,1847,o),
(342,1728,o),
(342,1612,cs),
(342,1499,o),
(418,1405,o),
(570,1405,cs),
(746,1405,o),
(822,1526,o),
(822,1646,cs),
(822,1757,o),
(744,1847,o),
(600,1847,cs)
);
},
{
closed = 1;
nodes = (
(1041,1847,o),
(949,1728,o),
(949,1612,cs),
(949,1499,o),
(1028,1405,o),
(1178,1405,cs),
(1354,1405,o),
(1428,1526,o),
(1428,1646,cs),
(1428,1757,o),
(1350,1847,o),
(1205,1847,cs)
);
}
);
};
layerId = "22B129CF-CF15-475D-9616-E64336B05864";
shapes = (
{
ref = a;
},
{
pos = (260,563);
ref = dieresiscomb;
}
);
width = 1726;
}
);
unicode = 228;
},
{
glyphname = agrave;
kernLeft = _o_left;
kernRight = n;
lastChange = "2024-06-12 14:22:12 +0000";
layers = (
{
background = {
anchors = (
{
name = top;
pos = (907,1243);
}
);
shapes = (
{
closed = 1;
nodes = (
(84,156,o),
(358,-37,o),
(662,-37,cs),
(846,-37,o),
(1034,55,o),
(1137,207,c),
(1280,0,l),
(1608,0,l),
(1608,1243,l),
(1280,1243,l),
(1137,1090,l),
(1055,1217,o),
(907,1290,o),
(764,1290,cs),
(410,1290,o),
(84,1001,o),
(84,565,cs)
);
},
{
closed = 1;
nodes = (
(680,678,o),
(839,887,o),
(990,887,cs),
(1017,887,o),
(1044,881,o),
(1069,866,c),
(1069,512,l),
(956,416,o),
(844,379,o),
(778,379,cs),
(709,379,o),
(680,451,o),
(680,516,cs)
);
},
{
closed = 1;
nodes = (
(365,2039,l),
(795,1501,ls),
(832,1455,o),
(862,1431,o),
(887,1431,cs),
(910,1431,o),
(924,1452,o),
(924,1486,cs),
(924,1501,o),
(922,1519,o),
(916,1540,cs),
(772,2039,l)
);
}
);
};
layerId = "22B129CF-CF15-475D-9616-E64336B05864";
shapes = (
{
ref = a;
},
{
pos = (352,563);
ref = gravecomb;
}
);
width = 1726;
}
);
unicode = 224;
},
{
glyphname = ainvertedbreve;
kernLeft = _o_left;
kernRight = n;
lastChange = "2024-06-12 14:49:45 +0000";
layers = (
{
background = {
anchors = (
{
name = top;
pos = (907,1243);
}
);
shapes = (
{
closed = 1;
nodes = (
(84,156,o),
(358,-37,o),
(662,-37,cs),
(846,-37,o),
(1034,55,o),
(1137,207,c),
(1280,0,l),
(1608,0,l),
(1608,1243,l),
(1280,1243,l),
(1137,1090,l),
(1055,1217,o),
(907,1290,o),
(764,1290,cs),
(410,1290,o),
(84,1001,o),
(84,565,cs)
);
},
{
closed = 1;
nodes = (
(680,678,o),
(839,887,o),
(990,887,cs),
(1017,887,o),
(1044,881,o),
(1069,866,c),
(1069,512,l),
(956,416,o),
(844,379,o),
(778,379,cs),
(709,379,o),
(680,451,o),
(680,516,cs)
);
},
{
closed = 1;
nodes = (
(1462,1489,l),
(1462,1753,o),
(1274,2013,o),
(907,2013,cs),
(539,2013,o),
(352,1755,o),
(352,1489,c),
(721,1489,l),
(721,1599,o),
(785,1704,o),
(907,1704,cs),
(1030,1704,o),
(1092,1595,o),
(1092,1489,c)
);
}
);
};
layerId = "22B129CF-CF15-475D-9616-E64336B05864";
shapes = (
{
ref = a;
},
{
pos = (248,563);
ref = breveinvertedcomb;
}
);
width = 1726;
}
);
unicode = 515;
},
{
glyphname = aring;
kernLeft = _o_left;
kernRight = n;
lastChange = "2024-06-12 14:22:12 +0000";
layers = (
{
background = {
anchors = (
{
name = top;
pos = (907,1243);
}
);
shapes = (
{
closed = 1;
nodes = (
(84,156,o),
(358,-37,o),
(662,-37,cs),
(846,-37,o),
(1034,55,o),
(1137,207,c),
(1280,0,l),
(1608,0,l),
(1608,1243,l),
(1280,1243,l),
(1137,1090,l),
(1055,1217,o),
(907,1290,o),
(764,1290,cs),
(410,1290,o),
(84,1001,o),
(84,565,cs)
);
},
{
closed = 1;
nodes = (
(680,678,o),
(839,887,o),
(990,887,cs),
(1017,887,o),
(1044,881,o),
(1069,866,c),
(1069,512,l),
(956,416,o),
(844,379,o),
(778,379,cs),
(709,379,o),
(680,451,o),
(680,516,cs)
);
},
{
closed = 1;
nodes = (
(979,1890,o),
(1028,1820,o),
(1028,1753,cs),
(1028,1685,o),
(981,1618,o),
(887,1618,cs),
(790,1618,o),
(741,1687,o),
(741,1757,cs),
(741,1823,o),
(788,1890,o),
(883,1890,cs)
);
},
{
closed = 1;
nodes = (
(559,1542,o),
(721,1435,o),
(885,1435,cs),
(1046,1435,o),
(1208,1542,o),
(1208,1755,cs),
(1208,1964,o),
(1044,2070,o),
(883,2070,cs),
(721,2070,o),
(559,1966,o),
(559,1755,cs)
);
}
);
};
layerId = "22B129CF-CF15-475D-9616-E64336B05864";
shapes = (
{
ref = a;
},
{
pos = (536,563);
ref = ringcomb;
}
);
width = 1726;
}
);
unicode = 229;
},
{
glyphname = atilde;
kernLeft = _o_left;
kernRight = n;
lastChange = "2024-06-12 14:22:12 +0000";
layers = (
{
background = {
anchors = (
{
name = top;
pos = (907,1243);
}
);
shapes = (
{
closed = 1;
nodes = (
(84,156,o),
(358,-37,o),
(662,-37,cs),
(846,-37,o),
(1034,55,o),
(1137,207,c),
(1280,0,l),
(1608,0,l),
(1608,1243,l),
(1280,1243,l),
(1137,1090,l),
(1055,1217,o),
(907,1290,o),
(764,1290,cs),
(410,1290,o),
(84,1001,o),
(84,565,cs)
);
},
{
closed = 1;
nodes = (
(680,678,o),
(839,887,o),
(990,887,cs),
(1017,887,o),
(1044,881,o),
(1069,866,c),
(1069,512,l),
(956,416,o),
(844,379,o),
(778,379,cs),
(709,379,o),
(680,451,o),
(680,516,cs)
);
},
{
closed = 1;
nodes = (
(779,1552,o),
(994,1446,o),
(1156,1446,cs),
(1291,1446,o),
(1391,1521,o),
(1391,1794,cs),
(1391,1802,o),
(1385,1810,o),
(1375,1810,cs),
(1352,1810,o),
(1307,1749,o),
(1232,1749,cs),
(1090,1749,o),
(873,1853,o),
(705,1853,cs),
(564,1853,o),
(457,1780,o),
(457,1509,cs),
(457,1501,o),
(466,1493,o),
(476,1493,cs),
(496,1493,o),
(543,1552,o),
(617,1552,cs)
);
}
);
};
layerId = "22B129CF-CF15-475D-9616-E64336B05864";
shapes = (
{
ref = a;
},
{
pos = (305,563);
ref = tildecomb;
}
);
width = 1726;
}
);
unicode = 227;
},
{
glyphname = ae;
kernLeft = _o_left;
kernRight = e;
lastChange = "2024-06-12 14:56:43 +0000";
layers = (
{
anchors = (
{
name = bottom;
pos = (1234,0);
},
{
name = top;
pos = (1234,1243);
}
);
associatedMasterId = "22B129CF-CF15-475D-9616-E64336B05864";
layerId = "B6CE1041-7538-4217-84EF-70C52ADE8BCB";
name = img;
width = 2468;
},
{
anchors = (
{
name = bottom;
pos = (1234,0);
},
{
name = top;
pos = (1234,1243);
}
);
background = {
guides = (
{
angle = 90;
pos = (1057,0);
}
);
shapes = (
{
closed = 1;
nodes = (
(1620,1292,o),
(1432,1237,o),
(1288,1126,c),
(1188,1239,o),
(928,1290,o),
(836,1290,cs),
(440,1290,o),
(74,1001,o),
(74,565,cs),
(74,156,o),
(348,-37,o),
(651,-37,cs),
(778,-37,o),
(936,0,o),
(1159,176,c),
(1284,35,o),
(1477,-37,o),
(1669,-37,cs),
(1929,-37,o),
(2185,20,o),
(2343,156,c),
(2281,467,l),
(2124,332,o),
(1921,301,o),
(1839,301,cs),
(1747,301,o),
(1642,307,o),
(1642,434,c),
(1673,432,o),
(1722,432,o),
(1747,432,cs),
(2148,432,o),
(2365,662,o),
(2365,885,cs),
(2365,1090,o),
(2202,1292,o),
(1815,1292,cs)
);
},
{
closed = 1;
nodes = (
(629,678,o),
(788,887,o),
(939,887,cs),
(966,887,o),
(993,881,o),
(1018,866,c),
(1018,512,l),
(905,416,o),
(793,379,o),
(727,379,cs),
(657,379,o),
(629,451,o),
(629,516,cs)
);
},
{
closed = 1;
nodes = (
(1851,975,o),
(1882,948,o),
(1882,887,cs),
(1882,879,o),
(1880,872,o),
(1880,864,c),
(1862,711,l),
(1642,662,l),
(1671,831,o),
(1657,963,o),
(1800,975,c)
);
}
);
};
guides = (
{
angle = 90;
pos = (1057,0);
}
);
layerId = "22B129CF-CF15-475D-9616-E64336B05864";
shapes = (
{
closed = 1;
nodes = (
(1620,1292,o),
(1432,1237,o),
(1288,1126,c),
(1188,1239,o),
(928,1290,o),
(836,1290,cs),
(440,1290,o),
(74,1001,o),
(74,565,cs),
(74,156,o),
(348,-37,o),
(651,-37,cs),
(778,-37,o),
(936,0,o),
(1159,176,c),
(1284,35,o),
(1477,-37,o),
(1669,-37,cs),
(1929,-37,o),
(2185,20,o),
(2343,156,c),
(2281,467,l),
(2124,332,o),
(1921,301,o),
(1839,301,cs),
(1747,301,o),
(1642,307,o),
(1642,434,c),
(1673,432,o),
(1722,432,o),
(1747,432,cs),
(2148,432,o),
(2365,662,o),
(2365,885,cs),
(2365,1090,o),
(2202,1292,o),
(1815,1292,cs)
);
},
{
closed = 1;
nodes = (
(629,678,o),
(788,887,o),
(939,887,cs),
(966,887,o),
(993,881,o),
(1018,866,c),
(1018,512,l),
(905,416,o),
(793,379,o),
(727,379,cs),
(657,379,o),
(629,451,o),
(629,516,cs)
);
},
{
closed = 1;
nodes = (
(1851,975,o),
(1882,948,o),
(1882,887,cs),
(1882,879,o),
(1880,872,o),
(1880,864,c),
(1862,711,l),
(1642,662,l),
(1671,831,o),
(1657,963,o),
(1800,975,c)
);
}
);
width = 2468;
}
);
unicode = 230;
},
{
glyphname = b;
kernLeft = h;
kernRight = _o_right;
lastChange = "2024-06-12 14:56:43 +0000";
layers = (
{
anchors = (
{
name = bottom;
pos = (867,0);
},
{
name = center;
pos = (433,1346);
},
{
name = top;
pos = (867,1243);
}
);
background = {
guides = (
{
angle = 90;
pos = (1092,0);
}
);
shapes = (
{
closed = 1;
nodes = (
(123,16,l),
(367,-23,o),
(592,-39,o),
(766,-39,cs),
(1460,-39,o),
(1657,432,o),
(1657,657,cs),
(1657,975,o),
(1470,1260,o),
(1106,1260,cs),
(1004,1260,o),
(827,1214,o),
(705,1096,c),
(705,1683,l),
(123,1683,l)
);
},
{
closed = 1;
nodes = (
(1065,844,o),
(1092,770,o),
(1092,707,cs),
(1092,539,o),
(936,336,o),
(801,336,cs),
(702,336,l),
(702,713,l),
(762,760,o),
(868,844,o),
(993,844,cs)
);
}
);
};
guides = (
{
angle = 90;
pos = (1092,0);
}
);
layerId = "22B129CF-CF15-475D-9616-E64336B05864";
shapes = (
{
closed = 1;
nodes = (
(123,16,l),
(367,-23,o),
(592,-39,o),
(766,-39,cs),
(1460,-39,o),
(1657,432,o),
(1657,657,cs),
(1657,975,o),
(1470,1260,o),
(1106,1260,cs),
(1004,1260,o),
(827,1214,o),
(705,1096,c),
(705,1683,l),
(123,1683,l),
(123,1683,l)
);
},
{
closed = 1;
nodes = (
(1065,844,o),
(1092,770,o),
(1092,707,cs),
(1092,539,o),
(936,336,o),
(801,336,cs),
(702,336,l),
(702,713,l),
(762,760,o),
(868,844,o),
(993,844,cs)
);
}
);
width = 1733;
}
);
unicode = 98;
},
{
glyphname = c;
kernLeft = _o_left;
kernRight = c;
lastChange = "2024-06-12 14:56:43 +0000";
layers = (
{
anchors = (
{
name = bot;
pos = (729,0);
},
{
name = bottom;
pos = (622,0);
},
{
name = top;
pos = (664,1243);
}
);
background = {
anchors = (
{
name = bot;
pos = (729,0);
},
{
name = top;
pos = (664,1243);
}
);
shapes = (
{
closed = 1;
nodes = (
(1130,522,l),
(948,387,o),
(880,379,o),
(838,379,cs),
(785,379,o),
(721,395,o),
(721,514,cs),
(721,707,o),
(899,887,o),
(1036,887,cs),
(1063,887,o),
(1090,881,o),
(1110,864,c),
(1110,1249,l),
(1026,1282,o),
(907,1292,o),
(852,1292,cs),
(391,1292,o),
(74,1008,o),
(74,584,cs),
(74,178,o),
(414,-37,o),
(766,-37,cs),
(895,-37,o),
(1018,-10,o),
(1130,33,c)
);
}
);
};
layerId = "22B129CF-CF15-475D-9616-E64336B05864";
shapes = (
{
closed = 1;
nodes = (
(1130,522,l),
(948,387,o),
(880,379,o),
(838,379,cs),
(785,379,o),
(721,395,o),
(721,514,cs),
(721,707,o),
(899,887,o),
(1036,887,cs),
(1063,887,o),
(1090,881,o),
(1110,864,c),
(1110,1249,l),
(1026,1282,o),
(907,1292,o),
(852,1292,cs),
(391,1292,o),
(74,1008,o),
(74,584,cs),
(74,178,o),
(414,-37,o),
(766,-37,cs),
(895,-37,o),
(1018,-10,o),
(1130,33,c)
);
}
);
width = 1243;
}
);
unicode = 99;
},
{
glyphname = cacute;
kernLeft = _o_left;
kernRight = c;
lastChange = "2024-06-12 14:22:12 +0000";
layers = (
{
background = {
anchors = (
{
name = bot;
pos = (729,0);
},
{
name = top;
pos = (664,1243);
}
);
shapes = (
{
closed = 1;
nodes = (
(1130,522,l),
(948,387,o),
(880,379,o),
(838,379,cs),
(785,379,o),
(721,395,o),
(721,514,cs),
(721,707,o),
(899,887,o),
(1036,887,cs),
(1063,887,o),
(1090,881,o),
(1110,864,c),
(1110,1249,l),
(1026,1282,o),
(907,1292,o),
(852,1292,cs),
(391,1292,o),
(74,1008,o),
(74,584,cs),
(74,178,o),
(414,-37,o),
(766,-37,cs),
(895,-37,o),
(1018,-10,o),
(1130,33,c)
);
},
{
closed = 1;
nodes = (
(778,2040,l),
(635,1541,ls),
(629,1520,o),
(627,1502,o),
(627,1487,cs),
(627,1453,o),
(641,1432,o),
(664,1432,cs),
(688,1432,o),
(719,1456,o),
(756,1502,cs),
(1186,2040,l)
);
}
);
};
layerId = "22B129CF-CF15-475D-9616-E64336B05864";
shapes = (
{
ref = c;
},
{
pos = (594,563);
ref = acutecomb;
}
);
width = 1243;
}
);
unicode = 263;
},
{
glyphname = ccaron;
kernLeft = _o_left;
kernRight = c;
lastChange = "2024-06-12 14:22:12 +0000";
layers = (
{
background = {
anchors = (
{
name = bot;
pos = (729,0);
},
{
name = top;
pos = (664,1243);
}
);
shapes = (
{
closed = 1;
nodes = (
(1130,522,l),
(948,387,o),
(880,379,o),
(838,379,cs),
(785,379,o),
(721,395,o),
(721,514,cs),
(721,707,o),
(899,887,o),
(1036,887,cs),
(1063,887,o),
(1090,881,o),
(1110,864,c),
(1110,1249,l),
(1026,1282,o),
(907,1292,o),
(852,1292,cs),
(391,1292,o),
(74,1008,o),
(74,584,cs),
(74,178,o),
(414,-37,o),
(766,-37,cs),
(895,-37,o),
(1018,-10,o),
(1130,33,c)
);
},
{
closed = 1;
nodes = (
(523,1552,ls),
(551,1495,o),
(612,1462,o),
(666,1462,cs),
(721,1462,o),
(778,1490,o),
(808,1552,cs),
(1012,1970,ls),
(1025,1997,o),
(1027,2017,o),
(1027,2033,cs),
(1027,2056,o),
(1016,2068,o),
(998,2068,cs),
(971,2068,o),
(931,2045,o),
(892,2009,cs),
(664,1802,l),
(439,2009,ls),
(398,2046,o),
(359,2068,o),
(332,2068,cs),
(314,2068,o),
(302,2056,o),
(302,2033,cs),
(302,2015,o),
(307,1996,o),
(318,1970,c)
);
}
);
};
layerId = "22B129CF-CF15-475D-9616-E64336B05864";
shapes = (
{
ref = c;
},
{
pos = (271,563);
ref = caroncomb;
}
);
width = 1243;
}
);
unicode = 269;
},
{
glyphname = ccedilla;
kernLeft = _o_left;
kernRight = c;
lastChange = "2024-06-12 14:22:12 +0000";
layers = (
{
associatedMasterId = "22B129CF-CF15-475D-9616-E64336B05864";
layerId = "B6CE1041-7538-4217-84EF-70C52ADE8BCB";
name = img;
width = 1243;
},
{
background = {
anchors = (
{
name = bot;
pos = (692,0);
},
{
name = top;
pos = (627,1243);
}
);
shapes = (
{
closed = 1;
nodes = (
(1093,522,l),
(911,387,o),
(843,379,o),
(801,379,cs),
(748,379,o),
(684,395,o),
(684,514,cs),
(684,707,o),
(862,887,o),
(999,887,cs),
(1026,887,o),
(1053,881,o),
(1073,864,c),
(1073,1249,l),
(989,1282,o),
(870,1292,o),
(815,1292,cs),
(354,1292,o),
(37,1008,o),
(37,584,cs),
(37,178,o),
(377,-37,o),
(729,-37,cs),
(858,-37,o),
(981,-10,o),
(1093,33,c)
);
},
{
closed = 1;
nodes = (
(541,-596,o),
(658,-631,o),
(768,-631,cs),
(920,-631,o),
(1063,-563,o),
(1063,-403,cs),
(1063,-218,o),
(891,-200,o),
(807,-192,cs),
(785,-190,l),
(846,0,l),
(709,0,l),
(709,0,o),
(614,-322,o),
(615,-328,c),
(703,-328,o),
(791,-360,o),
(791,-420,cs),
(791,-469,o),
(738,-485,o),
(701,-485,cs),
(596,-485,o),
(504,-422,o),
(486,-422,cs),
(455,-422,o),
(426,-451,o),
(426,-483,cs),
(426,-502,o),
(439,-524,o),
(465,-545,c)
);
}
);
};
layerId = "22B129CF-CF15-475D-9616-E64336B05864";
shapes = (
{
ref = c;
},
{
pos = (367,0);
ref = cedillacomb;
}
);
width = 1243;
}
);
unicode = 231;
},
{
glyphname = ccircumflex;
kernLeft = _o_left;
kernRight = c;
lastChange = "2024-06-12 14:22:12 +0000";
layers = (
{
associatedMasterId = "22B129CF-CF15-475D-9616-E64336B05864";
layerId = "B6CE1041-7538-4217-84EF-70C52ADE8BCB";
name = img;
width = 1243;
},
{
background = {
anchors = (
{
name = bot;
pos = (692,0);
},
{
name = top;
pos = (627,1243);
}
);
shapes = (
{
closed = 1;
nodes = (
(1093,522,l),
(911,387,o),
(843,379,o),
(801,379,cs),
(748,379,o),
(684,395,o),
(684,514,cs),
(684,707,o),
(862,887,o),
(999,887,cs),
(1026,887,o),
(1053,881,o),
(1073,864,c),
(1073,1249,l),
(989,1282,o),
(870,1292,o),
(815,1292,cs),
(354,1292,o),
(37,1008,o),
(37,584,cs),
(37,178,o),
(377,-37,o),
(729,-37,cs),
(858,-37,o),
(981,-10,o),
(1093,33,c)
);
},
{
closed = 1;
nodes = (
(317,1567,l),
(305,1540,o),
(301,1519,o),
(301,1503,cs),
(301,1481,o),
(313,1468,o),
(332,1468,cs),
(358,1468,o),
(397,1491,o),
(438,1528,cs),
(664,1734,l),
(891,1528,ls),
(931,1491,o),
(970,1468,o),
(997,1468,cs),
(1016,1468,o),
(1026,1481,o),
(1026,1503,cs),
(1026,1519,o),
(1025,1540,o),
(1012,1567,cs),
(807,1984,ls),
(776,2046,o),
(721,2074,o),
(666,2074,cs),
(610,2074,o),
(550,2042,o),
(522,1984,cs)
);
}
);
};
layerId = "22B129CF-CF15-475D-9616-E64336B05864";
shapes = (
{
ref = c;
},
{
pos = (254,563);
ref = circumflexcomb;
}
);
width = 1243;
}
);
unicode = 265;
},
{
glyphname = d;
kernLeft = _o_left;
kernRight = l;
lastChange = "2024-06-12 14:56:43 +0000";
layers = (
{
anchors = (
{
name = bottom;
pos = (893,0);
},
{
name = center;
pos = (1340,1346);
},
{
name = top;
pos = (1755,1286);
},
{
name = topright;
pos = (2166,1712);
}
);
background = {
anchors = (
{
name = top;
pos = (1755,1286);
}
);
guides = (
{
angle = 90;
pos = (1174,0);
}
);
shapes = (
{
closed = 1;
nodes = (
(74,186,o),
(369,-35,o),
(670,-35,cs),
(848,-35,o),
(1026,41,o),
(1151,207,c),
(1294,0,l),
(1665,0,l),
(1665,1683,l),
(1083,1683,l),
(1083,1249,l),
(997,1276,o),
(903,1288,o),
(809,1288,cs),
(449,1288,o),
(74,1063,o),
(74,559,cs)
);
},
{
closed = 1;
nodes = (
(721,379,o),
(694,453,o),
(694,516,cs),
(694,684,o),
(860,887,o),
(1006,887,cs),
(1032,887,o),
(1059,881,o),
(1083,866,c),
(1083,510,l),
(1024,463,o),
(918,379,o),
(793,379,cs)
);
}
);
};
guides = (
{
angle = 90;
pos = (1174,0);
}
);
layerId = "22B129CF-CF15-475D-9616-E64336B05864";
shapes = (
{
closed = 1;
nodes = (
(74,186,o),
(369,-35,o),
(670,-35,cs),
(848,-35,o),
(1026,41,o),
(1151,207,c),
(1294,0,l),
(1665,0,l),
(1665,1683,l),
(1083,1683,l),
(1083,1249,l),
(997,1276,o),
(903,1288,o),
(809,1288,cs),
(449,1288,o),
(74,1063,o),
(74,559,cs)
);
},
{
closed = 1;
nodes = (
(721,379,o),
(694,453,o),
(694,516,cs),
(694,684,o),
(860,887,o),
(1006,887,cs),
(1032,887,o),
(1059,881,o),
(1083,866,c),
(1083,510,l),
(1024,463,o),
(918,379,o),
(793,379,cs)
);
}
);
width = 1786;
}
);
unicode = 100;
},
{
glyphname = dcaron;
kernLeft = _o_left;
kernRight = dcaron;
lastChange = "2024-06-12 14:22:44 +0000";
layers = (
{
background = {
anchors = (
{
name = top;
pos = (1755,1286);
}
);
shapes = (
{
closed = 1;
nodes = (
(74,186,o),
(369,-35,o),
(670,-35,cs),
(848,-35,o),
(1026,41,o),
(1151,207,c),
(1294,0,l),
(1665,0,l),
(1665,1683,l),
(1083,1683,l),
(1083,1249,l),
(997,1276,o),
(903,1288,o),
(809,1288,cs),
(449,1288,o),
(74,1063,o),
(74,559,cs)
);
},
{
closed = 1;
nodes = (
(721,379,o),
(694,453,o),
(694,516,cs),
(694,684,o),
(860,887,o),
(1006,887,cs),
(1032,887,o),
(1059,881,o),
(1083,866,c),
(1083,510,l),
(1024,463,o),
(918,379,o),
(793,379,cs)
);
},
{
closed = 1;
nodes = (
(1754,1425,l),
(2178,1425,o),
(2363,1605,o),
(2363,1908,cs),
(2363,2312,l),
(1754,2312,l),
(1754,1890,l),
(1934,1890,l),
(1934,1890,o),
(1934,1683,o),
(1754,1683,c)
);
}
);
};
layerId = "22B129CF-CF15-475D-9616-E64336B05864";
shapes = (
{
ref = d;
},
{
pos = (1650,92);
ref = caroncomb.alt;
}
);
width = 1786;
}
);
unicode = 271;
},
{
glyphname = dcroat;
kernLeft = _o_left;
kernRight = l;
lastChange = "2024-06-12 14:56:43 +0000";
layers = (
{
background = {
shapes = (
{
closed = 1;
nodes = (
(896,1364,l),
(1083,1364,l),
(1083,1249,l),
(997,1276,o),
(903,1288,o),
(809,1288,cs),
(449,1288,o),
(74,1063,o),
(74,559,cs),
(74,186,o),
(369,-35,o),
(670,-35,cs),
(848,-35,o),
(1026,41,o),
(1151,207,c),
(1294,0,l),
(1665,0,l),
(1665,1364,l),
(1809,1364,l),
(1809,1513,l),
(1665,1513,l),
(1665,1683,l),
(1083,1683,l),
(1083,1513,l),
(896,1513,l)
);
},
{
closed = 1;
nodes = (
(721,379,o),
(694,453,o),
(694,516,cs),
(694,684,o),
(860,887,o),
(1006,887,cs),
(1032,887,o),
(1059,881,o),
(1083,866,c),
(1083,510,l),
(1024,463,o),
(918,379,o),
(793,379,cs)
);
}
);
};
layerId = "22B129CF-CF15-475D-9616-E64336B05864";
shapes = (
{
closed = 1;
nodes = (
(896,1364,l),
(1083,1364,l),
(1083,1249,l),
(997,1276,o),
(903,1288,o),
(809,1288,cs),
(449,1288,o),
(74,1063,o),
(74,559,cs),
(74,186,o),
(369,-35,o),
(670,-35,cs),
(848,-35,o),
(1026,41,o),
(1151,207,c),
(1294,0,l),
(1665,0,l),
(1665,1364,l),
(1809,1364,l),
(1809,1513,l),
(1665,1513,l),
(1665,1683,l),
(1083,1683,l),
(1083,1513,l),
(896,1513,l),
(896,1513,l)
);
},
{
closed = 1;
nodes = (
(721,379,o),
(694,453,o),
(694,516,cs),
(694,684,o),
(860,887,o),
(1006,887,cs),
(1032,887,o),
(1059,881,o),
(1083,866,c),
(1083,510,l),
(1024,463,o),
(918,379,o),
(793,379,cs)
);
}
);
width = 1786;
}
);
unicode = 273;
},
{
glyphname = dz;
kernLeft = _o_left;
kernRight = z;
lastChange = "2024-06-12 14:22:12 +0000";
layers = (
{
background = {
anchors = (
{
name = top;
pos = (2435,1243);
}
);
shapes = (
{
closed = 1;
nodes = (
(74,186,o),
(369,-35,o),
(670,-35,cs),
(848,-35,o),
(1026,41,o),
(1151,207,c),
(1294,0,l),
(1665,0,l),
(1665,1683,l),
(1083,1683,l),
(1083,1249,l),
(997,1276,o),
(903,1288,o),
(809,1288,cs),
(449,1288,o),
(74,1063,o),
(74,559,cs)
);
},
{
closed = 1;
nodes = (
(721,379,o),
(694,453,o),
(694,516,cs),
(694,684,o),
(860,887,o),
(1006,887,cs),
(1032,887,o),
(1059,881,o),
(1083,866,c),
(1083,510,l),
(1024,463,o),
(918,379,o),
(793,379,cs)
);
},
{
closed = 1;
nodes = (
(1774,68,l),
(1774,0,l),
(3060,0,l),
(3060,356,l),
(2576,356,l),
(3060,1151,l),
(3060,1243,l),
(1821,1243,l),
(1821,866,l),
(2253,866,l)
);
}
);
};
layerId = "22B129CF-CF15-475D-9616-E64336B05864";
shapes = (
{
ref = d;
},
{
pos = (1786,0);
ref = z;
}
);
width = 3269;
}
);
unicode = 499;
},
{
glyphname = dzcaron;
kernLeft = o;
kernRight = z;
lastChange = "2024-06-12 14:22:12 +0000";
layers = (
{
background = {
anchors = (
{
name = top;
pos = (2495,1243);
}
);
shapes = (
{
closed = 1;
nodes = (
(74,186,o),
(369,-35,o),
(670,-35,cs),
(848,-35,o),
(1026,41,o),
(1151,207,c),
(1294,0,l),
(1665,0,l),
(1665,1683,l),
(1083,1683,l),
(1083,1249,l),
(997,1276,o),
(903,1288,o),
(809,1288,cs),
(449,1288,o),
(74,1063,o),
(74,559,cs)
);
},
{
closed = 1;
nodes = (
(721,379,o),
(694,453,o),
(694,516,cs),
(694,684,o),
(860,887,o),
(1006,887,cs),
(1032,887,o),
(1059,881,o),
(1083,866,c),
(1083,510,l),
(1024,463,o),
(918,379,o),
(793,379,cs)
);
},
{
closed = 1;
nodes = (
(1834,68,l),
(1834,0,l),
(3120,0,l),
(3120,356,l),
(2636,356,l),
(3120,1151,l),
(3120,1243,l),
(1881,1243,l),
(1881,866,l),
(2313,866,l)
);
},
{
closed = 1;
nodes = (
(2354,1552,ls),
(2382,1495,o),
(2443,1462,o),
(2497,1462,cs),
(2552,1462,o),
(2609,1490,o),
(2639,1552,cs),
(2843,1970,ls),
(2856,1997,o),
(2858,2017,o),
(2858,2033,cs),
(2858,2056,o),
(2847,2068,o),
(2829,2068,cs),
(2802,2068,o),
(2762,2045,o),
(2723,2009,cs),
(2495,1802,l),
(2270,2009,ls),
(2229,2046,o),
(2190,2068,o),
(2163,2068,cs),
(2145,2068,o),
(2133,2056,o),
(2133,2033,cs),
(2133,2015,o),
(2138,1996,o),
(2149,1970,c)
);
}
);
};
layerId = "22B129CF-CF15-475D-9616-E64336B05864";
shapes = (
{
ref = d;
},
{
pos = (1786,0);
ref = zcaron;
}
);
width = 3269;
}
);
unicode = 454;
},
{
glyphname = eth;
kernLeft = eth;
kernRight = eth;
lastChange = "2024-06-12 14:56:43 +0000";
layers = (
{
anchors = (
{
name = bottom;
pos = (832,0);
},
{
name = top;
pos = (832,1683);
}
);
background = {
shapes = (
{
closed = 1;
nodes = (
(760,1063,l),
(813,1245,l),
(938,1200,o),
(1028,1104,o),
(1028,928,c),
(923,963,o),
(802,983,o),
(681,983,cs),
(381,983,o),
(74,856,o),
(74,506,cs),
(74,80,o),
(457,-37,o),
(766,-37,cs),
(1186,-37,o),
(1587,188,o),
(1587,727,cs),
(1587,1182,o),
(1298,1489,o),
(911,1573,c),
(983,1815,l),
(776,1855,l),
(698,1597,l),
(688,1597,ls),
(516,1597,o),
(395,1577,o),
(207,1532,c),
(264,1229,l),
(359,1257,o),
(482,1278,o),
(602,1278,c),
(551,1104,l)
);
},
{
closed = 1;
nodes = (
(659,289,o),
(633,362,o),
(633,426,cs),
(633,557,o),
(799,715,o),
(944,715,cs),
(971,715,o),
(997,715,o),
(1022,694,c),
(1022,420,l),
(963,373,o),
(856,289,o),
(731,289,cs)
);
}
);
};
layerId = "22B129CF-CF15-475D-9616-E64336B05864";
shapes = (
{
closed = 1;
nodes = (
(760,1063,l),
(813,1245,l),
(938,1200,o),
(1028,1104,o),
(1028,928,c),
(923,963,o),
(802,983,o),
(681,983,cs),
(381,983,o),
(74,856,o),
(74,506,cs),
(74,80,o),
(457,-37,o),
(766,-37,cs),
(1186,-37,o),
(1587,188,o),
(1587,727,cs),
(1587,1182,o),
(1298,1489,o),
(911,1573,c),
(983,1815,l),
(776,1855,l),
(698,1597,l),
(688,1597,ls),
(516,1597,o),
(395,1577,o),
(207,1532,c),
(264,1229,l),
(359,1257,o),
(482,1278,o),
(602,1278,c),
(551,1104,l),
(551,1104,l)
);
},
{
closed = 1;
nodes = (
(659,289,o),
(633,362,o),
(633,426,cs),
(633,557,o),
(799,715,o),
(944,715,cs),
(971,715,o),
(997,715,o),
(1022,694,c),
(1022,420,l),
(963,373,o),
(856,289,o),
(731,289,cs)
);
}
);
width = 1663;
}
);
unicode = 240;
},
{
glyphname = e;
kernLeft = _o_left;
kernRight = e;
lastChange = "2024-06-12 14:56:43 +0000";
layers = (
{
anchors = (
{
name = bottom;
pos = (753,0);
},
{
name = ogonek;
pos = (1355,10);
},
{
name = top;
pos = (811,1241);
}
);
background = {
anchors = (
{
name = top;
pos = (811,1241);
}
);
guides = (
{
pos = (0,348);
}
);
shapes = (
{
closed = 1;
nodes = (
(903,975,o),
(934,948,o),
(934,887,cs),
(934,879,o),
(932,872,o),
(932,864,c),
(913,711,l),
(694,662,l),
(723,831,o),
(709,963,o),
(852,975,c)
);
},
{
closed = 1;
nodes = (
(457,1292,o),
(74,1047,o),
(74,559,cs),
(74,168,o),
(399,-37,o),
(721,-37,cs),
(981,-37,o),
(1237,20,o),
(1395,156,c),
(1333,467,l),
(1176,332,o),
(973,301,o),
(891,301,cs),
(799,301,o),
(694,307,o),
(694,434,c),
(725,432,o),
(774,432,o),
(799,432,cs),
(1200,432,o),
(1417,662,o),
(1417,885,cs),
(1417,1090,o),
(1253,1292,o),
(866,1292,cs)
);
}
);
};
guides = (
{
pos = (0,348);
}
);
layerId = "22B129CF-CF15-475D-9616-E64336B05864";
shapes = (
{
closed = 1;
nodes = (
(903,975,o),
(934,948,o),
(934,887,cs),
(934,879,o),
(932,872,o),
(932,864,c),
(913,711,l),
(694,662,l),
(723,831,o),
(709,963,o),
(852,975,c)
);
},
{
closed = 1;
nodes = (
(457,1292,o),
(74,1047,o),
(74,559,cs),
(74,168,o),
(399,-37,o),
(721,-37,cs),
(981,-37,o),
(1237,20,o),
(1395,156,c),
(1333,467,l),
(1176,332,o),
(973,301,o),
(891,301,cs),
(799,301,o),
(694,307,o),
(694,434,c),
(725,432,o),
(774,432,o),
(799,432,cs),
(1200,432,o),
(1417,662,o),
(1417,885,cs),
(1417,1090,o),
(1253,1292,o),
(866,1292,cs)
);
}
);
width = 1505;
}
);
unicode = 101;
},
{
glyphname = eacute;
kernLeft = _o_left;
kernRight = e;
lastChange = "2024-06-12 14:22:12 +0000";
layers = (
{
background = {
anchors = (
{
name = top;
pos = (811,1241);
}
);
shapes = (
{
closed = 1;
nodes = (
(903,975,o),
(934,948,o),
(934,887,cs),
(934,879,o),
(932,872,o),
(932,864,c),
(913,711,l),
(694,662,l),
(723,831,o),
(709,963,o),
(852,975,c)
);
},
{
closed = 1;
nodes = (
(457,1292,o),
(74,1047,o),
(74,559,cs),
(74,168,o),
(399,-37,o),
(721,-37,cs),
(981,-37,o),
(1237,20,o),
(1395,156,c),
(1333,467,l),
(1176,332,o),
(973,301,o),
(891,301,cs),
(799,301,o),
(694,307,o),
(694,434,c),
(725,432,o),
(774,432,o),
(799,432,cs),
(1200,432,o),
(1417,662,o),
(1417,885,cs),
(1417,1090,o),
(1253,1292,o),
(866,1292,cs)
);
},
{
closed = 1;
nodes = (
(925,2038,l),
(782,1539,ls),
(776,1518,o),
(774,1500,o),
(774,1485,cs),
(774,1451,o),
(788,1430,o),
(811,1430,cs),
(835,1430,o),
(866,1454,o),
(903,1500,cs),
(1333,2038,l)
);
}
);
};
layerId = "22B129CF-CF15-475D-9616-E64336B05864";
shapes = (
{
ref = e;
},
{
pos = (741,561);
ref = acutecomb;
}
);
width = 1505;
}
);
unicode = 233;
},
{
glyphname = ecaron;
kernLeft = _o_left;
kernRight = e;
lastChange = "2024-06-12 14:22:12 +0000";
layers = (
{
background = {
anchors = (
{
name = top;
pos = (811,1241);
}
);
shapes = (
{
closed = 1;
nodes = (
(903,975,o),
(934,948,o),
(934,887,cs),
(934,879,o),
(932,872,o),
(932,864,c),
(913,711,l),
(694,662,l),
(723,831,o),
(709,963,o),
(852,975,c)
);
},
{
closed = 1;
nodes = (
(457,1292,o),
(74,1047,o),
(74,559,cs),
(74,168,o),
(399,-37,o),
(721,-37,cs),
(981,-37,o),
(1237,20,o),
(1395,156,c),
(1333,467,l),
(1176,332,o),
(973,301,o),
(891,301,cs),
(799,301,o),
(694,307,o),
(694,434,c),
(725,432,o),
(774,432,o),
(799,432,cs),
(1200,432,o),
(1417,662,o),
(1417,885,cs),
(1417,1090,o),
(1253,1292,o),
(866,1292,cs)
);
},
{
closed = 1;
nodes = (
(670,1550,ls),
(698,1493,o),
(759,1460,o),
(813,1460,cs),
(868,1460,o),
(925,1488,o),
(955,1550,cs),
(1159,1968,ls),
(1172,1995,o),
(1174,2015,o),
(1174,2031,cs),
(1174,2054,o),
(1163,2066,o),
(1145,2066,cs),
(1118,2066,o),
(1078,2043,o),
(1039,2007,cs),
(811,1800,l),
(586,2007,ls),
(545,2044,o),
(506,2066,o),
(479,2066,cs),
(461,2066,o),
(449,2054,o),
(449,2031,cs),
(449,2013,o),
(454,1994,o),
(465,1968,c)
);
}
);
};
layerId = "22B129CF-CF15-475D-9616-E64336B05864";
shapes = (
{
ref = e;
},
{
pos = (418,561);
ref = caroncomb;
}
);
width = 1505;
}
);
unicode = 283;
},
{
glyphname = ecircumflex;
kernLeft = _o_left;
kernRight = e;
lastChange = "2024-06-12 14:22:12 +0000";
layers = (
{
background = {
anchors = (
{
name = top;
pos = (811,1241);
}
);
shapes = (
{
closed = 1;
nodes = (
(903,975,o),
(934,948,o),
(934,887,cs),
(934,879,o),
(932,872,o),
(932,864,c),
(913,711,l),
(694,662,l),
(723,831,o),
(709,963,o),
(852,975,c)
);
},
{
closed = 1;
nodes = (
(457,1292,o),
(74,1047,o),
(74,559,cs),
(74,168,o),
(399,-37,o),
(721,-37,cs),
(981,-37,o),
(1237,20,o),
(1395,156,c),
(1333,467,l),
(1176,332,o),
(973,301,o),
(891,301,cs),
(799,301,o),
(694,307,o),
(694,434,c),
(725,432,o),
(774,432,o),
(799,432,cs),
(1200,432,o),
(1417,662,o),
(1417,885,cs),
(1417,1090,o),
(1253,1292,o),
(866,1292,cs)
);
},
{
closed = 1;
nodes = (
(464,1565,l),
(452,1538,o),
(448,1517,o),
(448,1501,cs),
(448,1479,o),
(460,1466,o),
(479,1466,cs),
(505,1466,o),
(544,1489,o),
(585,1526,cs),
(811,1732,l),
(1038,1526,ls),
(1078,1489,o),
(1117,1466,o),
(1144,1466,cs),
(1163,1466,o),
(1173,1479,o),
(1173,1501,cs),
(1173,1517,o),
(1172,1538,o),
(1159,1565,cs),
(954,1982,ls),
(923,2044,o),
(868,2072,o),
(813,2072,cs),
(757,2072,o),
(697,2040,o),
(669,1982,cs)
);
}
);
};
layerId = "22B129CF-CF15-475D-9616-E64336B05864";
shapes = (
{
ref = e;
},
{
pos = (401,561);
ref = circumflexcomb;
}
);
width = 1505;
}
);
unicode = 234;
},
{
glyphname = edieresis;
kernLeft = _o_left;
kernRight = e;
lastChange = "2024-06-12 14:22:12 +0000";
layers = (
{
background = {
anchors = (
{
name = top;
pos = (811,1241);
}
);
shapes = (
{
closed = 1;
nodes = (
(903,975,o),
(934,948,o),
(934,887,cs),
(934,879,o),
(932,872,o),
(932,864,c),
(913,711,l),
(694,662,l),
(723,831,o),
(709,963,o),
(852,975,c)
);
},
{
closed = 1;
nodes = (
(457,1292,o),
(74,1047,o),
(74,559,cs),
(74,168,o),
(399,-37,o),
(721,-37,cs),
(981,-37,o),
(1237,20,o),
(1395,156,c),
(1333,467,l),
(1176,332,o),
(973,301,o),
(891,301,cs),
(799,301,o),
(694,307,o),
(694,434,c),
(725,432,o),
(774,432,o),
(799,432,cs),
(1200,432,o),
(1417,662,o),
(1417,885,cs),
(1417,1090,o),
(1253,1292,o),
(866,1292,cs)
);
},
{
closed = 1;
nodes = (
(359,1845,o),
(266,1726,o),
(266,1610,cs),
(266,1497,o),
(342,1403,o),
(494,1403,cs),
(670,1403,o),
(746,1524,o),
(746,1644,cs),
(746,1755,o),
(668,1845,o),
(524,1845,cs)
);
},
{
closed = 1;
nodes = (
(965,1845,o),
(873,1726,o),
(873,1610,cs),
(873,1497,o),
(952,1403,o),
(1102,1403,cs),
(1278,1403,o),
(1352,1524,o),
(1352,1644,cs),
(1352,1755,o),
(1274,1845,o),
(1129,1845,cs)
);
}
);
};
layerId = "22B129CF-CF15-475D-9616-E64336B05864";
shapes = (
{
ref = e;
},
{
pos = (164,561);
ref = dieresiscomb;
}
);
width = 1505;
}
);
unicode = 235;
},
{
glyphname = egrave;
kernLeft = _o_left;
kernRight = e;
lastChange = "2024-06-12 14:22:12 +0000";
layers = (
{
background = {
anchors = (
{
name = top;
pos = (811,1241);
}
);
shapes = (
{
closed = 1;
nodes = (
(903,975,o),
(934,948,o),
(934,887,cs),
(934,879,o),
(932,872,o),
(932,864,c),
(913,711,l),
(694,662,l),
(723,831,o),
(709,963,o),
(852,975,c)
);
},
{
closed = 1;
nodes = (
(457,1292,o),
(74,1047,o),
(74,559,cs),
(74,168,o),
(399,-37,o),
(721,-37,cs),
(981,-37,o),
(1237,20,o),
(1395,156,c),
(1333,467,l),
(1176,332,o),
(973,301,o),
(891,301,cs),
(799,301,o),
(694,307,o),
(694,434,c),
(725,432,o),
(774,432,o),
(799,432,cs),
(1200,432,o),
(1417,662,o),
(1417,885,cs),
(1417,1090,o),
(1253,1292,o),
(866,1292,cs)
);
},
{
closed = 1;
nodes = (
(289,2037,l),
(719,1499,ls),
(756,1453,o),
(786,1429,o),
(811,1429,cs),
(834,1429,o),
(848,1450,o),
(848,1484,cs),
(848,1499,o),
(846,1517,o),
(840,1538,cs),
(696,2037,l)
);
}
);
};
layerId = "22B129CF-CF15-475D-9616-E64336B05864";
shapes = (
{
ref = e;
},
{
pos = (256,561);
ref = gravecomb;
}
);
width = 1505;
}
);
unicode = 232;
},
{
glyphname = einvertedbreve;
kernLeft = _o_left;
kernRight = e;
lastChange = "2024-06-12 14:49:45 +0000";
layers = (
{
background = {
anchors = (
{
name = top;
pos = (811,1241);
}
);
shapes = (
{
closed = 1;
nodes = (
(903,975,o),
(934,948,o),
(934,887,cs),
(934,879,o),
(932,872,o),
(932,864,c),
(913,711,l),
(694,662,l),
(723,831,o),
(709,963,o),
(852,975,c)
);
},
{
closed = 1;
nodes = (
(457,1292,o),
(74,1047,o),
(74,559,cs),
(74,168,o),
(399,-37,o),
(721,-37,cs),
(981,-37,o),
(1237,20,o),
(1395,156,c),
(1333,467,l),
(1176,332,o),
(973,301,o),
(891,301,cs),
(799,301,o),
(694,307,o),
(694,434,c),
(725,432,o),
(774,432,o),
(799,432,cs),
(1200,432,o),
(1417,662,o),
(1417,885,cs),
(1417,1090,o),
(1253,1292,o),
(866,1292,cs)
);
},
{
closed = 1;
nodes = (
(1366,1487,l),
(1366,1751,o),
(1178,2011,o),
(811,2011,cs),
(443,2011,o),
(256,1753,o),
(256,1487,c),
(625,1487,l),
(625,1597,o),
(689,1702,o),
(811,1702,cs),
(934,1702,o),
(996,1593,o),
(996,1487,c)
);
}
);
};
layerId = "22B129CF-CF15-475D-9616-E64336B05864";
shapes = (
{
ref = e;
},
{
pos = (152,561);
ref = breveinvertedcomb;
}
);
width = 1505;
}
);
unicode = 519;
},
{
glyphname = f;
kernLeft = f;
kernRight = f;
lastChange = "2024-06-12 14:56:43 +0000";
layers = (
{
anchors = (
{
name = bottom;
pos = (561,0);
},
{
name = top;
pos = (561,1683);
}
);
background = {
shapes = (
{
closed = 1;
nodes = (
(68,926,l),
(182,926,l),
(182,0,l),
(780,0,l),
(780,926,l),
(1063,926,l),
(1063,1243,l),
(780,1243,l),
(788,1346,o),
(838,1427,o),
(965,1427,cs),
(993,1427,o),
(1024,1423,o),
(1061,1413,c),
(1061,1712,l),
(948,1778,o),
(795,1815,o),
(643,1815,cs),
(391,1815,o),
(182,1683,o),
(182,1454,cs),
(182,1243,l),
(68,1243,l)
);
}
);
};
layerId = "22B129CF-CF15-475D-9616-E64336B05864";
shapes = (
{
closed = 1;
nodes = (
(68,926,l),
(182,926,l),
(182,0,l),
(780,0,l),
(780,926,l),
(1063,926,l),
(1063,1243,l),
(780,1243,l),
(788,1346,o),
(838,1427,o),
(965,1427,cs),
(993,1427,o),
(1024,1423,o),
(1061,1413,c),
(1061,1712,l),
(948,1778,o),
(795,1815,o),
(643,1815,cs),
(391,1815,o),
(182,1683,o),
(182,1454,cs),
(182,1243,l),
(68,1243,l),
(68,1243,l)
);
}
);
width = 1122;
}
);
unicode = 102;
},
{
glyphname = g;
kernLeft = _o_left;
kernRight = g;
lastChange = "2024-06-12 14:56:43 +0000";
layers = (
{
anchors = (
{
name = bottom;
pos = (851,-326);
},
{
name = top;
pos = (755,1241);
}
);
background = {
anchors = (
{
name = top;
pos = (755,1241);
}
);
guides = (
{
angle = 90;
pos = (963,0);
}
);
shapes = (
{
closed = 1;
nodes = (
(1077,-127,o),
(948,-186,o),
(805,-186,cs),
(725,-186,o),
(641,-166,o),
(573,-158,c),
(573,-512,l),
(678,-539,o),
(799,-555,o),
(922,-555,cs),
(1255,-555,o),
(1591,-426,o),
(1591,0,cs),
(1591,1243,l),
(1264,1243,l),
(1120,1090,l),
(1038,1217,o),
(891,1290,o),
(748,1290,cs),
(393,1290,o),
(74,1008,o),
(74,571,cs),
(74,164,o),
(342,-37,o),
(645,-37,cs),
(805,-37,o),
(961,27,o),
(1077,154,c)
);
},
{
closed = 1;
nodes = (
(690,379,o),
(664,453,o),
(664,516,cs),
(664,684,o),
(829,887,o),
(975,887,cs),
(1001,887,o),
(1028,881,o),
(1053,866,c),
(1053,510,l),
(993,463,o),
(887,379,o),
(762,379,cs)
);
}
);
};
guides = (
{
angle = 90;
pos = (963,0);
}
);
layerId = "22B129CF-CF15-475D-9616-E64336B05864";
shapes = (
{
closed = 1;
nodes = (
(1077,-127,o),
(948,-186,o),
(805,-186,cs),
(725,-186,o),
(641,-166,o),
(573,-158,c),
(573,-512,l),
(678,-539,o),
(799,-555,o),
(922,-555,cs),
(1255,-555,o),
(1591,-426,o),
(1591,0,cs),
(1591,1243,l),
(1264,1243,l),
(1120,1090,l),
(1038,1217,o),
(891,1290,o),
(748,1290,cs),
(393,1290,o),
(74,1008,o),
(74,571,cs),
(74,164,o),
(342,-37,o),
(645,-37,cs),
(805,-37,o),
(961,27,o),
(1077,154,c)
);
},
{
closed = 1;
nodes = (
(690,379,o),
(664,453,o),
(664,516,cs),
(664,684,o),
(829,887,o),
(975,887,cs),
(1001,887,o),
(1028,881,o),
(1053,866,c),
(1053,510,l),
(993,463,o),
(887,379,o),
(762,379,cs)
);
}
);
width = 1702;
}
);
unicode = 103;
},
{
glyphname = gacute;
kernLeft = _o_left;
kernRight = g;
lastChange = "2024-06-12 14:22:12 +0000";
layers = (
{
background = {
anchors = (
{
name = top;
pos = (755,1241);
}
);
shapes = (
{
closed = 1;
nodes = (
(1077,-127,o),
(948,-186,o),
(805,-186,cs),
(725,-186,o),
(641,-166,o),
(573,-158,c),
(573,-512,l),
(678,-539,o),
(799,-555,o),
(922,-555,cs),
(1255,-555,o),
(1591,-426,o),
(1591,0,cs),
(1591,1243,l),
(1264,1243,l),
(1120,1090,l),
(1038,1217,o),
(891,1290,o),
(748,1290,cs),
(393,1290,o),
(74,1008,o),
(74,571,cs),
(74,164,o),
(342,-37,o),
(645,-37,cs),
(805,-37,o),
(961,27,o),
(1077,154,c)
);
},
{
closed = 1;
nodes = (
(690,379,o),
(664,453,o),
(664,516,cs),
(664,684,o),
(829,887,o),
(975,887,cs),
(1001,887,o),
(1028,881,o),
(1053,866,c),
(1053,510,l),
(993,463,o),
(887,379,o),
(762,379,cs)
);
},
{
closed = 1;
nodes = (
(869,2038,l),
(726,1539,ls),
(720,1518,o),
(718,1500,o),
(718,1485,cs),
(718,1451,o),
(732,1430,o),
(755,1430,cs),
(779,1430,o),
(810,1454,o),
(847,1500,cs),
(1277,2038,l)
);
}
);
};
layerId = "22B129CF-CF15-475D-9616-E64336B05864";
shapes = (
{
ref = g;
},
{
pos = (685,561);
ref = acutecomb;
}
);
width = 1702;
}
);
unicode = 501;
},
{
glyphname = gbreve;
kernLeft = _o_left;
kernRight = g;
lastChange = "2024-06-12 14:22:12 +0000";
layers = (
{
background = {
anchors = (
{
name = top;
pos = (755,1241);
}
);
shapes = (
{
closed = 1;
nodes = (
(1077,-127,o),
(948,-186,o),
(805,-186,cs),
(725,-186,o),
(641,-166,o),
(573,-158,c),
(573,-512,l),
(678,-539,o),
(799,-555,o),
(922,-555,cs),
(1255,-555,o),
(1591,-426,o),
(1591,0,cs),
(1591,1243,l),
(1264,1243,l),
(1120,1090,l),
(1038,1217,o),
(891,1290,o),
(748,1290,cs),
(393,1290,o),
(74,1008,o),
(74,571,cs),
(74,164,o),
(342,-37,o),
(645,-37,cs),
(805,-37,o),
(961,27,o),
(1077,154,c)
);
},
{
closed = 1;
nodes = (
(690,379,o),
(664,453,o),
(664,516,cs),
(664,684,o),
(829,887,o),
(975,887,cs),
(1001,887,o),
(1028,881,o),
(1053,866,c),
(1053,510,l),
(993,463,o),
(887,379,o),
(762,379,cs)
);
},
{
closed = 1;
nodes = (
(940,2026,l),
(940,1889,o),
(878,1766,o),
(755,1766,cs),
(633,1766,o),
(569,1891,o),
(569,2033,c),
(139,2033,l),
(139,1715,o),
(344,1416,o),
(755,1416,cs),
(1165,1416,o),
(1372,1711,o),
(1372,2026,c)
);
}
);
};
layerId = "22B129CF-CF15-475D-9616-E64336B05864";
shapes = (
{
ref = g;
},
{
pos = (98,561);
ref = brevecomb;
}
);
width = 1702;
}
);
unicode = 287;
},
{
glyphname = h;
kernLeft = h;
kernRight = n;
lastChange = "2024-06-12 14:56:43 +0000";
layers = (
{
anchors = (
{
name = bottom;
pos = (848,0);
},
{
name = center;
pos = (424,1346);
},
{
name = top;
pos = (848,1683);
}
);
background = {
shapes = (
{
closed = 1;
nodes = (
(715,0,l),
(715,776,ls),
(715,850,o),
(741,907,o),
(811,907,cs),
(901,907,o),
(985,760,o),
(985,539,cs),
(985,0,l),
(1583,0,l),
(1583,766,ls),
(1583,1094,o),
(1370,1290,o),
(1102,1290,cs),
(950,1290,o),
(801,1225,o),
(715,1110,c),
(715,1683,l),
(121,1683,l),
(121,0,l)
);
}
);
};
layerId = "22B129CF-CF15-475D-9616-E64336B05864";
shapes = (
{
closed = 1;
nodes = (
(715,0,l),
(715,776,ls),
(715,850,o),
(741,907,o),
(811,907,cs),
(901,907,o),
(985,760,o),
(985,539,cs),
(985,0,l),
(1583,0,l),
(1583,766,ls),
(1583,1094,o),
(1370,1290,o),
(1102,1290,cs),
(950,1290,o),
(801,1225,o),
(715,1110,c),
(715,1683,l),
(121,1683,l),
(121,0,l),
(121,0,l)
);
}
);
width = 1695;
}
);
unicode = 104;
},
{
glyphname = hbar;
kernLeft = h;
kernRight = n;
lastChange = "2024-06-12 14:56:43 +0000";
layers = (
{
background = {
shapes = (
{
closed = 1;
nodes = (
(-10,1336,l),
(146,1336,l),
(146,0,l),
(740,0,l),
(740,776,ls),
(740,850,o),
(766,907,o),
(836,907,cs),
(926,907,o),
(1010,760,o),
(1010,539,cs),
(1010,0,l),
(1608,0,l),
(1608,766,ls),
(1608,1094,o),
(1395,1290,o),
(1127,1290,cs),
(975,1290,o),
(826,1225,o),
(740,1110,c),
(740,1336,l),
(903,1336,l),
(903,1539,l),
(740,1539,l),
(740,1683,l),
(146,1683,l),
(146,1539,l),
(-10,1539,l)
);
}
);
};
layerId = "22B129CF-CF15-475D-9616-E64336B05864";
shapes = (
{
closed = 1;
nodes = (
(-10,1336,l),
(146,1336,l),
(146,0,l),
(740,0,l),
(740,776,ls),
(740,850,o),
(766,907,o),
(836,907,cs),
(926,907,o),
(1010,760,o),
(1010,539,cs),
(1010,0,l),
(1608,0,l),
(1608,766,ls),
(1608,1094,o),
(1395,1290,o),
(1127,1290,cs),
(975,1290,o),
(826,1225,o),
(740,1110,c),
(740,1336,l),
(903,1336,l),
(903,1539,l),
(740,1539,l),
(740,1683,l),
(146,1683,l),
(146,1539,l),
(-10,1539,l),
(-10,1539,l)
);
}
);
width = 1649;
}
);
unicode = 295;
},
{
glyphname = i;
kernLeft = i;
kernRight = i;
lastChange = "2024-06-12 14:56:43 +0000";
layers = (
{
anchors = (
{
name = bot;
pos = (412,0);
},
{
name = bottom;
pos = (411,0);
}
);
background = {
anchors = (
{
name = bot;
pos = (412,0);
}
);
shapes = (
{
closed = 1;
nodes = (
(217,1819,o),
(106,1677,o),
(106,1550,cs),
(106,1444,o),
(180,1346,o),
(385,1346,cs),
(598,1346,o),
(717,1483,o),
(717,1608,cs),
(717,1718,o),
(629,1819,o),
(440,1819,cs)
);
},
{
closed = 1;
nodes = (
(700,1243,l),
(121,1243,l),
(121,0,l),
(700,0,l)
);
}
);
};
layerId = "22B129CF-CF15-475D-9616-E64336B05864";
shapes = (
{
closed = 1;
nodes = (
(217,1819,o),
(106,1677,o),
(106,1550,cs),
(106,1444,o),
(180,1346,o),
(385,1346,cs),
(598,1346,o),
(717,1483,o),
(717,1608,cs),
(717,1718,o),
(629,1819,o),
(440,1819,cs)
);
},
{
closed = 1;
nodes = (
(700,1243,l),
(121,1243,l),
(121,0,l),
(700,0,l),
(700,0,l)
);
}
);
width = 821;
}
);
unicode = 105;
},
{
glyphname = idotless;
kernLeft = i;
kernRight = i;
lastChange = "2024-06-12 14:56:43 +0000";
layers = (
{
anchors = (
{
name = bottom;
pos = (350,0);
},
{
name = ogonek;
pos = (639,0);
},
{
name = top;
pos = (354,1243);
}
);
background = {
anchors = (
{
name = top;
pos = (354,1243);
}
);
shapes = (
{
closed = 1;
nodes = (
(639,1243,l),
(61,1243,l),
(61,0,l),
(639,0,l)
);
}
);
};
layerId = "22B129CF-CF15-475D-9616-E64336B05864";
shapes = (
{
closed = 1;
nodes = (
(639,1243,l),
(61,1243,l),
(61,0,l),
(639,0,l),
(639,0,l)
);
}
);
width = 700;
}
);
unicode = 305;
},
{
glyphname = iacute;
kernLeft = i;
kernRight = i;
lastChange = "2024-06-12 14:22:12 +0000";
layers = (
{
background = {
anchors = (
{
name = top;
pos = (354,1243);
}
);
shapes = (
{
closed = 1;
nodes = (
(639,1243,l),
(61,1243,l),
(61,0,l),
(639,0,l)
);
},
{
closed = 1;
nodes = (
(469,2040,l),
(326,1541,ls),
(320,1520,o),
(318,1502,o),
(318,1487,cs),
(318,1453,o),
(332,1432,o),
(355,1432,cs),
(379,1432,o),
(410,1456,o),
(447,1502,cs),
(877,2040,l)
);
}
);
};
layerId = "22B129CF-CF15-475D-9616-E64336B05864";
shapes = (
{
alignment = -1;
ref = idotless;
},
{
alignment = -1;
pos = (285,563);
ref = acute;
}
);
width = 700;
}
);
unicode = 237;
},
{
glyphname = icircumflex;
kernLeft = i;
kernRight = i;
lastChange = "2024-06-12 14:22:12 +0000";
layers = (
{
background = {
anchors = (
{
name = top;
pos = (354,1243);
}
);
shapes = (
{
closed = 1;
nodes = (
(639,1243,l),
(61,1243,l),
(61,0,l),
(639,0,l)
);
},
{
closed = 1;
nodes = (
(8,1567,l),
(-4,1540,o),
(-8,1519,o),
(-8,1503,cs),
(-8,1481,o),
(4,1468,o),
(23,1468,cs),
(49,1468,o),
(88,1491,o),
(129,1528,cs),
(355,1734,l),
(582,1528,ls),
(622,1491,o),
(661,1468,o),
(688,1468,cs),
(707,1468,o),
(717,1481,o),
(717,1503,cs),
(717,1519,o),
(716,1540,o),
(703,1567,cs),
(498,1984,ls),
(467,2046,o),
(412,2074,o),
(357,2074,cs),
(301,2074,o),
(241,2042,o),
(213,1984,cs)
);
}
);
};
layerId = "22B129CF-CF15-475D-9616-E64336B05864";
shapes = (
{
alignment = -1;
ref = idotless;
},
{
alignment = -1;
pos = (-55,563);
ref = circumflex;
}
);
width = 700;
}
);
unicode = 238;
},
{
glyphname = idieresis;
kernLeft = i;
kernRight = i;
lastChange = "2024-06-12 14:22:12 +0000";
layers = (
{
background = {
anchors = (
{
name = top;
pos = (354,1243);
}
);
shapes = (
{
closed = 1;
nodes = (
(639,1243,l),
(61,1243,l),
(61,0,l),
(639,0,l)
);
},
{
closed = 1;
nodes = (
(-98,1847,o),
(-191,1728,o),
(-191,1612,cs),
(-191,1499,o),
(-115,1405,o),
(37,1405,cs),
(213,1405,o),
(289,1526,o),
(289,1646,cs),
(289,1757,o),
(211,1847,o),
(67,1847,cs)
);
},
{
closed = 1;
nodes = (
(508,1847,o),
(416,1728,o),
(416,1612,cs),
(416,1499,o),
(495,1405,o),
(645,1405,cs),
(821,1405,o),
(895,1526,o),
(895,1646,cs),
(895,1757,o),
(817,1847,o),
(672,1847,cs)
);
}
);
};
layerId = "22B129CF-CF15-475D-9616-E64336B05864";
shapes = (
{
alignment = -1;
ref = idotless;
},
{
alignment = -1;
pos = (-293,563);
ref = dieresis;
}
);
width = 700;
}
);
unicode = 239;
},
{
glyphname = igrave;
kernLeft = i;
kernRight = i;
lastChange = "2024-06-12 14:22:12 +0000";
layers = (
{
background = {
anchors = (
{
name = top;
pos = (354,1243);
}
);
shapes = (
{
closed = 1;
nodes = (
(639,1243,l),
(61,1243,l),
(61,0,l),
(639,0,l)
);
},
{
closed = 1;
nodes = (
(-168,2039,l),
(262,1501,ls),
(299,1455,o),
(329,1431,o),
(354,1431,cs),
(377,1431,o),
(391,1452,o),
(391,1486,cs),
(391,1501,o),
(389,1519,o),
(383,1540,cs),
(239,2039,l)
);
}
);
};
layerId = "22B129CF-CF15-475D-9616-E64336B05864";
shapes = (
{
alignment = -1;
ref = idotless;
},
{
alignment = -1;
pos = (-201,563);
ref = grave;
}
);
width = 700;
}
);
unicode = 236;
},
{
glyphname = iinvertedbreve;
kernLeft = i;
kernRight = i;
lastChange = "2024-06-12 14:49:45 +0000";
layers = (
{
background = {
anchors = (
{
name = top;
pos = (354,1243);
}
);
shapes = (
{
closed = 1;
nodes = (
(639,1243,l),
(61,1243,l),
(61,0,l),
(639,0,l)
);
},
{
closed = 1;
nodes = (
(909,1489,l),
(909,1753,o),
(721,2013,o),
(354,2013,cs),
(-14,2013,o),
(-201,1755,o),
(-201,1489,c),
(168,1489,l),
(168,1599,o),
(232,1704,o),
(354,1704,cs),
(477,1704,o),
(539,1595,o),
(539,1489,c)
);
}
);
};
layerId = "22B129CF-CF15-475D-9616-E64336B05864";
shapes = (
{
ref = idotless;
},
{
pos = (-305,563);
ref = breveinvertedcomb;
}
);
width = 700;
}
);
unicode = 523;
},
{
glyphname = iogonek;
kernLeft = i;
kernRight = i;
lastChange = "2024-06-12 14:22:12 +0000";
layers = (
{
background = {
anchors = (
{
name = bot;
pos = (412,0);
}
);
shapes = (
{
closed = 1;
nodes = (
(217,1819,o),
(106,1677,o),
(106,1550,cs),
(106,1444,o),
(180,1346,o),
(385,1346,cs),
(598,1346,o),
(717,1483,o),
(717,1608,cs),
(717,1718,o),
(629,1819,o),
(440,1819,cs)
);
},
{
closed = 1;
nodes = (
(700,1243,l),
(121,1243,l),
(121,0,l),
(700,0,l)
);
},
{
closed = 1;
nodes = (
(705,-522,o),
(717,-500,o),
(717,-481,cs),
(717,-449,o),
(688,-420,o),
(657,-420,cs),
(639,-420,o),
(547,-483,o),
(442,-483,cs),
(377,-483,o),
(352,-444,o),
(352,-387,cs),
(352,-246,o),
(496,0,o),
(496,0,c),
(358,0,l),
(358,0,o),
(80,-197,o),
(80,-401,cs),
(80,-561,o),
(223,-629,o),
(375,-629,cs),
(485,-629,o),
(602,-594,o),
(678,-543,c)
);
}
);
};
layerId = "22B129CF-CF15-475D-9616-E64336B05864";
shapes = (
{
alignment = -1;
ref = i;
},
{
alignment = -1;
pos = (41,0);
ref = ogonek;
}
);
width = 795;
}
);
unicode = 303;
},
{
glyphname = itilde;
kernLeft = i;
kernRight = i;
lastChange = "2024-06-12 14:22:12 +0000";
layers = (
{
background = {
anchors = (
{
name = top;
pos = (354,1243);
}
);
shapes = (
{
closed = 1;
nodes = (
(639,1243,l),
(61,1243,l),
(61,0,l),
(639,0,l)
);
},
{
closed = 1;
nodes = (
(219,1552,o),
(434,1446,o),
(596,1446,cs),
(731,1446,o),
(831,1521,o),
(831,1794,cs),
(831,1802,o),
(825,1810,o),
(815,1810,cs),
(792,1810,o),
(747,1749,o),
(672,1749,cs),
(530,1749,o),
(313,1853,o),
(145,1853,cs),
(4,1853,o),
(-103,1780,o),
(-103,1509,cs),
(-103,1501,o),
(-94,1493,o),
(-84,1493,cs),
(-64,1493,o),
(-17,1552,o),
(57,1552,cs)
);
}
);
};
layerId = "22B129CF-CF15-475D-9616-E64336B05864";
shapes = (
{
alignment = -1;
ref = idotless;
},
{
alignment = -1;
pos = (-248,563);
ref = tilde;
}
);
width = 700;
}
);
unicode = 297;
},
{
glyphname = ij;
kernLeft = i;
kernRight = j;
lastChange = "2024-06-12 14:22:12 +0000";
layers = (
{
background = {
anchors = (
{
name = bot;
pos = (412,0);
}
);
shapes = (
{
closed = 1;
nodes = (
(736,-258,l),
(850,-349,o),
(1004,-402,o),
(1156,-402,cs),
(1407,-402,o),
(1616,-238,o),
(1616,41,cs),
(1616,1243,l),
(1018,1243,l),
(1018,177,ls),
(1018,61,o),
(916,-87,o),
(842,-87,cs),
(799,-87,o),
(764,-81,o),
(738,-70,c)
);
},
{
closed = 1;
nodes = (
(1121,1819,o),
(1010,1677,o),
(1010,1550,cs),
(1010,1444,o),
(1084,1346,o),
(1289,1346,cs),
(1502,1346,o),
(1620,1483,o),
(1620,1608,cs),
(1620,1718,o),
(1532,1819,o),
(1344,1819,cs)
);
},
{
closed = 1;
nodes = (
(217,1819,o),
(106,1677,o),
(106,1550,cs),
(106,1444,o),
(180,1346,o),
(385,1346,cs),
(598,1346,o),
(717,1483,o),
(717,1608,cs),
(717,1718,o),
(629,1819,o),
(440,1819,cs)
);
},
{
closed = 1;
nodes = (
(700,1243,l),
(121,1243,l),
(121,0,l),
(700,0,l)
);
}
);
};
layerId = "22B129CF-CF15-475D-9616-E64336B05864";
shapes = (
{
ref = i;
},
{
pos = (821,0);
ref = j;
}
);
width = 1837;
}
);
unicode = 307;
},
{
glyphname = j;
kernLeft = j;
kernRight = j;
lastChange = "2024-06-12 14:56:43 +0000";
layers = (
{
background = {
shapes = (
{
closed = 1;
nodes = (
(31,-188,l),
(145,-279,o),
(299,-332,o),
(451,-332,cs),
(702,-332,o),
(911,-168,o),
(911,111,cs),
(911,1243,l),
(313,1243,l),
(313,317,ls),
(313,201,o),
(211,53,o),
(137,53,cs),
(94,53,o),
(59,59,o),
(33,70,c)
);
},
{
closed = 1;
nodes = (
(416,1819,o),
(305,1677,o),
(305,1550,cs),
(305,1444,o),
(379,1346,o),
(584,1346,cs),
(797,1346,o),
(915,1483,o),
(915,1608,cs),
(915,1718,o),
(827,1819,o),
(639,1819,cs)
);
}
);
};
layerId = "22B129CF-CF15-475D-9616-E64336B05864";
shapes = (
{
closed = 1;
nodes = (
(31,-188,l),
(145,-279,o),
(299,-332,o),
(451,-332,cs),
(702,-332,o),
(911,-168,o),
(911,111,cs),
(911,1243,l),
(313,1243,l),
(313,317,ls),
(313,201,o),
(211,53,o),
(137,53,cs),
(94,53,o),
(59,59,o),
(33,70,c)
);
},
{
closed = 1;
nodes = (
(416,1819,o),
(305,1677,o),
(305,1550,cs),
(305,1444,o),
(379,1346,o),
(584,1346,cs),
(797,1346,o),
(915,1483,o),
(915,1608,cs),
(915,1718,o),
(827,1819,o),
(639,1819,cs)
);
}
);
width = 1016;
}
);
unicode = 106;
},
{
glyphname = jdotless;
kernLeft = j;
kernRight = j;
lastChange = "2024-06-12 14:56:43 +0000";
layers = (
{
anchors = (
{
name = bottom;
pos = (483,-326);
},
{
name = top;
pos = (602,1243);
}
);
background = {
anchors = (
{
name = top;
pos = (602,1243);
}
);
shapes = (
{
closed = 1;
nodes = (
(29,-188,l),
(143,-279,o),
(297,-332,o),
(449,-332,cs),
(700,-332,o),
(909,-168,o),
(909,111,cs),
(909,1243,l),
(311,1243,l),
(311,317,ls),
(311,201,o),
(209,53,o),
(135,53,cs),
(92,53,o),
(57,59,o),
(31,70,c)
);
}
);
};
layerId = "22B129CF-CF15-475D-9616-E64336B05864";
shapes = (
{
closed = 1;
nodes = (
(31,-188,l),
(145,-279,o),
(297,-332,o),
(449,-332,cs),
(700,-332,o),
(909,-168,o),
(909,111,cs),
(909,1243,l),
(311,1243,l),
(311,317,ls),
(311,201,o),
(209,53,o),
(135,53,cs),
(92,53,o),
(57,59,o),
(31,70,c)
);
}
);
width = 965;
}
);
unicode = 567;
},
{
glyphname = jcircumflex;
kernLeft = j;
kernRight = j;
lastChange = "2024-06-12 14:22:12 +0000";
layers = (
{
background = {
anchors = (
{
name = top;
pos = (602,1243);
}
);
shapes = (
{
closed = 1;
nodes = (
(29,-188,l),
(143,-279,o),
(297,-332,o),
(449,-332,cs),
(700,-332,o),
(909,-168,o),
(909,111,cs),
(909,1243,l),
(311,1243,l),
(311,317,ls),
(311,201,o),
(209,53,o),
(135,53,cs),
(92,53,o),
(57,59,o),
(31,70,c)
);
},
{
closed = 1;
nodes = (
(256,1567,l),
(244,1540,o),
(240,1519,o),
(240,1503,cs),
(240,1481,o),
(252,1468,o),
(271,1468,cs),
(297,1468,o),
(336,1491,o),
(377,1528,cs),
(603,1734,l),
(830,1528,ls),
(870,1491,o),
(909,1468,o),
(936,1468,cs),
(955,1468,o),
(965,1481,o),
(965,1503,cs),
(965,1519,o),
(964,1540,o),
(951,1567,cs),
(746,1984,ls),
(715,2046,o),
(660,2074,o),
(605,2074,cs),
(549,2074,o),
(489,2042,o),
(461,1984,cs)
);
}
);
};
layerId = "22B129CF-CF15-475D-9616-E64336B05864";
shapes = (
{
alignment = -1;
ref = jdotless;
},
{
alignment = -1;
pos = (193,563);
ref = circumflex;
}
);
width = 965;
}
);
unicode = 309;
},
{
glyphname = k;
kernLeft = h;
kernRight = k;
lastChange = "2024-06-12 14:56:43 +0000";
layers = (
{
anchors = (
{
name = bot;
pos = (731,0);
},
{
name = bottom;
pos = (772,0);
},
{
name = top;
pos = (772,1683);
}
);
background = {
anchors = (
{
name = bot;
pos = (731,0);
}
);
shapes = (
{
closed = 1;
nodes = (
(123,1683,l),
(123,0,l),
(651,0,l),
(651,369,l),
(653,379,o),
(662,393,o),
(668,403,c),
(918,0,l),
(1528,0,l),
(1083,700,l),
(1466,1243,l),
(877,1243,l),
(641,872,l),
(641,1683,l)
);
}
);
};
layerId = "22B129CF-CF15-475D-9616-E64336B05864";
shapes = (
{
closed = 1;
nodes = (
(123,1683,l),
(123,0,l),
(651,0,l),
(651,369,l),
(653,379,o),
(662,393,o),
(668,403,c),
(918,0,l),
(1528,0,l),
(1083,700,l),
(1466,1243,l),
(877,1243,l),
(641,872,l),
(641,1683,l),
(641,1683,l)
);
}
);
width = 1544;
}
);
unicode = 107;
},
{
glyphname = kcommaaccent;
kernLeft = h;
kernRight = k;
lastChange = "2024-06-12 14:22:12 +0000";
layers = (
{
background = {
anchors = (
{
name = bot;
pos = (731,0);
}
);
shapes = (
{
closed = 1;
nodes = (
(123,1683,l),
(123,0,l),
(651,0,l),
(651,369,l),
(653,379,o),
(662,393,o),
(668,403,c),
(918,0,l),
(1528,0,l),
(1083,700,l),
(1466,1243,l),
(877,1243,l),
(641,872,l),
(641,1683,l)
);
},
{
closed = 1;
nodes = (
(418,-1022,l),
(842,-1022,o),
(1027,-842,o),
(1027,-539,cs),
(1027,-135,l),
(418,-135,l),
(418,-557,l),
(598,-557,l),
(598,-557,o),
(598,-764,o),
(418,-764,c)
);
}
);
};
layerId = "22B129CF-CF15-475D-9616-E64336B05864";
shapes = (
{
ref = k;
},
{
pos = (376,0);
ref = commaaccentcomb;
}
);
width = 1544;
}
);
unicode = 311;
},
{
glyphname = kgreenlandic;
kernLeft = n;
kernRight = k;
lastChange = "2024-06-12 14:56:43 +0000";
layers = (
{
anchors = (
{
name = bottom;
pos = (778,0);
},
{
name = top;
pos = (778,1243);
}
);
background = {
shapes = (
{
closed = 1;
nodes = (
(123,1243,l),
(123,0,l),
(651,0,l),
(651,416,l),
(918,0,l),
(1528,0,l),
(1071,668,l),
(1466,1243,l),
(877,1243,l),
(641,852,l),
(641,1243,l)
);
}
);
};
layerId = "22B129CF-CF15-475D-9616-E64336B05864";
shapes = (
{
closed = 1;
nodes = (
(123,1243,l),
(123,0,l),
(651,0,l),
(651,416,l),
(918,0,l),
(1528,0,l),
(1071,668,l),
(1466,1243,l),
(877,1243,l),
(641,852,l),
(641,1243,l),
(641,1243,l)
);
}
);
width = 1556;
}
);
unicode = 312;
},
{
glyphname = l;
kernLeft = h;
kernRight = l;
lastChange = "2024-06-12 14:56:43 +0000";
layers = (
{
anchors = (
{
name = bottom;
pos = (406,0);
},
{
name = center;
pos = (406,622);
},
{
name = top;
pos = (412,1612);
},
{
name = topright;
pos = (1180,1683);
}
);
background = {
anchors = (
{
name = top;
pos = (412,1612);
}
);
shapes = (
{
closed = 1;
nodes = (
(690,1683,l),
(123,1683,l),
(123,0,l),
(690,0,l)
);
}
);
};
layerId = "22B129CF-CF15-475D-9616-E64336B05864";
shapes = (
{
closed = 1;
nodes = (
(690,1683,l),
(123,1683,l),
(123,0,l),
(690,0,l),
(690,0,l)
);
}
);
width = 811;
}
);
unicode = 108;
},
{
glyphname = lacute;
kernLeft = h;
kernRight = l;
lastChange = "2024-06-12 14:22:12 +0000";
layers = (
{
background = {
anchors = (
{
name = top;
pos = (412,1612);
}
);
shapes = (
{
closed = 1;
nodes = (
(690,1683,l),
(123,1683,l),
(123,0,l),
(690,0,l)
);
},
{
closed = 1;
nodes = (
(526,2409,l),
(383,1910,ls),
(377,1889,o),
(375,1871,o),
(375,1856,cs),
(375,1822,o),
(389,1801,o),
(412,1801,cs),
(436,1801,o),
(467,1825,o),
(504,1871,cs),
(934,2409,l)
);
}
);
};
layerId = "22B129CF-CF15-475D-9616-E64336B05864";
shapes = (
{
ref = l;
},
{
pos = (342,932);
ref = acutecomb;
}
);
width = 811;
}
);
unicode = 314;
},
{
glyphname = lcaron;
kernLeft = h;
kernRight = dcaron;
lastChange = "2024-06-12 14:23:11 +0000";
layers = (
{
background = {
anchors = (
{
name = top;
pos = (412,1612);
}
);
shapes = (
{
closed = 1;
nodes = (
(690,1683,l),
(123,1683,l),
(123,0,l),
(690,0,l)
);
},
{
closed = 1;
nodes = (
(271,1921,ls),
(299,1864,o),
(360,1831,o),
(414,1831,cs),
(469,1831,o),
(526,1859,o),
(556,1921,cs),
(760,2339,ls),
(773,2366,o),
(775,2386,o),
(775,2402,cs),
(775,2425,o),
(764,2437,o),
(746,2437,cs),
(719,2437,o),
(679,2414,o),
(640,2378,cs),
(412,2171,l),
(187,2378,ls),
(146,2415,o),
(107,2437,o),
(80,2437,cs),
(62,2437,o),
(50,2425,o),
(50,2402,cs),
(50,2384,o),
(55,2365,o),
(66,2339,c)
);
}
);
};
layerId = "22B129CF-CF15-475D-9616-E64336B05864";
shapes = (
{
ref = l;
},
{
pos = (664,63);
ref = caroncomb.alt;
}
);
width = 811;
}
);
unicode = 318;
},
{
glyphname = ldot;
kernLeft = h;
kernRight = l;
lastChange = "2024-06-12 14:48:31 +0000";
layers = (
{
background = {
anchors = (
{
name = top;
pos = (2067,1612);
}
);
shapes = (
{
closed = 1;
nodes = (
(2345,1683,l),
(1778,1683,l),
(1778,0,l),
(2345,0,l)
);
},
{
closed = 1;
nodes = (
(2636,1241,o),
(2511,1073,o),
(2511,924,cs),
(2511,782,o),
(2595,653,o),
(2785,653,cs),
(3008,653,o),
(3119,815,o),
(3119,969,cs),
(3119,1108,o),
(3027,1241,o),
(2845,1241,cs)
);
}
);
};
layerId = "22B129CF-CF15-475D-9616-E64336B05864";
shapes = (
{
alignment = -1;
ref = l;
},
{
alignment = -1;
pos = (692,134);
ref = periodcentered.loclCAT;
}
);
width = 1356;
}
);
unicode = 320;
},
{
glyphname = lj;
kernLeft = h;
kernRight = j;
lastChange = "2024-06-12 14:22:12 +0000";
layers = (
{
background = {
shapes = (
{
closed = 1;
nodes = (
(690,1683,l),
(123,1683,l),
(123,0,l),
(690,0,l)
);
},
{
closed = 1;
nodes = (
(842,-188,l),
(956,-279,o),
(1110,-332,o),
(1262,-332,cs),
(1513,-332,o),
(1722,-168,o),
(1722,111,cs),
(1722,1241,l),
(1124,1241,l),
(1124,317,ls),
(1124,201,o),
(1022,53,o),
(948,53,cs),
(905,53,o),
(870,59,o),
(844,70,c)
);
},
{
closed = 1;
nodes = (
(1227,1819,o),
(1116,1677,o),
(1116,1550,cs),
(1116,1444,o),
(1190,1346,o),
(1395,1346,cs),
(1608,1346,o),
(1726,1483,o),
(1726,1608,cs),
(1726,1718,o),
(1638,1819,o),
(1450,1819,cs)
);
}
);
};
layerId = "22B129CF-CF15-475D-9616-E64336B05864";
shapes = (
{
ref = l;
},
{
pos = (811,0);
ref = j;
}
);
width = 1827;
}
);
unicode = 457;
},
{
glyphname = lslash;
kernLeft = lslash;
kernRight = lslash;
lastChange = "2024-06-12 14:56:43 +0000";
layers = (
{
background = {
shapes = (
{
closed = 1;
nodes = (
(690,1774,l),
(123,1774,l),
(123,973,l),
(-55,911,l),
(-55,541,l),
(123,604,l),
(123,0,l),
(690,0,l),
(690,805,l),
(872,870,l),
(872,1241,l),
(690,1176,l)
);
}
);
};
layerId = "22B129CF-CF15-475D-9616-E64336B05864";
shapes = (
{
closed = 1;
nodes = (
(690,1774,l),
(123,1774,l),
(123,973,l),
(-55,911,l),
(-55,541,l),
(123,604,l),
(123,0,l),
(690,0,l),
(690,805,l),
(872,870,l),
(872,1241,l),
(690,1176,l),
(690,1176,l)
);
}
);
width = 741;
}
);
unicode = 322;
},
{
glyphname = m;
kernLeft = n;
kernRight = n;
lastChange = "2024-06-12 14:56:43 +0000";
layers = (
{
anchors = (
{
name = bottom;
pos = (1198,0);
},
{
name = top;
pos = (1198,1243);
}
);
background = {
shapes = (
{
closed = 1;
nodes = (
(930,0,l),
(1497,0,l),
(1497,791,l),
(1497,854,o),
(1522,905,o),
(1577,905,cs),
(1634,905,o),
(1704,819,o),
(1704,641,cs),
(1704,0,l),
(2284,0,l),
(2284,848,ls),
(2284,1126,o),
(2093,1290,o),
(1864,1290,cs),
(1708,1290,o),
(1554,1210,o),
(1446,1073,c),
(1374,1212,o),
(1235,1290,o),
(1077,1290,cs),
(893,1290,o),
(694,1200,o),
(592,1049,c),
(449,1243,l),
(121,1243,l),
(121,0,l),
(715,0,l),
(715,776,ls),
(715,846,o),
(735,905,o),
(795,905,cs),
(852,905,o),
(930,819,o),
(930,641,cs)
);
}
);
};
layerId = "22B129CF-CF15-475D-9616-E64336B05864";
shapes = (
{
closed = 1;
nodes = (
(930,0,l),
(1497,0,l),
(1497,791,ls),
(1497,854,o),
(1522,905,o),
(1577,905,cs),
(1634,905,o),
(1704,819,o),
(1704,641,cs),
(1704,0,l),
(2284,0,l),
(2284,848,ls),
(2284,1126,o),
(2093,1290,o),
(1864,1290,cs),
(1708,1290,o),
(1554,1210,o),
(1446,1073,c),
(1374,1212,o),
(1235,1290,o),
(1077,1290,cs),
(893,1290,o),
(694,1200,o),
(592,1049,c),
(449,1243,l),
(121,1243,l),
(121,0,l),
(715,0,l),
(715,776,ls),
(715,846,o),
(735,905,o),
(795,905,cs),
(852,905,o),
(930,819,o),
(930,641,cs)
);
}
);
width = 2396;
}
);
unicode = 109;
},
{
glyphname = n;
kernLeft = n;
kernRight = n;
lastChange = "2024-06-12 14:56:43 +0000";
layers = (
{
anchors = (
{
name = bottom;
pos = (841,0);
},
{
name = top;
pos = (836,1243);
}
);
background = {
anchors = (
{
name = top;
pos = (836,1243);
}
);
shapes = (
{
closed = 1;
nodes = (
(971,0,l),
(1569,0,l),
(1569,848,ls),
(1569,1126,o),
(1360,1290,o),
(1108,1290,cs),
(907,1290,o),
(702,1200,o),
(592,1049,c),
(449,1243,l),
(121,1243,l),
(121,0,l),
(715,0,l),
(715,776,ls),
(715,846,o),
(735,905,o),
(795,905,cs),
(903,905,o),
(971,817,o),
(971,600,cs)
);
}
);
};
layerId = "22B129CF-CF15-475D-9616-E64336B05864";
shapes = (
{
closed = 1;
nodes = (
(971,0,l),
(1569,0,l),
(1569,848,ls),
(1569,1126,o),
(1360,1290,o),
(1108,1290,cs),
(907,1290,o),
(702,1200,o),
(592,1049,c),
(449,1243,l),
(121,1243,l),
(121,0,l),
(715,0,l),
(715,776,ls),
(715,846,o),
(735,905,o),
(795,905,cs),
(903,905,o),
(971,817,o),
(971,600,cs)
);
}
);
width = 1681;
}
);
unicode = 110;
},
{
glyphname = nacute;
kernLeft = n;
kernRight = n;
lastChange = "2024-06-12 14:22:12 +0000";
layers = (
{
background = {
anchors = (
{
name = top;
pos = (836,1243);
}
);
shapes = (
{
closed = 1;
nodes = (
(971,0,l),
(1569,0,l),
(1569,848,ls),
(1569,1126,o),
(1360,1290,o),
(1108,1290,cs),
(907,1290,o),
(702,1200,o),
(592,1049,c),
(449,1243,l),
(121,1243,l),
(121,0,l),
(715,0,l),
(715,776,ls),
(715,846,o),
(735,905,o),
(795,905,cs),
(903,905,o),
(971,817,o),
(971,600,cs)
);
},
{
closed = 1;
nodes = (
(950,2040,l),
(807,1541,ls),
(801,1520,o),
(799,1502,o),
(799,1487,cs),
(799,1453,o),
(813,1432,o),
(836,1432,cs),
(860,1432,o),
(891,1456,o),
(928,1502,cs),
(1358,2040,l)
);
}
);
};
layerId = "22B129CF-CF15-475D-9616-E64336B05864";
shapes = (
{
ref = n;
},
{
pos = (766,563);
ref = acutecomb;
}
);
width = 1681;
}
);
unicode = 324;
},
{
glyphname = ncaron;
kernLeft = n;
kernRight = n;
lastChange = "2024-06-12 14:22:12 +0000";
layers = (
{
background = {
anchors = (
{
name = top;
pos = (836,1243);
}
);
shapes = (
{
closed = 1;
nodes = (
(971,0,l),
(1569,0,l),
(1569,848,ls),
(1569,1126,o),
(1360,1290,o),
(1108,1290,cs),
(907,1290,o),
(702,1200,o),
(592,1049,c),
(449,1243,l),
(121,1243,l),
(121,0,l),
(715,0,l),
(715,776,ls),
(715,846,o),
(735,905,o),
(795,905,cs),
(903,905,o),
(971,817,o),
(971,600,cs)
);
},
{
closed = 1;
nodes = (
(695,1552,ls),
(723,1495,o),
(784,1462,o),
(838,1462,cs),
(893,1462,o),
(950,1490,o),
(980,1552,cs),
(1184,1970,ls),
(1197,1997,o),
(1199,2017,o),
(1199,2033,cs),
(1199,2056,o),
(1188,2068,o),
(1170,2068,cs),
(1143,2068,o),
(1103,2045,o),
(1064,2009,cs),
(836,1802,l),
(611,2009,ls),
(570,2046,o),
(531,2068,o),
(504,2068,cs),
(486,2068,o),
(474,2056,o),
(474,2033,cs),
(474,2015,o),
(479,1996,o),
(490,1970,c)
);
}
);
};
layerId = "22B129CF-CF15-475D-9616-E64336B05864";
shapes = (
{
ref = n;
},
{
pos = (443,563);
ref = caroncomb;
}
);
width = 1681;
}
);
unicode = 328;
},
{
glyphname = nj;
kernLeft = n;
kernRight = j;
lastChange = "2024-06-12 14:22:12 +0000";
layers = (
{
background = {
shapes = (
{
closed = 1;
nodes = (
(971,0,l),
(1569,0,l),
(1569,848,ls),
(1569,1126,o),
(1360,1290,o),
(1108,1290,cs),
(907,1290,o),
(702,1200,o),
(592,1049,c),
(449,1243,l),
(121,1243,l),
(121,0,l),
(715,0,l),
(715,776,ls),
(715,846,o),
(735,905,o),
(795,905,cs),
(903,905,o),
(971,817,o),
(971,600,cs)
);
},
{
closed = 1;
nodes = (
(1601,-338,l),
(1715,-387,o),
(1869,-412,o),
(2021,-412,cs),
(2272,-412,o),
(2481,-248,o),
(2481,31,cs),
(2481,1241,l),
(1883,1241,l),
(1883,167,ls),
(1883,51,o),
(1781,-97,o),
(1707,-97,cs),
(1664,-97,o),
(1629,-91,o),
(1603,-80,c)
);
},
{
closed = 1;
nodes = (
(1986,1819,o),
(1875,1677,o),
(1875,1550,cs),
(1875,1444,o),
(1949,1346,o),
(2154,1346,cs),
(2367,1346,o),
(2485,1483,o),
(2485,1608,cs),
(2485,1718,o),
(2397,1819,o),
(2209,1819,cs)
);
}
);
};
layerId = "22B129CF-CF15-475D-9616-E64336B05864";
shapes = (
{
ref = n;
},
{
pos = (1681,0);
ref = j;
}
);
width = 2697;
}
);
unicode = 460;
},
{
glyphname = ntilde;
kernLeft = n;
kernRight = n;
lastChange = "2024-06-12 14:22:12 +0000";
layers = (
{
background = {
anchors = (
{
name = top;
pos = (836,1243);
}
);
shapes = (
{
closed = 1;
nodes = (
(971,0,l),
(1569,0,l),
(1569,848,ls),
(1569,1126,o),
(1360,1290,o),
(1108,1290,cs),
(907,1290,o),
(702,1200,o),
(592,1049,c),
(449,1243,l),
(121,1243,l),
(121,0,l),
(715,0,l),
(715,776,ls),
(715,846,o),
(735,905,o),
(795,905,cs),
(903,905,o),
(971,817,o),
(971,600,cs)
);
},
{
closed = 1;
nodes = (
(700,1552,o),
(915,1446,o),
(1077,1446,cs),
(1212,1446,o),
(1312,1521,o),
(1312,1794,cs),
(1312,1802,o),
(1306,1810,o),
(1296,1810,cs),
(1273,1810,o),
(1228,1749,o),
(1153,1749,cs),
(1011,1749,o),
(794,1853,o),
(626,1853,cs),
(485,1853,o),
(378,1780,o),
(378,1509,cs),
(378,1501,o),
(387,1493,o),
(397,1493,cs),
(417,1493,o),
(464,1552,o),
(538,1552,cs)
);
}
);
};
layerId = "22B129CF-CF15-475D-9616-E64336B05864";
shapes = (
{
ref = n;
},
{
pos = (234,563);
ref = tildecomb;
}
);
width = 1681;
}
);
unicode = 241;
},
{
glyphname = o;
kernLeft = _o_left;
kernRight = _o_right;
lastChange = "2024-06-12 14:56:43 +0000";
layers = (
{
anchors = (
{
name = bottom;
pos = (794,0);
},
{
name = center;
pos = (794,622);
},
{
name = ogonek;
pos = (1428,10);
},
{
name = top;
pos = (784,1241);
},
{
name = topright;
pos = (1567,1243);
}
);
background = {
anchors = (
{
name = top;
pos = (784,1241);
}
);
guides = (
{
angle = 90;
pos = (1004,0);
}
);
shapes = (
{
closed = 1;
nodes = (
(1010,899,o),
(1038,840,o),
(1038,780,cs),
(1038,623,o),
(838,367,o),
(721,367,cs),
(631,367,o),
(602,426,o),
(602,485,cs),
(602,657,o),
(795,899,o),
(934,899,cs)
);
},
{
closed = 1;
nodes = (
(1167,-37,o),
(1511,217,o),
(1511,623,cs),
(1511,1036,o),
(1192,1290,o),
(784,1290,cs),
(397,1290,o),
(74,1024,o),
(74,627,cs),
(74,223,o),
(426,-37,o),
(784,-37,cs)
);
}
);
};
guides = (
{
angle = 90;
pos = (1004,0);
}
);
layerId = "22B129CF-CF15-475D-9616-E64336B05864";
shapes = (
{
closed = 1;
nodes = (
(1010,899,o),
(1038,840,o),
(1038,780,cs),
(1038,623,o),
(838,367,o),
(721,367,cs),
(631,367,o),
(602,426,o),
(602,485,cs),
(602,657,o),
(795,899,o),
(934,899,cs)
);
},
{
closed = 1;
nodes = (
(1167,-37,o),
(1511,217,o),
(1511,623,cs),
(1511,1036,o),
(1192,1290,o),
(784,1290,cs),
(397,1290,o),
(74,1024,o),
(74,627,cs),
(74,223,o),
(426,-37,o),
(784,-37,cs)
);
}
);
width = 1587;
}
);
unicode = 111;
},
{
glyphname = oacute;
kernLeft = _o_left;
kernRight = _o_right;
lastChange = "2024-06-12 13:57:54 +0000";
layers = (
{
background = {
anchors = (
{
name = top;
pos = (784,1241);
}
);
shapes = (
{
closed = 1;
nodes = (
(1010,899,o),
(1038,840,o),
(1038,780,cs),
(1038,623,o),
(838,367,o),
(721,367,cs),
(631,367,o),
(602,426,o),
(602,485,cs),
(602,657,o),
(795,899,o),
(934,899,cs)
);
},
{
closed = 1;
nodes = (
(1167,-37,o),
(1511,217,o),
(1511,623,cs),
(1511,1036,o),
(1192,1290,o),
(784,1290,cs),
(397,1290,o),
(74,1024,o),
(74,627,cs),
(74,223,o),
(426,-37,o),
(784,-37,cs)
);
},
{
closed = 1;
nodes = (
(899,2038,l),
(756,1539,ls),
(750,1518,o),
(748,1500,o),
(748,1485,cs),
(748,1451,o),
(762,1430,o),
(785,1430,cs),
(809,1430,o),
(840,1454,o),
(877,1500,cs),
(1307,2038,l)
);
}
);
};
layerId = "22B129CF-CF15-475D-9616-E64336B05864";
shapes = (
{
ref = o;
},
{
pos = (714,561);
ref = acutecomb;
}
);
width = 1587;
}
);
unicode = 243;
},
{
glyphname = ocircumflex;
kernLeft = _o_left;
kernRight = _o_right;
lastChange = "2024-06-12 13:57:54 +0000";
layers = (
{
background = {
anchors = (
{
name = top;
pos = (784,1241);
}
);
shapes = (
{
closed = 1;
nodes = (
(1010,899,o),
(1038,840,o),
(1038,780,cs),
(1038,623,o),
(838,367,o),
(721,367,cs),
(631,367,o),
(602,426,o),
(602,485,cs),
(602,657,o),
(795,899,o),
(934,899,cs)
);
},
{
closed = 1;
nodes = (
(1167,-37,o),
(1511,217,o),
(1511,623,cs),
(1511,1036,o),
(1192,1290,o),
(784,1290,cs),
(397,1290,o),
(74,1024,o),
(74,627,cs),
(74,223,o),
(426,-37,o),
(784,-37,cs)
);
},
{
closed = 1;
nodes = (
(438,1565,l),
(426,1538,o),
(422,1517,o),
(422,1501,cs),
(422,1479,o),
(434,1466,o),
(453,1466,cs),
(479,1466,o),
(518,1489,o),
(559,1526,cs),
(785,1732,l),
(1012,1526,ls),
(1052,1489,o),
(1091,1466,o),
(1118,1466,cs),
(1137,1466,o),
(1147,1479,o),
(1147,1501,cs),
(1147,1517,o),
(1146,1538,o),
(1133,1565,cs),
(928,1982,ls),
(897,2044,o),
(842,2072,o),
(787,2072,cs),
(731,2072,o),
(671,2040,o),
(643,1982,cs)
);
}
);
};
layerId = "22B129CF-CF15-475D-9616-E64336B05864";
shapes = (
{
ref = o;
},
{
pos = (374,561);
ref = circumflexcomb;
}
);
width = 1587;
}
);
unicode = 244;
},
{
glyphname = odieresis;
kernLeft = _o_left;
kernRight = _o_right;
lastChange = "2024-06-12 13:57:54 +0000";
layers = (
{
background = {
anchors = (
{
name = top;
pos = (784,1241);
}
);
shapes = (
{
closed = 1;
nodes = (
(1010,899,o),
(1038,840,o),
(1038,780,cs),
(1038,623,o),
(838,367,o),
(721,367,cs),
(631,367,o),
(602,426,o),
(602,485,cs),
(602,657,o),
(795,899,o),
(934,899,cs)
);
},
{
closed = 1;
nodes = (
(1167,-37,o),
(1511,217,o),
(1511,623,cs),
(1511,1036,o),
(1192,1290,o),
(784,1290,cs),
(397,1290,o),
(74,1024,o),
(74,627,cs),
(74,223,o),
(426,-37,o),
(784,-37,cs)
);
},
{
closed = 1;
nodes = (
(332,1845,o),
(239,1726,o),
(239,1610,cs),
(239,1497,o),
(315,1403,o),
(467,1403,cs),
(643,1403,o),
(719,1524,o),
(719,1644,cs),
(719,1755,o),
(641,1845,o),
(497,1845,cs)
);
},
{
closed = 1;
nodes = (
(938,1845,o),
(846,1726,o),
(846,1610,cs),
(846,1497,o),
(925,1403,o),
(1075,1403,cs),
(1251,1403,o),
(1325,1524,o),
(1325,1644,cs),
(1325,1755,o),
(1247,1845,o),
(1102,1845,cs)
);
}
);
};
layerId = "22B129CF-CF15-475D-9616-E64336B05864";
shapes = (
{
ref = o;
},
{
pos = (137,561);
ref = dieresiscomb;
}
);
width = 1587;
}
);
unicode = 246;
},
{
glyphname = ograve;
kernLeft = _o_left;
kernRight = _o_right;
lastChange = "2024-06-12 13:57:54 +0000";
layers = (
{
background = {
anchors = (
{
name = top;
pos = (784,1241);
}
);
shapes = (
{
closed = 1;
nodes = (
(1010,899,o),
(1038,840,o),
(1038,780,cs),
(1038,623,o),
(838,367,o),
(721,367,cs),
(631,367,o),
(602,426,o),
(602,485,cs),
(602,657,o),
(795,899,o),
(934,899,cs)
);
},
{
closed = 1;
nodes = (
(1167,-37,o),
(1511,217,o),
(1511,623,cs),
(1511,1036,o),
(1192,1290,o),
(784,1290,cs),
(397,1290,o),
(74,1024,o),
(74,627,cs),
(74,223,o),
(426,-37,o),
(784,-37,cs)
);
},
{
closed = 1;
nodes = (
(262,2037,l),
(692,1499,ls),
(729,1453,o),
(759,1429,o),
(784,1429,cs),
(807,1429,o),
(821,1450,o),
(821,1484,cs),
(821,1499,o),
(819,1517,o),
(813,1538,cs),
(669,2037,l)
);
}
);
};
layerId = "22B129CF-CF15-475D-9616-E64336B05864";
shapes = (
{
ref = o;
},
{
pos = (229,561);
ref = gravecomb;
}
);
width = 1587;
}
);
unicode = 242;
},
{
glyphname = ohungarumlaut;
kernLeft = _o_left;
kernRight = _o_right;
lastChange = "2024-06-12 13:57:54 +0000";
layers = (
{
background = {
anchors = (
{
name = top;
pos = (784,1241);
}
);
shapes = (
{
closed = 1;
nodes = (
(1010,899,o),
(1038,840,o),
(1038,780,cs),
(1038,623,o),
(838,367,o),
(721,367,cs),
(631,367,o),
(602,426,o),
(602,485,cs),
(602,657,o),
(795,899,o),
(934,899,cs)
);
},
{
closed = 1;
nodes = (
(1167,-37,o),
(1511,217,o),
(1511,623,cs),
(1511,1036,o),
(1192,1290,o),
(784,1290,cs),
(397,1290,o),
(74,1024,o),
(74,627,cs),
(74,223,o),
(426,-37,o),
(784,-37,cs)
);
},
{
closed = 1;
nodes = (
(566,2046,l),
(525,1546,l),
(525,1536,o),
(523,1528,o),
(523,1519,cs),
(523,1464,o),
(542,1438,o),
(564,1438,cs),
(589,1438,o),
(617,1460,o),
(646,1507,cs),
(974,2046,l)
);
},
{
closed = 1;
nodes = (
(1103,2046,l),
(974,1546,l),
(974,1524,o),
(972,1505,o),
(972,1491,cs),
(972,1456,o),
(984,1442,o),
(1005,1442,cs),
(1031,1442,o),
(1068,1466,o),
(1101,1507,cs),
(1531,2046,l)
);
}
);
};
layerId = "22B129CF-CF15-475D-9616-E64336B05864";
shapes = (
{
ref = o;
},
{
pos = (378,561);
ref = hungarumlautcomb;
}
);
width = 1587;
}
);
unicode = 337;
},
{
glyphname = oinvertedbreve;
kernLeft = _o_left;
kernRight = _o_right;
lastChange = "2024-06-12 14:49:45 +0000";
layers = (
{
background = {
anchors = (
{
name = top;
pos = (784,1241);
}
);
shapes = (
{
closed = 1;
nodes = (
(1010,899,o),
(1038,840,o),
(1038,780,cs),
(1038,623,o),
(838,367,o),
(721,367,cs),
(631,367,o),
(602,426,o),
(602,485,cs),
(602,657,o),
(795,899,o),
(934,899,cs)
);
},
{
closed = 1;
nodes = (
(1167,-37,o),
(1511,217,o),
(1511,623,cs),
(1511,1036,o),
(1192,1290,o),
(784,1290,cs),
(397,1290,o),
(74,1024,o),
(74,627,cs),
(74,223,o),
(426,-37,o),
(784,-37,cs)
);
},
{
closed = 1;
nodes = (
(1339,1487,l),
(1339,1751,o),
(1151,2011,o),
(784,2011,cs),
(416,2011,o),
(229,1753,o),
(229,1487,c),
(598,1487,l),
(598,1597,o),
(662,1702,o),
(784,1702,cs),
(907,1702,o),
(969,1593,o),
(969,1487,c)
);
}
);
};
layerId = "22B129CF-CF15-475D-9616-E64336B05864";
shapes = (
{
ref = o;
},
{
pos = (125,561);
ref = breveinvertedcomb;
}
);
width = 1587;
}
);
unicode = 527;
},
{
glyphname = oslash;
kernLeft = _o_left;
kernRight = _o_right;
lastChange = "2024-06-12 14:56:43 +0000";
layers = (
{
anchors = (
{
name = top;
pos = (794,1243);
}
);
background = {
shapes = (
{
closed = 1;
nodes = (
(1167,-37,o),
(1511,217,o),
(1511,623,cs),
(1511,901,o),
(1366,1108,o),
(1147,1212,c),
(1217,1399,l),
(1053,1454,l),
(981,1270,l),
(918,1282,o),
(852,1290,o),
(784,1290,cs),
(397,1290,o),
(74,1024,o),
(74,627,cs),
(74,334,o),
(258,117,o),
(496,18,c),
(438,-129,l),
(602,-184,l),
(664,-27,l),
(705,-33,o),
(743,-37,o),
(784,-37,cs)
);
},
{
closed = 1;
nodes = (
(1010,899,o),
(1038,840,o),
(1038,780,cs),
(1038,623,o),
(838,367,o),
(721,367,cs),
(631,367,o),
(602,426,o),
(602,485,cs),
(602,657,o),
(795,899,o),
(934,899,cs)
);
}
);
};
layerId = "22B129CF-CF15-475D-9616-E64336B05864";
shapes = (
{
closed = 1;
nodes = (
(1167,-37,o),
(1511,217,o),
(1511,623,cs),
(1511,901,o),
(1366,1108,o),
(1147,1212,c),
(1217,1399,l),
(1053,1454,l),
(981,1270,l),
(918,1282,o),
(852,1290,o),
(784,1290,cs),
(397,1290,o),
(74,1024,o),
(74,627,cs),
(74,334,o),
(258,117,o),
(496,18,c),
(438,-129,l),
(602,-184,l),
(664,-27,l),
(705,-33,o),
(743,-37,o),
(784,-37,cs)
);
},
{
closed = 1;
nodes = (
(1010,899,o),
(1038,840,o),
(1038,780,cs),
(1038,623,o),
(838,367,o),
(721,367,cs),
(631,367,o),
(602,426,o),
(602,485,cs),
(602,657,o),
(795,899,o),
(934,899,cs)
);
}
);
width = 1587;
}
);
unicode = 248;
},
{
glyphname = otilde;
kernLeft = _o_left;
kernRight = _o_right;
lastChange = "2024-06-12 13:57:54 +0000";
layers = (
{
background = {
anchors = (
{
name = top;
pos = (784,1241);
}
);
shapes = (
{
closed = 1;
nodes = (
(1010,899,o),
(1038,840,o),
(1038,780,cs),
(1038,623,o),
(838,367,o),
(721,367,cs),
(631,367,o),
(602,426,o),
(602,485,cs),
(602,657,o),
(795,899,o),
(934,899,cs)
);
},
{
closed = 1;
nodes = (
(1167,-37,o),
(1511,217,o),
(1511,623,cs),
(1511,1036,o),
(1192,1290,o),
(784,1290,cs),
(397,1290,o),
(74,1024,o),
(74,627,cs),
(74,223,o),
(426,-37,o),
(784,-37,cs)
);
},
{
closed = 1;
nodes = (
(649,1550,o),
(864,1444,o),
(1026,1444,cs),
(1161,1444,o),
(1261,1519,o),
(1261,1792,cs),
(1261,1800,o),
(1255,1808,o),
(1245,1808,cs),
(1222,1808,o),
(1177,1747,o),
(1102,1747,cs),
(960,1747,o),
(743,1851,o),
(575,1851,cs),
(434,1851,o),
(327,1778,o),
(327,1507,cs),
(327,1499,o),
(336,1491,o),
(346,1491,cs),
(366,1491,o),
(413,1550,o),
(487,1550,cs)
);
}
);
};
layerId = "22B129CF-CF15-475D-9616-E64336B05864";
shapes = (
{
ref = o;
},
{
pos = (182,561);
ref = tildecomb;
}
);
width = 1587;
}
);
unicode = 245;
},
{
glyphname = oe;
kernLeft = _o_left;
kernRight = e;
lastChange = "2024-06-12 14:56:43 +0000";
layers = (
{
anchors = (
{
name = bottom;
pos = (1272,0);
},
{
name = top;
pos = (1272,1243);
}
);
background = {
shapes = (
{
closed = 1;
nodes = (
(901,-37,o),
(1073,27,o),
(1210,137,c),
(1331,20,o),
(1481,-37,o),
(1634,-37,cs),
(1853,-37,o),
(2116,20,o),
(2226,156,c),
(2165,467,l),
(1959,330,o),
(1853,326,o),
(1779,326,cs),
(1696,326,o),
(1612,328,o),
(1612,414,c),
(1642,412,o),
(1667,412,o),
(1692,412,cs),
(2048,412,o),
(2258,668,o),
(2258,903,cs),
(2258,1105,o),
(2105,1292,o),
(1759,1292,cs),
(1563,1292,o),
(1376,1231,o),
(1233,1106,c),
(1114,1223,o),
(956,1290,o),
(782,1290,cs),
(309,1290,o),
(74,944,o),
(74,606,cs),
(74,281,o),
(291,-37,o),
(721,-37,cs)
);
},
{
closed = 1;
nodes = (
(940,897,o),
(973,844,o),
(973,776,cs),
(973,623,o),
(823,381,o),
(721,381,cs),
(635,381,o),
(606,434,o),
(606,508,cs),
(606,662,o),
(754,897,o),
(860,897,cs)
);
},
{
closed = 1;
nodes = (
(1755,975,o),
(1786,948,o),
(1786,887,cs),
(1786,879,o),
(1784,872,o),
(1784,864,c),
(1765,711,l),
(1559,662,l),
(1583,831,o),
(1579,963,o),
(1704,975,c)
);
}
);
};
layerId = "22B129CF-CF15-475D-9616-E64336B05864";
shapes = (
{
closed = 1;
nodes = (
(901,-37,o),
(1073,27,o),
(1210,137,c),
(1331,20,o),
(1481,-37,o),
(1634,-37,cs),
(1853,-37,o),
(2116,20,o),
(2226,156,c),
(2165,467,l),
(1959,330,o),
(1853,326,o),
(1779,326,cs),
(1696,326,o),
(1612,328,o),
(1612,414,c),
(1642,412,o),
(1667,412,o),
(1692,412,cs),
(2048,412,o),
(2258,668,o),
(2258,903,cs),
(2258,1105,o),
(2105,1292,o),
(1759,1292,cs),
(1563,1292,o),
(1376,1231,o),
(1233,1106,c),
(1114,1223,o),
(956,1290,o),
(782,1290,cs),
(309,1290,o),
(74,944,o),
(74,606,cs),
(74,281,o),
(291,-37,o),
(721,-37,cs)
);
},
{
closed = 1;
nodes = (
(940,897,o),
(973,844,o),
(973,776,cs),
(973,623,o),
(823,381,o),
(721,381,cs),
(635,381,o),
(606,434,o),
(606,508,cs),
(606,662,o),
(754,897,o),
(860,897,cs)
);
},
{
closed = 1;
nodes = (
(1755,975,o),
(1786,948,o),
(1786,887,cs),
(1786,879,o),
(1784,872,o),
(1784,864,c),
(1765,711,l),
(1559,662,l),
(1583,831,o),
(1579,963,o),
(1704,975,c)
);
}
);
width = 2544;
}
);
unicode = 339;
},
{
glyphname = p;
kernLeft = p;
kernRight = _o_right;
lastChange = "2024-06-12 14:56:43 +0000";
layers = (
{
anchors = (
{
name = bottom;
pos = (823,0);
},
{
name = top;
pos = (823,1243);
}
);
background = {
guides = (
{
angle = 90;
pos = (1063,0);
}
);
shapes = (
{
closed = 1;
nodes = (
(924,1290,o),
(748,1223,o),
(588,1051,c),
(449,1243,l),
(121,1243,l),
(121,-324,l),
(715,-324,l),
(715,0,l),
(1350,12,o),
(1569,467,o),
(1569,788,cs),
(1569,1065,o),
(1399,1290,o),
(1063,1290,cs)
);
},
{
closed = 1;
nodes = (
(1042,877,o),
(1075,831,o),
(1075,776,cs),
(1075,555,o),
(784,399,o),
(715,352,c),
(715,639,l),
(766,758,o),
(874,877,o),
(963,877,cs)
);
}
);
};
guides = (
{
angle = 90;
pos = (1063,0);
}
);
layerId = "22B129CF-CF15-475D-9616-E64336B05864";
shapes = (
{
closed = 1;
nodes = (
(924,1290,o),
(748,1223,o),
(588,1051,c),
(449,1243,l),
(121,1243,l),
(121,-324,l),
(715,-324,l),
(715,0,l),
(1350,12,o),
(1569,467,o),
(1569,788,cs),
(1569,1065,o),
(1399,1290,o),
(1063,1290,cs)
);
},
{
closed = 1;
nodes = (
(1042,877,o),
(1075,831,o),
(1075,776,cs),
(1075,555,o),
(784,399,o),
(715,352,c),
(715,639,l),
(766,758,o),
(874,877,o),
(963,877,cs)
);
}
);
width = 1645;
}
);
unicode = 112;
},
{
glyphname = thorn;
kernLeft = h;
kernRight = o;
lastChange = "2024-06-12 14:56:43 +0000";
layers = (
{
anchors = (
{
name = bottom;
pos = (861,0);
},
{
name = top;
pos = (861,1683);
}
);
background = {
shapes = (
{
closed = 1;
nodes = (
(102,-354,l),
(680,-354,l),
(680,-39,l),
(745,-39,ls),
(1440,-39,o),
(1636,432,o),
(1636,657,cs),
(1636,975,o),
(1450,1260,o),
(1085,1260,cs),
(983,1260,o),
(807,1214,o),
(684,1096,c),
(684,1597,l),
(102,1597,l)
);
},
{
closed = 1;
nodes = (
(1044,844,o),
(1071,770,o),
(1071,707,cs),
(1071,539,o),
(915,336,o),
(780,336,cs),
(682,336,l),
(682,713,l),
(741,760,o),
(848,844,o),
(973,844,cs)
);
}
);
};
layerId = "22B129CF-CF15-475D-9616-E64336B05864";
shapes = (
{
closed = 1;
nodes = (
(102,-354,l),
(680,-354,l),
(680,-39,l),
(745,-39,ls),
(1440,-39,o),
(1636,432,o),
(1636,657,cs),
(1636,975,o),
(1450,1260,o),
(1085,1260,cs),
(983,1260,o),
(807,1214,o),
(684,1096,c),
(684,1597,l),
(102,1597,l),
(102,1597,l)
);
},
{
closed = 1;
nodes = (
(1044,844,o),
(1071,770,o),
(1071,707,cs),
(1071,539,o),
(915,336,o),
(780,336,cs),
(682,336,l),
(682,713,l),
(741,760,o),
(848,844,o),
(973,844,cs)
);
}
);
width = 1722;
}
);
unicode = 254;
},
{
glyphname = q;
kernLeft = _o_left;
kernRight = q;
lastChange = "2024-06-12 14:56:43 +0000";
layers = (
{
anchors = (
{
name = bottom;
pos = (852,0);
},
{
name = top;
pos = (852,1243);
}
);
background = {
guides = (
{
angle = 90;
pos = (1077,0);
}
);
shapes = (
{
closed = 1;
nodes = (
(1583,1229,l),
(1348,1268,o),
(1149,1284,o),
(981,1284,cs),
(201,1284,o),
(74,797,o),
(74,565,cs),
(74,248,o),
(262,-37,o),
(641,-37,cs),
(743,-37,o),
(920,8,o),
(1042,127,c),
(1042,-326,l),
(1583,-326,l)
);
},
{
closed = 1;
nodes = (
(682,379,o),
(655,453,o),
(655,516,cs),
(655,684,o),
(821,887,o),
(967,887,cs),
(993,887,o),
(1020,881,o),
(1044,866,c),
(1044,510,l),
(985,463,o),
(879,379,o),
(754,379,cs)
);
}
);
};
guides = (
{
angle = 90;
pos = (1077,0);
}
);
layerId = "22B129CF-CF15-475D-9616-E64336B05864";
shapes = (
{
closed = 1;
nodes = (
(1583,1229,l),
(1348,1268,o),
(1149,1284,o),
(981,1284,cs),
(201,1284,o),
(74,797,o),
(74,565,cs),
(74,248,o),
(262,-37,o),
(641,-37,cs),
(743,-37,o),
(920,8,o),
(1042,127,c),
(1042,-326,l),
(1583,-326,l),
(1583,-326,l)
);
},
{
closed = 1;
nodes = (
(682,379,o),
(655,453,o),
(655,516,cs),
(655,684,o),
(821,887,o),
(967,887,cs),
(993,887,o),
(1020,881,o),
(1044,866,c),
(1044,510,l),
(985,463,o),
(879,379,o),
(754,379,cs)
);
}
);
width = 1704;
}
);
unicode = 113;
},
{
glyphname = r;
kernLeft = n;
kernRight = r;
lastChange = "2024-06-12 14:56:43 +0000";
layers = (
{
anchors = (
{
name = bot;
pos = (520,0);
},
{
name = bottom;
pos = (533,0);
},
{
name = top;
pos = (528,1243);
}
);
background = {
anchors = (
{
name = bot;
pos = (520,0);
},
{
name = top;
pos = (528,1243);
}
);
shapes = (
{
closed = 1;
nodes = (
(1010,1288,l),
(897,1276,o),
(791,1212,o),
(723,1110,c),
(723,1243,l),
(121,1243,l),
(121,0,l),
(723,0,l),
(723,580,ls),
(723,659,o),
(885,774,o),
(1010,774,c)
);
}
);
};
layerId = "22B129CF-CF15-475D-9616-E64336B05864";
shapes = (
{
closed = 1;
nodes = (
(1010,1288,l),
(897,1276,o),
(791,1212,o),
(723,1110,c),
(723,1243,l),
(121,1243,l),
(121,0,l),
(723,0,l),
(723,580,ls),
(723,659,o),
(885,774,o),
(1010,774,c)
);
}
);
width = 1065;
}
);
unicode = 114;
},
{
glyphname = racute;
kernLeft = n;
kernRight = r;
lastChange = "2024-06-12 14:22:12 +0000";
layers = (
{
background = {
anchors = (
{
name = bot;
pos = (520,0);
},
{
name = top;
pos = (528,1243);
}
);
shapes = (
{
closed = 1;
nodes = (
(1010,1288,l),
(897,1276,o),
(791,1212,o),
(723,1110,c),
(723,1243,l),
(121,1243,l),
(121,0,l),
(723,0,l),
(723,580,ls),
(723,659,o),
(885,774,o),
(1010,774,c)
);
},
{
closed = 1;
nodes = (
(598,2040,l),
(455,1541,ls),
(449,1520,o),
(447,1502,o),
(447,1487,cs),
(447,1453,o),
(461,1432,o),
(484,1432,cs),
(508,1432,o),
(539,1456,o),
(576,1502,cs),
(1006,2040,l)
);
}
);
};
layerId = "22B129CF-CF15-475D-9616-E64336B05864";
shapes = (
{
ref = r;
},
{
pos = (458,563);
ref = acutecomb;
}
);
width = 1065;
}
);
unicode = 341;
},
{
glyphname = rcaron;
kernLeft = n;
kernRight = r;
lastChange = "2024-06-12 14:22:12 +0000";
layers = (
{
background = {
anchors = (
{
name = bot;
pos = (506,0);
},
{
name = top;
pos = (514,1243);
}
);
shapes = (
{
closed = 1;
nodes = (
(996,1288,l),
(883,1276,o),
(777,1212,o),
(709,1110,c),
(709,1243,l),
(107,1243,l),
(107,0,l),
(709,0,l),
(709,580,ls),
(709,659,o),
(871,774,o),
(996,774,c)
);
},
{
closed = 1;
nodes = (
(387,1552,ls),
(415,1495,o),
(476,1462,o),
(530,1462,cs),
(585,1462,o),
(642,1490,o),
(672,1552,cs),
(876,1970,ls),
(889,1997,o),
(891,2017,o),
(891,2033,cs),
(891,2056,o),
(880,2068,o),
(862,2068,cs),
(835,2068,o),
(795,2045,o),
(756,2009,cs),
(528,1802,l),
(303,2009,ls),
(262,2046,o),
(223,2068,o),
(196,2068,cs),
(178,2068,o),
(166,2056,o),
(166,2033,cs),
(166,2015,o),
(171,1996,o),
(182,1970,c)
);
}
);
};
layerId = "22B129CF-CF15-475D-9616-E64336B05864";
shapes = (
{
ref = r;
},
{
pos = (135,563);
ref = caroncomb;
}
);
width = 1065;
}
);
unicode = 345;
},
{
glyphname = rcommaaccent;
kernLeft = n;
kernRight = r;
lastChange = "2024-06-12 14:22:12 +0000";
layers = (
{
associatedMasterId = "22B129CF-CF15-475D-9616-E64336B05864";
layerId = "B6CE1041-7538-4217-84EF-70C52ADE8BCB";
name = img;
width = 1065;
},
{
background = {
anchors = (
{
name = bot;
pos = (506,0);
},
{
name = top;
pos = (514,1243);
}
);
shapes = (
{
closed = 1;
nodes = (
(996,1288,l),
(883,1276,o),
(777,1212,o),
(709,1110,c),
(709,1243,l),
(107,1243,l),
(107,0,l),
(709,0,l),
(709,580,ls),
(709,659,o),
(871,774,o),
(996,774,c)
);
},
{
closed = 1;
nodes = (
(124,-1022,l),
(548,-1022,o),
(733,-842,o),
(733,-539,cs),
(733,-135,l),
(124,-135,l),
(124,-557,l),
(304,-557,l),
(304,-557,o),
(304,-764,o),
(124,-764,c)
);
}
);
};
layerId = "22B129CF-CF15-475D-9616-E64336B05864";
shapes = (
{
ref = r;
},
{
pos = (165,0);
ref = commaaccentcomb;
}
);
width = 1065;
}
);
unicode = 343;
},
{
glyphname = rinvertedbreve;
kernLeft = n;
kernRight = r;
lastChange = "2024-06-12 14:49:45 +0000";
layers = (
{
associatedMasterId = "22B129CF-CF15-475D-9616-E64336B05864";
layerId = "B6CE1041-7538-4217-84EF-70C52ADE8BCB";
name = img;
width = 1065;
},
{
background = {
anchors = (
{
name = bot;
pos = (520,0);
},
{
name = top;
pos = (528,1243);
}
);
shapes = (
{
closed = 1;
nodes = (
(1010,1288,l),
(897,1276,o),
(791,1212,o),
(723,1110,c),
(723,1243,l),
(121,1243,l),
(121,0,l),
(723,0,l),
(723,580,ls),
(723,659,o),
(885,774,o),
(1010,774,c)
);
},
{
closed = 1;
nodes = (
(1083,1489,l),
(1083,1753,o),
(895,2013,o),
(528,2013,cs),
(160,2013,o),
(-27,1755,o),
(-27,1489,c),
(342,1489,l),
(342,1599,o),
(406,1704,o),
(528,1704,cs),
(651,1704,o),
(713,1595,o),
(713,1489,c)
);
}
);
};
layerId = "22B129CF-CF15-475D-9616-E64336B05864";
shapes = (
{
ref = r;
},
{
pos = (-131,563);
ref = breveinvertedcomb;
}
);
width = 1065;
}
);
unicode = 531;
},
{
glyphname = s;
kernLeft = s;
kernRight = s;
lastChange = "2024-06-12 14:56:43 +0000";
layers = (
{
anchors = (
{
name = bot;
pos = (585,0);
},
{
name = bottom;
pos = (601,0);
},
{
name = top;
pos = (580,1243);
}
);
background = {
anchors = (
{
name = bot;
pos = (585,0);
},
{
name = top;
pos = (580,1243);
}
);
shapes = (
{
closed = 1;
nodes = (
(100,53,l),
(100,53,o),
(199,-37,o),
(584,-37,cs),
(907,-37,o),
(1118,102,o),
(1118,377,cs),
(1118,664,o),
(954,726,o),
(743,812,cs),
(674,840,o),
(657,858,o),
(657,879,cs),
(657,901,o),
(678,922,o),
(717,922,cs),
(817,922,o),
(1040,870,o),
(1040,870,c),
(1040,1247,l),
(1010,1255,o),
(840,1290,o),
(659,1290,cs),
(377,1290,o),
(96,1184,o),
(96,885,cs),
(96,500,o),
(479,520,o),
(479,397,cs),
(479,360,o),
(453,348,o),
(414,348,cs),
(299,348,o),
(137,422,o),
(100,424,c)
);
}
);
};
layerId = "22B129CF-CF15-475D-9616-E64336B05864";
shapes = (
{
closed = 1;
nodes = (
(100,53,l),
(100,53,o),
(199,-37,o),
(584,-37,cs),
(907,-37,o),
(1118,102,o),
(1118,377,cs),
(1118,664,o),
(954,726,o),
(743,812,cs),
(674,840,o),
(657,858,o),
(657,879,cs),
(657,901,o),
(678,922,o),
(717,922,cs),
(817,922,o),
(1040,870,o),
(1040,870,c),
(1040,1247,l),
(1010,1255,o),
(840,1290,o),
(659,1290,cs),
(377,1290,o),
(96,1184,o),
(96,885,cs),
(96,500,o),
(479,520,o),
(479,397,cs),
(479,360,o),
(453,348,o),
(414,348,cs),
(299,348,o),
(137,422,o),
(100,424,c)
);
}
);
width = 1202;
}
);
unicode = 115;
},
{
glyphname = scaron;
kernLeft = s;
kernRight = s;
lastChange = "2024-06-12 14:22:12 +0000";
layers = (
{
background = {
anchors = (
{
name = bot;
pos = (585,0);
},
{
name = top;
pos = (580,1243);
}
);
shapes = (
{
closed = 1;
nodes = (
(100,53,l),
(100,53,o),
(199,-37,o),
(584,-37,cs),
(907,-37,o),
(1118,102,o),
(1118,377,cs),
(1118,664,o),
(954,726,o),
(743,812,cs),
(674,840,o),
(657,858,o),
(657,879,cs),
(657,901,o),
(678,922,o),
(717,922,cs),
(817,922,o),
(1040,870,o),
(1040,870,c),
(1040,1247,l),
(1010,1255,o),
(840,1290,o),
(659,1290,cs),
(377,1290,o),
(96,1184,o),
(96,885,cs),
(96,500,o),
(479,520,o),
(479,397,cs),
(479,360,o),
(453,348,o),
(414,348,cs),
(299,348,o),
(137,422,o),
(100,424,c)
);
},
{
closed = 1;
nodes = (
(438,1552,ls),
(466,1495,o),
(527,1462,o),
(581,1462,cs),
(636,1462,o),
(693,1490,o),
(723,1552,cs),
(927,1970,ls),
(940,1997,o),
(942,2017,o),
(942,2033,cs),
(942,2056,o),
(931,2068,o),
(913,2068,cs),
(886,2068,o),
(846,2045,o),
(807,2009,cs),
(579,1802,l),
(354,2009,ls),
(313,2046,o),
(274,2068,o),
(247,2068,cs),
(229,2068,o),
(217,2056,o),
(217,2033,cs),
(217,2015,o),
(222,1996,o),
(233,1970,c)
);
}
);
};
layerId = "22B129CF-CF15-475D-9616-E64336B05864";
shapes = (
{
ref = s;
},
{
pos = (187,563);
ref = caroncomb;
}
);
width = 1202;
}
);
unicode = 353;
},
